<?xml version="1.0" encoding="UTF-8" standalone="no"?>
<svg
   xmlns:dc="http://purl.org/dc/elements/1.1/"
   xmlns:cc="http://creativecommons.org/ns#"
   xmlns:rdf="http://www.w3.org/1999/02/22-rdf-syntax-ns#"
   xmlns:svg="http://www.w3.org/2000/svg"
   xmlns="http://www.w3.org/2000/svg"
   xmlns:sodipodi="http://sodipodi.sourceforge.net/DTD/sodipodi-0.dtd"
   xmlns:inkscape="http://www.inkscape.org/namespaces/inkscape"
   version="1.1"
   width="1113"
   height="850"
   id="svg2702"
   sodipodi:docname="hastings-5-approx-plot.svg"
   inkscape:version="1.0.2 (e86c870879, 2021-01-15)">
  <metadata
     id="metadata2706">
    <rdf:RDF>
      <cc:Work
         rdf:about="">
        <dc:format>image/svg+xml</dc:format>
        <dc:type
           rdf:resource="http://purl.org/dc/dcmitype/StillImage" />
        <dc:title></dc:title>
      </cc:Work>
    </rdf:RDF>
  </metadata>
  <sodipodi:namedview
     pagecolor="#ffffff"
     bordercolor="#666666"
     borderopacity="1"
     objecttolerance="10"
     gridtolerance="10"
     guidetolerance="10"
     inkscape:pageopacity="0"
     inkscape:pageshadow="2"
     inkscape:window-width="1276"
     inkscape:window-height="685"
     id="namedview2704"
     showgrid="false"
     inkscape:zoom="0.5"
     inkscape:cx="595.5435"
     inkscape:cy="368.18085"
     inkscape:window-x="0"
     inkscape:window-y="15"
     inkscape:window-maximized="0"
     inkscape:current-layer="g2725"
     showguides="false"
     inkscape:document-rotation="0" />
  <defs
     id="defs2400">
    <clipPath
       id="TgAVFGXZNmAT">
      <path
         fill="none"
         stroke="none"
         d="M 0,0 H 1113 V 752 H 0 Z"
         id="path2397" />
    </clipPath>
    <filter
       inkscape:collect="always"
       style="color-interpolation-filters:sRGB"
       id="filter5512"
       x="-0.0032152981"
       width="1.0064306"
       y="-0.0019145345"
       height="1.0038291">
      <feGaussianBlur
         inkscape:collect="always"
         stdDeviation="0.014503914"
         id="feGaussianBlur5514" />
    </filter>
  </defs>
  <path
     fill="none"
     stroke="#c0c0c0"
     paint-order="fill stroke markers"
     d="m 0.5,98.5 v 752 m 0,-752 v 752 m 56,-752 v 752 m 56,-752 v 752 m 55,-752 v 752 m 56,-752 v 752 m 55,-752 v 752 m 56,-752 v 752 m 55,-752 v 752 m 56,-752 v 752 m 55,-752 v 752 m 112,-752 v 752 m 55,-752 v 752 m 56,-752 v 752 m 55,-752 v 752 m 56,-752 v 752 m 55,-752 v 752 m 56,-752 v 752 m 55,-752 v 752 m 56,-752 v 752 m 56,-752 v 752"
     stroke-opacity="1"
     stroke-linecap="round"
     stroke-linejoin="round"
     stroke-miterlimit="10"
     id="path2404" />
  <path
     style="fill:none;stroke:#000000;stroke-width:1;stroke-linecap:butt;stroke-linejoin:miter;stroke-miterlimit:4;stroke-dasharray:none;stroke-opacity:1"
     d="M 834.5165,97.41516 V 974.86471"
     id="path5464-3-6" />
  <path
     fill="none"
     stroke="#c0c0c0"
     paint-order="fill stroke markers"
     d="m 0.5,137.5 h 1113 m -1113,0 h 1113 m -1113,56 h 1113 m -1113,55 h 1113 m -1113,56 h 1113 m -1113,55 h 1113 m -1113,56 h 1113 m -1113,111 h 1113 m -1113,56 h 1113 m -1113,55 h 1113 m -1113,56 h 1113 m -1113,55 h 1113 m -1113,56 h 1113"
     stroke-opacity="1"
     stroke-linecap="round"
     stroke-linejoin="round"
     stroke-miterlimit="10"
     id="path2408" />
  <path
     fill="none"
     stroke="#000000"
     paint-order="fill stroke markers"
     d="m 556.5,100.5 v 750"
     stroke-opacity="1"
     stroke-miterlimit="10"
     id="path2412" />
  <path
     fill="none"
     stroke="#000000"
     paint-order="fill stroke markers"
     d="m 556.5,99.5 -4,4"
     stroke-opacity="1"
     stroke-miterlimit="10"
     id="path2414" />
  <path
     fill="none"
     stroke="#000000"
     paint-order="fill stroke markers"
     d="m 556.5,99.5 4,4"
     stroke-opacity="1"
     stroke-miterlimit="10"
     id="path2416" />
  <path
     fill="none"
     stroke="#000000"
     paint-order="fill stroke markers"
     d="m 0.5,471.5 h 1111"
     stroke-opacity="1"
     stroke-miterlimit="10"
     id="path2418" />
  <path
     style="fill:none;stroke:#000000;stroke-width:1;stroke-linecap:butt;stroke-linejoin:miter;stroke-miterlimit:4;stroke-dasharray:none;stroke-opacity:1"
     d="M 278.46098,97.73093 V 975.18049"
     id="path5464-3" />
  <path
     fill="none"
     stroke="#000000"
     paint-order="fill stroke markers"
     d="m 1112.5,471.5 -4,-4"
     stroke-opacity="1"
     stroke-miterlimit="10"
     id="path2420" />
  <path
     fill="none"
     stroke="#000000"
     paint-order="fill stroke markers"
     d="m 1112.5,471.5 -4,4"
     stroke-opacity="1"
     stroke-miterlimit="10"
     id="path2422" />
  <text
     fill="#000000"
     stroke="none"
     font-family="geogebra-sans-serif, sans-serif"
     font-size="12px"
     font-style="normal"
     font-weight="normal"
     text-decoration="normal"
     x="45"
     y="487"
     text-anchor="start"
     dominant-baseline="alphabetic"
     fill-opacity="1"
     id="text2424">–1.8</text>
  <text
     fill="none"
     stroke="#ffffff"
     font-family="geogebra-sans-serif, sans-serif"
     font-size="12px"
     font-style="normal"
     font-weight="normal"
     text-decoration="normal"
     x="45"
     y="487"
     text-anchor="start"
     dominant-baseline="alphabetic"
     stroke-opacity="1"
     stroke-linejoin="bevel"
     stroke-miterlimit="10"
     stroke-width="3"
     id="text2426">–1.8</text>
  <text
     fill="#000000"
     stroke="none"
     font-family="geogebra-sans-serif, sans-serif"
     font-size="12px"
     font-style="normal"
     font-weight="normal"
     text-decoration="normal"
     x="45"
     y="487"
     text-anchor="start"
     dominant-baseline="alphabetic"
     fill-opacity="1"
     id="text2428">–1.8</text>
  <text
     fill="#000000"
     stroke="none"
     font-family="geogebra-sans-serif, sans-serif"
     font-size="12px"
     font-style="normal"
     font-weight="normal"
     text-decoration="normal"
     x="101"
     y="487"
     text-anchor="start"
     dominant-baseline="alphabetic"
     fill-opacity="1"
     id="text2430">–1.6</text>
  <text
     fill="none"
     stroke="#ffffff"
     font-family="geogebra-sans-serif, sans-serif"
     font-size="12px"
     font-style="normal"
     font-weight="normal"
     text-decoration="normal"
     x="101"
     y="487"
     text-anchor="start"
     dominant-baseline="alphabetic"
     stroke-opacity="1"
     stroke-linejoin="bevel"
     stroke-miterlimit="10"
     stroke-width="3"
     id="text2432">–1.6</text>
  <text
     fill="#000000"
     stroke="none"
     font-family="geogebra-sans-serif, sans-serif"
     font-size="12px"
     font-style="normal"
     font-weight="normal"
     text-decoration="normal"
     x="101"
     y="487"
     text-anchor="start"
     dominant-baseline="alphabetic"
     fill-opacity="1"
     id="text2434">–1.6</text>
  <text
     fill="#000000"
     stroke="none"
     font-family="geogebra-sans-serif, sans-serif"
     font-size="12px"
     font-style="normal"
     font-weight="normal"
     text-decoration="normal"
     x="156"
     y="487"
     text-anchor="start"
     dominant-baseline="alphabetic"
     fill-opacity="1"
     id="text2436">–1.4</text>
  <text
     fill="none"
     stroke="#ffffff"
     font-family="geogebra-sans-serif, sans-serif"
     font-size="12px"
     font-style="normal"
     font-weight="normal"
     text-decoration="normal"
     x="156"
     y="487"
     text-anchor="start"
     dominant-baseline="alphabetic"
     stroke-opacity="1"
     stroke-linejoin="bevel"
     stroke-miterlimit="10"
     stroke-width="3"
     id="text2438">–1.4</text>
  <text
     fill="#000000"
     stroke="none"
     font-family="geogebra-sans-serif, sans-serif"
     font-size="12px"
     font-style="normal"
     font-weight="normal"
     text-decoration="normal"
     x="156"
     y="487"
     text-anchor="start"
     dominant-baseline="alphabetic"
     fill-opacity="1"
     id="text2440">–1.4</text>
  <text
     fill="#000000"
     stroke="none"
     font-family="geogebra-sans-serif, sans-serif"
     font-size="12px"
     font-style="normal"
     font-weight="normal"
     text-decoration="normal"
     x="212"
     y="487"
     text-anchor="start"
     dominant-baseline="alphabetic"
     fill-opacity="1"
     id="text2442">–1.2</text>
  <text
     fill="none"
     stroke="#ffffff"
     font-family="geogebra-sans-serif, sans-serif"
     font-size="12px"
     font-style="normal"
     font-weight="normal"
     text-decoration="normal"
     x="212"
     y="487"
     text-anchor="start"
     dominant-baseline="alphabetic"
     stroke-opacity="1"
     stroke-linejoin="bevel"
     stroke-miterlimit="10"
     stroke-width="3"
     id="text2444">–1.2</text>
  <text
     fill="#000000"
     stroke="none"
     font-family="geogebra-sans-serif, sans-serif"
     font-size="12px"
     font-style="normal"
     font-weight="normal"
     text-decoration="normal"
     x="212"
     y="487"
     text-anchor="start"
     dominant-baseline="alphabetic"
     fill-opacity="1"
     id="text2446">–1.2</text>
  <text
     fill="#000000"
     stroke="none"
     font-family="geogebra-sans-serif, sans-serif"
     font-size="12px"
     font-style="normal"
     font-weight="normal"
     text-decoration="normal"
     x="323"
     y="487"
     text-anchor="start"
     dominant-baseline="alphabetic"
     fill-opacity="1"
     id="text2454">–0.8</text>
  <text
     fill="none"
     stroke="#ffffff"
     font-family="geogebra-sans-serif, sans-serif"
     font-size="12px"
     font-style="normal"
     font-weight="normal"
     text-decoration="normal"
     x="323"
     y="487"
     text-anchor="start"
     dominant-baseline="alphabetic"
     stroke-opacity="1"
     stroke-linejoin="bevel"
     stroke-miterlimit="10"
     stroke-width="3"
     id="text2456">–0.8</text>
  <text
     fill="#000000"
     stroke="none"
     font-family="geogebra-sans-serif, sans-serif"
     font-size="12px"
     font-style="normal"
     font-weight="normal"
     text-decoration="normal"
     x="323"
     y="487"
     text-anchor="start"
     dominant-baseline="alphabetic"
     fill-opacity="1"
     id="text2458">–0.8</text>
  <text
     fill="#000000"
     stroke="none"
     font-family="geogebra-sans-serif, sans-serif"
     font-size="12px"
     font-style="normal"
     font-weight="normal"
     text-decoration="normal"
     x="378"
     y="487"
     text-anchor="start"
     dominant-baseline="alphabetic"
     fill-opacity="1"
     id="text2460">–0.6</text>
  <text
     fill="none"
     stroke="#ffffff"
     font-family="geogebra-sans-serif, sans-serif"
     font-size="12px"
     font-style="normal"
     font-weight="normal"
     text-decoration="normal"
     x="378"
     y="487"
     text-anchor="start"
     dominant-baseline="alphabetic"
     stroke-opacity="1"
     stroke-linejoin="bevel"
     stroke-miterlimit="10"
     stroke-width="3"
     id="text2462">–0.6</text>
  <text
     fill="#000000"
     stroke="none"
     font-family="geogebra-sans-serif, sans-serif"
     font-size="12px"
     font-style="normal"
     font-weight="normal"
     text-decoration="normal"
     x="378"
     y="487"
     text-anchor="start"
     dominant-baseline="alphabetic"
     fill-opacity="1"
     id="text2464">–0.6</text>
  <text
     fill="#000000"
     stroke="none"
     font-family="geogebra-sans-serif, sans-serif"
     font-size="12px"
     font-style="normal"
     font-weight="normal"
     text-decoration="normal"
     x="434"
     y="487"
     text-anchor="start"
     dominant-baseline="alphabetic"
     fill-opacity="1"
     id="text2466">–0.4</text>
  <text
     fill="none"
     stroke="#ffffff"
     font-family="geogebra-sans-serif, sans-serif"
     font-size="12px"
     font-style="normal"
     font-weight="normal"
     text-decoration="normal"
     x="434"
     y="487"
     text-anchor="start"
     dominant-baseline="alphabetic"
     stroke-opacity="1"
     stroke-linejoin="bevel"
     stroke-miterlimit="10"
     stroke-width="3"
     id="text2468">–0.4</text>
  <text
     fill="#000000"
     stroke="none"
     font-family="geogebra-sans-serif, sans-serif"
     font-size="12px"
     font-style="normal"
     font-weight="normal"
     text-decoration="normal"
     x="434"
     y="487"
     text-anchor="start"
     dominant-baseline="alphabetic"
     fill-opacity="1"
     id="text2470">–0.4</text>
  <text
     fill="#000000"
     stroke="none"
     font-family="geogebra-sans-serif, sans-serif"
     font-size="12px"
     font-style="normal"
     font-weight="normal"
     text-decoration="normal"
     x="489"
     y="487"
     text-anchor="start"
     dominant-baseline="alphabetic"
     fill-opacity="1"
     id="text2472">–0.2</text>
  <text
     fill="none"
     stroke="#ffffff"
     font-family="geogebra-sans-serif, sans-serif"
     font-size="12px"
     font-style="normal"
     font-weight="normal"
     text-decoration="normal"
     x="489"
     y="487"
     text-anchor="start"
     dominant-baseline="alphabetic"
     stroke-opacity="1"
     stroke-linejoin="bevel"
     stroke-miterlimit="10"
     stroke-width="3"
     id="text2474">–0.2</text>
  <text
     fill="#000000"
     stroke="none"
     font-family="geogebra-sans-serif, sans-serif"
     font-size="12px"
     font-style="normal"
     font-weight="normal"
     text-decoration="normal"
     x="489"
     y="487"
     text-anchor="start"
     dominant-baseline="alphabetic"
     fill-opacity="1"
     id="text2476">–0.2</text>
  <text
     fill="#000000"
     stroke="none"
     font-family="geogebra-sans-serif, sans-serif"
     font-size="12px"
     font-style="normal"
     font-weight="normal"
     text-decoration="normal"
     x="604"
     y="487"
     text-anchor="start"
     dominant-baseline="alphabetic"
     fill-opacity="1"
     id="text2478">0.2</text>
  <text
     fill="none"
     stroke="#ffffff"
     font-family="geogebra-sans-serif, sans-serif"
     font-size="12px"
     font-style="normal"
     font-weight="normal"
     text-decoration="normal"
     x="604"
     y="487"
     text-anchor="start"
     dominant-baseline="alphabetic"
     stroke-opacity="1"
     stroke-linejoin="bevel"
     stroke-miterlimit="10"
     stroke-width="3"
     id="text2480">0.2</text>
  <text
     fill="#000000"
     stroke="none"
     font-family="geogebra-sans-serif, sans-serif"
     font-size="12px"
     font-style="normal"
     font-weight="normal"
     text-decoration="normal"
     x="604"
     y="487"
     text-anchor="start"
     dominant-baseline="alphabetic"
     fill-opacity="1"
     id="text2482">0.2</text>
  <text
     fill="#000000"
     stroke="none"
     font-family="geogebra-sans-serif, sans-serif"
     font-size="12px"
     font-style="normal"
     font-weight="normal"
     text-decoration="normal"
     x="659"
     y="487"
     text-anchor="start"
     dominant-baseline="alphabetic"
     fill-opacity="1"
     id="text2484">0.4</text>
  <text
     fill="none"
     stroke="#ffffff"
     font-family="geogebra-sans-serif, sans-serif"
     font-size="12px"
     font-style="normal"
     font-weight="normal"
     text-decoration="normal"
     x="659"
     y="487"
     text-anchor="start"
     dominant-baseline="alphabetic"
     stroke-opacity="1"
     stroke-linejoin="bevel"
     stroke-miterlimit="10"
     stroke-width="3"
     id="text2486">0.4</text>
  <text
     fill="#000000"
     stroke="none"
     font-family="geogebra-sans-serif, sans-serif"
     font-size="12px"
     font-style="normal"
     font-weight="normal"
     text-decoration="normal"
     x="659"
     y="487"
     text-anchor="start"
     dominant-baseline="alphabetic"
     fill-opacity="1"
     id="text2488">0.4</text>
  <text
     fill="#000000"
     stroke="none"
     font-family="geogebra-sans-serif, sans-serif"
     font-size="12px"
     font-style="normal"
     font-weight="normal"
     text-decoration="normal"
     x="715"
     y="487"
     text-anchor="start"
     dominant-baseline="alphabetic"
     fill-opacity="1"
     id="text2490">0.6</text>
  <text
     fill="none"
     stroke="#ffffff"
     font-family="geogebra-sans-serif, sans-serif"
     font-size="12px"
     font-style="normal"
     font-weight="normal"
     text-decoration="normal"
     x="715"
     y="487"
     text-anchor="start"
     dominant-baseline="alphabetic"
     stroke-opacity="1"
     stroke-linejoin="bevel"
     stroke-miterlimit="10"
     stroke-width="3"
     id="text2492">0.6</text>
  <text
     fill="#000000"
     stroke="none"
     font-family="geogebra-sans-serif, sans-serif"
     font-size="12px"
     font-style="normal"
     font-weight="normal"
     text-decoration="normal"
     x="715"
     y="487"
     text-anchor="start"
     dominant-baseline="alphabetic"
     fill-opacity="1"
     id="text2494">0.6</text>
  <text
     fill="#000000"
     stroke="none"
     font-family="geogebra-sans-serif, sans-serif"
     font-size="12px"
     font-style="normal"
     font-weight="normal"
     text-decoration="normal"
     x="770"
     y="487"
     text-anchor="start"
     dominant-baseline="alphabetic"
     fill-opacity="1"
     id="text2496">0.8</text>
  <text
     fill="none"
     stroke="#ffffff"
     font-family="geogebra-sans-serif, sans-serif"
     font-size="12px"
     font-style="normal"
     font-weight="normal"
     text-decoration="normal"
     x="770"
     y="487"
     text-anchor="start"
     dominant-baseline="alphabetic"
     stroke-opacity="1"
     stroke-linejoin="bevel"
     stroke-miterlimit="10"
     stroke-width="3"
     id="text2498">0.8</text>
  <text
     fill="#000000"
     stroke="none"
     font-family="geogebra-sans-serif, sans-serif"
     font-size="12px"
     font-style="normal"
     font-weight="normal"
     text-decoration="normal"
     x="770"
     y="487"
     text-anchor="start"
     dominant-baseline="alphabetic"
     fill-opacity="1"
     id="text2500">0.8</text>
  <text
     fill="#000000"
     stroke="none"
     font-family="geogebra-sans-serif, sans-serif"
     font-size="12px"
     font-style="normal"
     font-weight="normal"
     text-decoration="normal"
     x="881"
     y="487"
     text-anchor="start"
     dominant-baseline="alphabetic"
     fill-opacity="1"
     id="text2508">1.2</text>
  <text
     fill="none"
     stroke="#ffffff"
     font-family="geogebra-sans-serif, sans-serif"
     font-size="12px"
     font-style="normal"
     font-weight="normal"
     text-decoration="normal"
     x="881"
     y="487"
     text-anchor="start"
     dominant-baseline="alphabetic"
     stroke-opacity="1"
     stroke-linejoin="bevel"
     stroke-miterlimit="10"
     stroke-width="3"
     id="text2510">1.2</text>
  <text
     fill="#000000"
     stroke="none"
     font-family="geogebra-sans-serif, sans-serif"
     font-size="12px"
     font-style="normal"
     font-weight="normal"
     text-decoration="normal"
     x="881"
     y="487"
     text-anchor="start"
     dominant-baseline="alphabetic"
     fill-opacity="1"
     id="text2512">1.2</text>
  <text
     fill="#000000"
     stroke="none"
     font-family="geogebra-sans-serif, sans-serif"
     font-size="12px"
     font-style="normal"
     font-weight="normal"
     text-decoration="normal"
     x="937"
     y="487"
     text-anchor="start"
     dominant-baseline="alphabetic"
     fill-opacity="1"
     id="text2514">1.4</text>
  <text
     fill="none"
     stroke="#ffffff"
     font-family="geogebra-sans-serif, sans-serif"
     font-size="12px"
     font-style="normal"
     font-weight="normal"
     text-decoration="normal"
     x="937"
     y="487"
     text-anchor="start"
     dominant-baseline="alphabetic"
     stroke-opacity="1"
     stroke-linejoin="bevel"
     stroke-miterlimit="10"
     stroke-width="3"
     id="text2516">1.4</text>
  <text
     fill="#000000"
     stroke="none"
     font-family="geogebra-sans-serif, sans-serif"
     font-size="12px"
     font-style="normal"
     font-weight="normal"
     text-decoration="normal"
     x="937"
     y="487"
     text-anchor="start"
     dominant-baseline="alphabetic"
     fill-opacity="1"
     id="text2518">1.4</text>
  <text
     fill="#000000"
     stroke="none"
     font-family="geogebra-sans-serif, sans-serif"
     font-size="12px"
     font-style="normal"
     font-weight="normal"
     text-decoration="normal"
     x="992"
     y="487"
     text-anchor="start"
     dominant-baseline="alphabetic"
     fill-opacity="1"
     id="text2520">1.6</text>
  <text
     fill="none"
     stroke="#ffffff"
     font-family="geogebra-sans-serif, sans-serif"
     font-size="12px"
     font-style="normal"
     font-weight="normal"
     text-decoration="normal"
     x="992"
     y="487"
     text-anchor="start"
     dominant-baseline="alphabetic"
     stroke-opacity="1"
     stroke-linejoin="bevel"
     stroke-miterlimit="10"
     stroke-width="3"
     id="text2522">1.6</text>
  <text
     fill="#000000"
     stroke="none"
     font-family="geogebra-sans-serif, sans-serif"
     font-size="12px"
     font-style="normal"
     font-weight="normal"
     text-decoration="normal"
     x="992"
     y="487"
     text-anchor="start"
     dominant-baseline="alphabetic"
     fill-opacity="1"
     id="text2524">1.6</text>
  <text
     fill="#000000"
     stroke="none"
     font-family="geogebra-sans-serif, sans-serif"
     font-size="12px"
     font-style="normal"
     font-weight="normal"
     text-decoration="normal"
     x="1048"
     y="487"
     text-anchor="start"
     dominant-baseline="alphabetic"
     fill-opacity="1"
     id="text2526">1.8</text>
  <text
     fill="none"
     stroke="#ffffff"
     font-family="geogebra-sans-serif, sans-serif"
     font-size="12px"
     font-style="normal"
     font-weight="normal"
     text-decoration="normal"
     x="1048"
     y="487"
     text-anchor="start"
     dominant-baseline="alphabetic"
     stroke-opacity="1"
     stroke-linejoin="bevel"
     stroke-miterlimit="10"
     stroke-width="3"
     id="text2528">1.8</text>
  <text
     fill="#000000"
     stroke="none"
     font-family="geogebra-sans-serif, sans-serif"
     font-size="12px"
     font-style="normal"
     font-weight="normal"
     text-decoration="normal"
     x="1048"
     y="487"
     text-anchor="start"
     dominant-baseline="alphabetic"
     fill-opacity="1"
     id="text2530">1.8</text>
  <text
     fill="#000000"
     stroke="none"
     font-family="geogebra-sans-serif, sans-serif"
     font-size="12px"
     font-style="normal"
     font-weight="normal"
     text-decoration="normal"
     x="526"
     y="809"
     text-anchor="start"
     dominant-baseline="alphabetic"
     fill-opacity="1"
     id="text2532">–1.2</text>
  <text
     fill="none"
     stroke="#ffffff"
     font-family="geogebra-sans-serif, sans-serif"
     font-size="12px"
     font-style="normal"
     font-weight="normal"
     text-decoration="normal"
     x="526"
     y="809"
     text-anchor="start"
     dominant-baseline="alphabetic"
     stroke-opacity="1"
     stroke-linejoin="bevel"
     stroke-miterlimit="10"
     stroke-width="3"
     id="text2534">–1.2</text>
  <text
     fill="#000000"
     stroke="none"
     font-family="geogebra-sans-serif, sans-serif"
     font-size="12px"
     font-style="normal"
     font-weight="normal"
     text-decoration="normal"
     x="526"
     y="809"
     text-anchor="start"
     dominant-baseline="alphabetic"
     fill-opacity="1"
     id="text2536">–1.2</text>
  <text
     fill="#000000"
     stroke="none"
     font-family="geogebra-sans-serif, sans-serif"
     font-size="12px"
     font-style="normal"
     font-weight="normal"
     text-decoration="normal"
     x="536"
     y="753"
     text-anchor="start"
     dominant-baseline="alphabetic"
     fill-opacity="1"
     id="text2538">–1</text>
  <text
     fill="none"
     stroke="#ffffff"
     font-family="geogebra-sans-serif, sans-serif"
     font-size="12px"
     font-style="normal"
     font-weight="normal"
     text-decoration="normal"
     x="536"
     y="753"
     text-anchor="start"
     dominant-baseline="alphabetic"
     stroke-opacity="1"
     stroke-linejoin="bevel"
     stroke-miterlimit="10"
     stroke-width="3"
     id="text2540">–1</text>
  <text
     fill="#000000"
     stroke="none"
     font-family="geogebra-sans-serif, sans-serif"
     font-size="12px"
     font-style="normal"
     font-weight="normal"
     text-decoration="normal"
     x="536"
     y="753"
     text-anchor="start"
     dominant-baseline="alphabetic"
     fill-opacity="1"
     id="text2542">–1</text>
  <text
     fill="#000000"
     stroke="none"
     font-family="geogebra-sans-serif, sans-serif"
     font-size="12px"
     font-style="normal"
     font-weight="normal"
     text-decoration="normal"
     x="526"
     y="698"
     text-anchor="start"
     dominant-baseline="alphabetic"
     fill-opacity="1"
     id="text2544">–0.8</text>
  <text
     fill="none"
     stroke="#ffffff"
     font-family="geogebra-sans-serif, sans-serif"
     font-size="12px"
     font-style="normal"
     font-weight="normal"
     text-decoration="normal"
     x="526"
     y="698"
     text-anchor="start"
     dominant-baseline="alphabetic"
     stroke-opacity="1"
     stroke-linejoin="bevel"
     stroke-miterlimit="10"
     stroke-width="3"
     id="text2546">–0.8</text>
  <text
     fill="#000000"
     stroke="none"
     font-family="geogebra-sans-serif, sans-serif"
     font-size="12px"
     font-style="normal"
     font-weight="normal"
     text-decoration="normal"
     x="526"
     y="698"
     text-anchor="start"
     dominant-baseline="alphabetic"
     fill-opacity="1"
     id="text2548">–0.8</text>
  <text
     fill="#000000"
     stroke="none"
     font-family="geogebra-sans-serif, sans-serif"
     font-size="12px"
     font-style="normal"
     font-weight="normal"
     text-decoration="normal"
     x="526"
     y="642"
     text-anchor="start"
     dominant-baseline="alphabetic"
     fill-opacity="1"
     id="text2550">–0.6</text>
  <text
     fill="none"
     stroke="#ffffff"
     font-family="geogebra-sans-serif, sans-serif"
     font-size="12px"
     font-style="normal"
     font-weight="normal"
     text-decoration="normal"
     x="526"
     y="642"
     text-anchor="start"
     dominant-baseline="alphabetic"
     stroke-opacity="1"
     stroke-linejoin="bevel"
     stroke-miterlimit="10"
     stroke-width="3"
     id="text2552">–0.6</text>
  <text
     fill="#000000"
     stroke="none"
     font-family="geogebra-sans-serif, sans-serif"
     font-size="12px"
     font-style="normal"
     font-weight="normal"
     text-decoration="normal"
     x="526"
     y="642"
     text-anchor="start"
     dominant-baseline="alphabetic"
     fill-opacity="1"
     id="text2554">–0.6</text>
  <text
     fill="#000000"
     stroke="none"
     font-family="geogebra-sans-serif, sans-serif"
     font-size="12px"
     font-style="normal"
     font-weight="normal"
     text-decoration="normal"
     x="526"
     y="587"
     text-anchor="start"
     dominant-baseline="alphabetic"
     fill-opacity="1"
     id="text2556">–0.4</text>
  <text
     fill="none"
     stroke="#ffffff"
     font-family="geogebra-sans-serif, sans-serif"
     font-size="12px"
     font-style="normal"
     font-weight="normal"
     text-decoration="normal"
     x="526"
     y="587"
     text-anchor="start"
     dominant-baseline="alphabetic"
     stroke-opacity="1"
     stroke-linejoin="bevel"
     stroke-miterlimit="10"
     stroke-width="3"
     id="text2558">–0.4</text>
  <text
     fill="#000000"
     stroke="none"
     font-family="geogebra-sans-serif, sans-serif"
     font-size="12px"
     font-style="normal"
     font-weight="normal"
     text-decoration="normal"
     x="526"
     y="587"
     text-anchor="start"
     dominant-baseline="alphabetic"
     fill-opacity="1"
     id="text2560">–0.4</text>
  <text
     fill="#000000"
     stroke="none"
     font-family="geogebra-sans-serif, sans-serif"
     font-size="12px"
     font-style="normal"
     font-weight="normal"
     text-decoration="normal"
     x="526"
     y="531"
     text-anchor="start"
     dominant-baseline="alphabetic"
     fill-opacity="1"
     id="text2562">–0.2</text>
  <text
     fill="none"
     stroke="#ffffff"
     font-family="geogebra-sans-serif, sans-serif"
     font-size="12px"
     font-style="normal"
     font-weight="normal"
     text-decoration="normal"
     x="526"
     y="531"
     text-anchor="start"
     dominant-baseline="alphabetic"
     stroke-opacity="1"
     stroke-linejoin="bevel"
     stroke-miterlimit="10"
     stroke-width="3"
     id="text2564">–0.2</text>
  <text
     fill="#000000"
     stroke="none"
     font-family="geogebra-sans-serif, sans-serif"
     font-size="12px"
     font-style="normal"
     font-weight="normal"
     text-decoration="normal"
     x="526"
     y="531"
     text-anchor="start"
     dominant-baseline="alphabetic"
     fill-opacity="1"
     id="text2566">–0.2</text>
  <text
     fill="#000000"
     stroke="none"
     font-family="geogebra-sans-serif, sans-serif"
     font-size="12px"
     font-style="normal"
     font-weight="normal"
     text-decoration="normal"
     x="532"
     y="420"
     text-anchor="start"
     dominant-baseline="alphabetic"
     fill-opacity="1"
     id="text2568">0.2</text>
  <text
     fill="none"
     stroke="#ffffff"
     font-family="geogebra-sans-serif, sans-serif"
     font-size="12px"
     font-style="normal"
     font-weight="normal"
     text-decoration="normal"
     x="532"
     y="420"
     text-anchor="start"
     dominant-baseline="alphabetic"
     stroke-opacity="1"
     stroke-linejoin="bevel"
     stroke-miterlimit="10"
     stroke-width="3"
     id="text2570">0.2</text>
  <text
     fill="#000000"
     stroke="none"
     font-family="geogebra-sans-serif, sans-serif"
     font-size="12px"
     font-style="normal"
     font-weight="normal"
     text-decoration="normal"
     x="532"
     y="420"
     text-anchor="start"
     dominant-baseline="alphabetic"
     fill-opacity="1"
     id="text2572">0.2</text>
  <text
     fill="#000000"
     stroke="none"
     font-family="geogebra-sans-serif, sans-serif"
     font-size="12px"
     font-style="normal"
     font-weight="normal"
     text-decoration="normal"
     x="532"
     y="364"
     text-anchor="start"
     dominant-baseline="alphabetic"
     fill-opacity="1"
     id="text2574">0.4</text>
  <text
     fill="none"
     stroke="#ffffff"
     font-family="geogebra-sans-serif, sans-serif"
     font-size="12px"
     font-style="normal"
     font-weight="normal"
     text-decoration="normal"
     x="532"
     y="364"
     text-anchor="start"
     dominant-baseline="alphabetic"
     stroke-opacity="1"
     stroke-linejoin="bevel"
     stroke-miterlimit="10"
     stroke-width="3"
     id="text2576">0.4</text>
  <text
     fill="#000000"
     stroke="none"
     font-family="geogebra-sans-serif, sans-serif"
     font-size="12px"
     font-style="normal"
     font-weight="normal"
     text-decoration="normal"
     x="532"
     y="364"
     text-anchor="start"
     dominant-baseline="alphabetic"
     fill-opacity="1"
     id="text2578">0.4</text>
  <text
     fill="#000000"
     stroke="none"
     font-family="geogebra-sans-serif, sans-serif"
     font-size="12px"
     font-style="normal"
     font-weight="normal"
     text-decoration="normal"
     x="532"
     y="309"
     text-anchor="start"
     dominant-baseline="alphabetic"
     fill-opacity="1"
     id="text2580">0.6</text>
  <text
     fill="none"
     stroke="#ffffff"
     font-family="geogebra-sans-serif, sans-serif"
     font-size="12px"
     font-style="normal"
     font-weight="normal"
     text-decoration="normal"
     x="532"
     y="309"
     text-anchor="start"
     dominant-baseline="alphabetic"
     stroke-opacity="1"
     stroke-linejoin="bevel"
     stroke-miterlimit="10"
     stroke-width="3"
     id="text2582">0.6</text>
  <text
     fill="#000000"
     stroke="none"
     font-family="geogebra-sans-serif, sans-serif"
     font-size="12px"
     font-style="normal"
     font-weight="normal"
     text-decoration="normal"
     x="532"
     y="309"
     text-anchor="start"
     dominant-baseline="alphabetic"
     fill-opacity="1"
     id="text2584">0.6</text>
  <text
     fill="#000000"
     stroke="none"
     font-family="geogebra-sans-serif, sans-serif"
     font-size="12px"
     font-style="normal"
     font-weight="normal"
     text-decoration="normal"
     x="532"
     y="253"
     text-anchor="start"
     dominant-baseline="alphabetic"
     fill-opacity="1"
     id="text2586">0.8</text>
  <text
     fill="none"
     stroke="#ffffff"
     font-family="geogebra-sans-serif, sans-serif"
     font-size="12px"
     font-style="normal"
     font-weight="normal"
     text-decoration="normal"
     x="532"
     y="253"
     text-anchor="start"
     dominant-baseline="alphabetic"
     stroke-opacity="1"
     stroke-linejoin="bevel"
     stroke-miterlimit="10"
     stroke-width="3"
     id="text2588">0.8</text>
  <text
     fill="#000000"
     stroke="none"
     font-family="geogebra-sans-serif, sans-serif"
     font-size="12px"
     font-style="normal"
     font-weight="normal"
     text-decoration="normal"
     x="532"
     y="253"
     text-anchor="start"
     dominant-baseline="alphabetic"
     fill-opacity="1"
     id="text2590">0.8</text>
  <text
     fill="#000000"
     stroke="none"
     font-family="geogebra-sans-serif, sans-serif"
     font-size="12px"
     font-style="normal"
     font-weight="normal"
     text-decoration="normal"
     x="542"
     y="198"
     text-anchor="start"
     dominant-baseline="alphabetic"
     fill-opacity="1"
     id="text2592">1</text>
  <text
     fill="none"
     stroke="#ffffff"
     font-family="geogebra-sans-serif, sans-serif"
     font-size="12px"
     font-style="normal"
     font-weight="normal"
     text-decoration="normal"
     x="542"
     y="198"
     text-anchor="start"
     dominant-baseline="alphabetic"
     stroke-opacity="1"
     stroke-linejoin="bevel"
     stroke-miterlimit="10"
     stroke-width="3"
     id="text2594">1</text>
  <text
     fill="#000000"
     stroke="none"
     font-family="geogebra-sans-serif, sans-serif"
     font-size="12px"
     font-style="normal"
     font-weight="normal"
     text-decoration="normal"
     x="542"
     y="198"
     text-anchor="start"
     dominant-baseline="alphabetic"
     fill-opacity="1"
     id="text2596">1</text>
  <text
     fill="#000000"
     stroke="none"
     font-family="geogebra-sans-serif, sans-serif"
     font-size="12px"
     font-style="normal"
     font-weight="normal"
     text-decoration="normal"
     x="532"
     y="142"
     text-anchor="start"
     dominant-baseline="alphabetic"
     fill-opacity="1"
     id="text2598">1.2</text>
  <text
     fill="none"
     stroke="#ffffff"
     font-family="geogebra-sans-serif, sans-serif"
     font-size="12px"
     font-style="normal"
     font-weight="normal"
     text-decoration="normal"
     x="532"
     y="142"
     text-anchor="start"
     dominant-baseline="alphabetic"
     stroke-opacity="1"
     stroke-linejoin="bevel"
     stroke-miterlimit="10"
     stroke-width="3"
     id="text2600">1.2</text>
  <text
     fill="#000000"
     stroke="none"
     font-family="geogebra-sans-serif, sans-serif"
     font-size="12px"
     font-style="normal"
     font-weight="normal"
     text-decoration="normal"
     x="532"
     y="142"
     text-anchor="start"
     dominant-baseline="alphabetic"
     fill-opacity="1"
     id="text2602">1.2</text>
  <text
     fill="#000000"
     stroke="none"
     font-family="geogebra-sans-serif, sans-serif"
     font-size="12px"
     font-style="normal"
     font-weight="normal"
     text-decoration="normal"
     x="542"
     y="487"
     text-anchor="start"
     dominant-baseline="alphabetic"
     fill-opacity="1"
     id="text2604">0</text>
  <text
     fill="none"
     stroke="#ffffff"
     font-family="geogebra-sans-serif, sans-serif"
     font-size="12px"
     font-style="normal"
     font-weight="normal"
     text-decoration="normal"
     x="542"
     y="487"
     text-anchor="start"
     dominant-baseline="alphabetic"
     stroke-opacity="1"
     stroke-linejoin="bevel"
     stroke-miterlimit="10"
     stroke-width="3"
     id="text2606">0</text>
  <text
     fill="#000000"
     stroke="none"
     font-family="geogebra-sans-serif, sans-serif"
     font-size="12px"
     font-style="normal"
     font-weight="normal"
     text-decoration="normal"
     x="542"
     y="487"
     text-anchor="start"
     dominant-baseline="alphabetic"
     fill-opacity="1"
     id="text2608">0</text>
  <path
     fill="none"
     stroke="#4b0082"
     paint-order="fill stroke markers"
     d="m 184.77539,859.24116 2.17383,-5.19359 2.17383,-5.07864 2.17383,-4.96622 4.34765,-9.60522 4.34766,-9.18529 4.34765,-8.78453 4.34766,-8.40243 4.34766,-8.03851 4.34765,-7.69222 4.34766,-7.36311 4.34766,-7.05067 4.34765,-6.75442 4.34766,-6.47389 4.34765,-6.2086 4.34766,-5.9581 4.34766,-5.72192 4.34765,-5.49962 4.34766,-5.29075 4.34765,-5.09488 4.34766,-4.91155 4.34766,-4.74037 4.34765,-4.58091 4.34766,-4.43273 4.34766,-4.29547 4.34765,-4.16869 4.34766,-4.05202 4.34765,-3.94504 4.34766,-3.84742 4.34766,-3.75873 4.34765,-3.67863 4.34766,-3.60676 4.34766,-3.54275 4.34765,-3.48625 4.34766,-3.43692 4.34765,-3.39443 4.34766,-3.35842 4.34766,-3.32861 4.34765,-3.30464 4.34766,-3.28621 4.34766,-3.27302 4.34765,-3.26476 4.34766,-3.26115 4.34765,-3.26188 4.34766,-3.26668 4.34766,-3.27528 4.34765,-3.28741 4.34766,-3.30279 4.34766,-3.32119 4.34765,-3.34234 4.34766,-3.36599 4.34765,-3.39193 4.34766,-3.4199 4.34766,-3.4497 4.34765,-3.48108 4.34766,-3.51385 4.34766,-3.5478 4.34765,-3.58273 4.34766,-3.61843 4.34765,-3.65474 4.34766,-3.69146 4.34766,-3.72842 4.34765,-3.76544 4.34766,-3.80237 4.34766,-3.83905 4.34765,-3.87534 4.34766,-3.91107 4.34765,-3.94613 4.34766,-3.98037 4.34766,-4.01367 4.34765,-4.04592 4.34766,-4.07699 4.34766,-4.10679 4.34765,-4.13521 4.34766,-4.16216 4.34765,-4.18755 4.34766,-4.2113 4.34766,-4.23333 4.34765,-4.25359 4.34766,-4.27199 4.34766,-4.2885 4.34765,-4.30304 4.34766,-4.31559 4.34765,-4.32611 4.34766,-4.33456 4.34766,-4.34093 4.34765,-4.34517 L 556.5,471 l 4.34766,-4.3473 4.34765,-4.34517 4.34766,-4.34093 4.34765,-4.33456 4.34766,-4.32611 4.34766,-4.31559 4.34765,-4.30304 4.34766,-4.2885 4.34766,-4.27199 4.34765,-4.25359 4.34766,-4.23333 4.34765,-4.2113 4.34766,-4.18755 4.34766,-4.16216 4.34765,-4.13521 4.34766,-4.10679 4.34766,-4.07699 4.34765,-4.04592 4.34766,-4.01367 4.34765,-3.98037 4.34766,-3.94613 4.34766,-3.91107 4.34765,-3.87534 4.34766,-3.83905 4.34766,-3.80237 4.34765,-3.76544 4.34766,-3.72842 4.34765,-3.69146 4.34766,-3.65474 4.34766,-3.61843 4.34765,-3.58273 4.34766,-3.5478 4.34766,-3.51385 4.34765,-3.48108 4.34766,-3.4497 4.34765,-3.4199 4.34766,-3.39193 4.34766,-3.36599 4.34765,-3.34234 4.34766,-3.32119 4.34766,-3.30279 4.34765,-3.28741 4.34766,-3.27528 4.34765,-3.26668 4.34766,-3.26188 4.34766,-3.26115 4.34765,-3.26476 4.34766,-3.27302 4.34766,-3.28621 4.34765,-3.30464 4.34766,-3.32861 4.34765,-3.35842 4.34766,-3.39443 4.34766,-3.43692 4.34765,-3.48625 4.34766,-3.54275 4.34766,-3.60676 4.34765,-3.67863 4.34766,-3.75873 4.34765,-3.84742 4.34766,-3.94504 4.34766,-4.05202 4.34765,-4.16869 4.34766,-4.29547 4.34766,-4.43273 4.34765,-4.58091 4.34766,-4.74037 4.34765,-4.91155 4.34766,-5.09488 4.34766,-5.29075 4.34765,-5.49962 4.34766,-5.72192 4.34766,-5.9581 4.34765,-6.2086 4.34766,-6.47389 4.34765,-6.75442 4.34766,-7.05067 4.34766,-7.36311 4.34765,-7.69222 4.34766,-8.03851 4.34766,-8.40243 4.34765,-8.78453 4.34766,-9.18529 4.34765,-9.60522 2.17383,-4.96622 2.17383,-5.07864"
     stroke-opacity="0.698039"
     stroke-linecap="round"
     stroke-linejoin="round"
     stroke-miterlimit="10"
     stroke-width="2.5"
     id="path2610"
     style="stroke:#ff0082;stroke-width:4;stroke-miterlimit:10;stroke-dasharray:none;stroke-opacity:0.698039" />
  <path
     fill="none"
     stroke="#ff5500"
     paint-order="fill stroke markers"
     d="m 86.953125,855.16964 4.347656,-7.48888 4.347656,-7.17916 4.347657,-6.88168 4.347656,-6.59618 4.34766,-6.32239 4.34765,-6.06007 4.34766,-5.80894 4.34766,-5.56876 4.34765,-5.33928 4.34766,-5.12025 4.34765,-4.91142 4.34766,-4.71256 4.34766,-4.52341 4.34765,-4.34374 4.34766,-4.17332 4.34765,-4.01191 4.34766,-3.85929 4.34766,-3.71521 4.34765,-3.57945 4.34766,-3.45181 4.34766,-3.33205 4.34765,-3.21994 4.34766,-3.11528 4.34766,-3.01786 4.34765,-2.92746 4.34766,-2.84387 4.34765,-2.7669 4.34766,-2.69631 4.34766,-2.63195 4.34765,-2.57357 4.34766,-2.52101 4.34766,-2.47407 4.34765,-2.43254 4.34766,-2.39625 4.34765,-2.36501 4.34766,-2.33863 4.34766,-2.31694 4.34765,-2.29974 4.34766,-2.28688 4.34765,-2.27817 4.34766,-2.27344 4.34766,-2.27252 4.34765,-2.27526 4.34766,-2.28147 4.34766,-2.29101 4.34765,-2.30372 4.34766,-2.31941 4.34765,-2.33798 4.34766,-2.35924 4.34766,-2.38305 4.34765,-2.40926 4.34766,-2.43774 4.34766,-2.46835 4.34765,-2.50092 4.34766,-2.53534 4.34765,-2.57147 4.34766,-2.60919 4.34766,-2.64834 4.34765,-2.68883 4.34766,-2.73051 4.34766,-2.77327 4.34765,-2.81698 4.34766,-2.86154 4.34765,-2.90681 4.34766,-2.95272 4.34766,-2.99912 4.34765,-3.04591 4.34766,-3.09302 4.34766,-3.1403 4.34765,-3.18768 4.34766,-3.23505 4.34765,-3.28234 4.34766,-3.32942 4.34766,-3.37624 4.34765,-3.42267 4.34766,-3.46867 4.34766,-3.51413 4.34765,-3.55897 4.34766,-3.60313 4.34765,-3.64653 4.34766,-3.68909 4.34766,-3.73074 4.34765,-3.77141 4.34766,-3.81107 4.34766,-3.84961 4.34765,-3.88699 4.34766,-3.92317 4.34765,-3.95806 4.34766,-3.99165 4.34766,-4.02385 4.34765,-4.05463 4.34766,-4.08396 4.34766,-4.11178 4.34765,-4.13804 4.34766,-4.16273 4.34765,-4.1858 4.34766,-4.20722 4.34766,-4.22696 4.34765,-4.24498 4.34766,-4.26129 4.34766,-4.27583 4.34765,-4.2886 4.34766,-4.29957 4.34765,-4.30875 4.34766,-4.31609 4.34766,-4.32162 4.34765,-4.32531 L 556.5,471 l 4.34766,-4.32715 4.34765,-4.32531 4.34766,-4.32162 4.34765,-4.31609 4.34766,-4.30875 4.34766,-4.29957 4.34765,-4.2886 4.34766,-4.27583 4.34766,-4.26129 4.34765,-4.24498 4.34766,-4.22696 4.34765,-4.20722 4.34766,-4.1858 4.34766,-4.16273 4.34765,-4.13804 4.34766,-4.11178 4.34766,-4.08396 4.34765,-4.05463 4.34766,-4.02385 4.34765,-3.99165 4.34766,-3.95806 4.34766,-3.92317 4.34765,-3.88699 4.34766,-3.84961 4.34766,-3.81107 4.34765,-3.77141 4.34766,-3.73074 4.34765,-3.68909 4.34766,-3.64653 4.34766,-3.60313 4.34765,-3.55897 4.34766,-3.51413 4.34766,-3.46867 4.34765,-3.42267 4.34766,-3.37624 4.34765,-3.32942 4.34766,-3.28234 4.34766,-3.23505 4.34765,-3.18768 4.34766,-3.1403 4.34766,-3.09302 4.34765,-3.04591 4.34766,-2.99912 4.34765,-2.95272 4.34766,-2.90681 4.34766,-2.86154 4.34765,-2.81698 4.34766,-2.77327 4.34766,-2.73051 4.34765,-2.68883 4.34766,-2.64834 4.34765,-2.60919 4.34766,-2.57147 4.34766,-2.53534 4.34765,-2.50092 4.34766,-2.46835 4.34766,-2.43774 4.34765,-2.40926 4.34766,-2.38305 4.34765,-2.35924 4.34766,-2.33798 4.34766,-2.31941 4.34765,-2.30372 4.34766,-2.29101 4.34766,-2.28147 4.34765,-2.27526 4.34766,-2.27252 4.34765,-2.27344 4.34766,-2.27817 4.34766,-2.28688 4.34765,-2.29974 4.34766,-2.31694 4.34766,-2.33863 4.34765,-2.36501 4.34766,-2.39625 4.34765,-2.43254 4.34766,-2.47407 4.34766,-2.52101 4.34765,-2.57357 4.34766,-2.63195 4.34766,-2.69631 4.34765,-2.7669 4.34766,-2.84387 4.34765,-2.92746 4.34766,-3.01786 4.34766,-3.11528 4.34765,-3.21994 4.34766,-3.33205 4.34766,-3.4518 4.34765,-3.57946 4.34766,-3.71521 4.34765,-3.85928 4.34766,-4.01192 4.34766,-4.17332 4.34765,-4.34374 4.34766,-4.52341 4.34766,-4.71256 4.34765,-4.91142 4.34766,-5.12025 4.34765,-5.33928 4.34766,-5.56876 4.34766,-5.80894 4.34766,-6.06007 4.3476,-6.32239 4.3477,-6.59618 4.3477,-6.88168 4.3476,-7.17916 4.3477,-7.48889"
     stroke-opacity="0.698039"
     stroke-linecap="round"
     stroke-linejoin="round"
     stroke-miterlimit="10"
     stroke-width="2.5"
     id="path2690"
     style="stroke:#00a820;stroke-width:4;stroke-miterlimit:10;stroke-dasharray:none;stroke-opacity:0.84901947" />
  <text
     fill="#ff5500"
     stroke="none"
     font-family="geogebra-sans-serif, sans-serif"
     font-size="16px"
     font-style="normal"
     font-weight="normal"
     text-decoration="normal"
     x="101"
     y="845"
     text-anchor="start"
     dominant-baseline="alphabetic"
     fill-opacity="1"
     id="text2692">g</text>
  <text
     fill="none"
     stroke="#ffffff"
     font-family="geogebra-sans-serif, sans-serif"
     font-size="16px"
     font-style="normal"
     font-weight="normal"
     text-decoration="normal"
     x="101"
     y="845"
     text-anchor="start"
     dominant-baseline="alphabetic"
     stroke-opacity="1"
     stroke-linejoin="bevel"
     stroke-miterlimit="10"
     stroke-width="3"
     id="text2694">g</text>
  <path
     fill="none"
     stroke="#0000ff"
     paint-order="fill stroke markers"
     d="m 0,778.73399 1,-0.19975 v 0 l 1,-0.20032 v 0 l 1,-0.20091 v 0 l 1,-0.20149 v 0 l 1,-0.20207 v 0 l 1,-0.20265 v 0 l 1,-0.20324 v 0 l 1,-0.20384 v 0 l 1,-0.20442 v 0 l 1,-0.20502 v 0 l 1,-0.20562 v 0 l 1,-0.20621 v 0 l 1,-0.20682 v 0 l 1,-0.20742 v 0 l 1,-0.20803 v 0 l 1,-0.20864 v 0 l 1,-0.20925 v 0 l 1,-0.20986 v 0 l 1,-0.21048 v 0 l 1,-0.2111 v 0 l 1,-0.21172 v 0 l 1,-0.21235 v 0 l 1,-0.21297 v 0 l 1,-0.2136 v 0 l 1,-0.21423 v 0 l 1,-0.21487 v 0 l 1,-0.2155 v 0 l 1,-0.21614 v 0 l 1,-0.21679 v 0 l 1,-0.21742 v 0 l 1,-0.21808 v 0 l 1,-0.21873 v 0 l 1,-0.21937 v 0 l 1,-0.22003 v 0 l 1,-0.22069 v 0 l 1,-0.22135 v 0 l 1,-0.22202 v 0 l 1,-0.22268 v 0 l 1,-0.22334 v 0 l 1,-0.22402 v 0 l 1,-0.22469 v 0 l 1,-0.22537 v 0 l 1,-0.22605 v 0 l 1,-0.22673 v 0 l 1,-0.22742 v 0 l 1,-0.2281 v 0 l 1,-0.22879 v 0 l 1,-0.22949 v 0 l 1,-0.23018 v 0 l 1,-0.23088 v 0 l 1,-0.23159 v 0 l 1,-0.23229 v 0 l 1,-0.23299 v 0 l 1,-0.23371 v 0 l 1,-0.23442 v 0 l 1,-0.23514 v 0 l 1,-0.23586 v 0 l 1,-0.23657 v 0 l 1,-0.23731 v 0 l 1,-0.23803 v 0 l 1,-0.23877 v 0 l 1,-0.23949 v 0 l 1,-0.24024 v 0 l 1,-0.24098 v 0 l 1,-0.24172 v 0 l 1,-0.24246 v 0 l 1,-0.24322 v 0 l 1,-0.24397 v 0 l 1,-0.24472 v 0 l 1,-0.24549 v 0 l 1,-0.24625 v 0 l 1,-0.24701 v 0 l 1,-0.24778 v 0 l 1,-0.24855 v 0 l 1,-0.24933 v 0 l 1,-0.2501 v 0 l 1,-0.25089 v 0 l 1,-0.25167 v 0 l 1,-0.25246 v 0 l 1,-0.25325 v 0 l 1,-0.25405 v 0 l 1,-0.25484 v 0 l 1,-0.25565 v 0 l 1,-0.25644 v 0 l 1,-0.25726 v 0 l 1,-0.25807 v 0 l 1,-0.25888 v 0 l 1,-0.25971 v 0 l 1,-0.26052 v 0 l 1,-0.26135 v 0 l 1,-0.26217 v 0 l 1,-0.26301 v 0 l 1,-0.26385 v 0 l 1,-0.26468 v 0 l 1,-0.26552 v 0 l 1,-0.26638 v 0 l 1,-0.26722 v 0 l 1,-0.26807 v 0 l 1,-0.26893 v 0 l 1,-0.26979 v 0 l 1,-0.27066 v 0 l 1,-0.27152 v 0 l 1,-0.27239 v 0 l 1,-0.27327 v 0 l 1,-0.27415 v 0 l 1,-0.27503 v 0 l 1,-0.27592 v 0 l 1,-0.2768 v 0 l 1,-0.2777 v 0 l 1,-0.2786 v 0 l 1,-0.2795 v 0 l 1,-0.2804 v 0 l 1,-0.28131 v 0 l 1,-0.28223 v 0 l 1,-0.28314 v 0 l 1,-0.28406 v 0 l 1,-0.28498 v 0 l 1,-0.28592 v 0 l 1,-0.28684 v 0 l 1,-0.28779 v 0 l 1,-0.28872 v 0 l 1,-0.28966 v 0 l 1,-0.29062 v 0 l 1,-0.29156 v 0 l 1,-0.29253 v 0 l 1,-0.29348 v 0 l 1,-0.29444 v 0 l 1,-0.29542 v 0 l 1,-0.29639 v 0 l 1,-0.29736 v 0 l 1,-0.29834 v 0 l 1,-0.29933 v 0 l 1,-0.30032 v 0 l 1,-0.30131 v 0 l 1,-0.30231 v 0 l 1,-0.30331 v 0 l 1,-0.30432 v 0 l 1,-0.30533 v 0 l 1,-0.30634 v 0 l 1,-0.30736 v 0 l 1,-0.30838 v 0 l 1,-0.30942 v 0 l 1,-0.31044 v 0 l 1,-0.31148 v 0 l 1,-0.31252 v 0 l 1,-0.31357 v 0 l 1,-0.31461 v 0 l 1,-0.31567 v 0 l 1,-0.31673 v 0 l 1,-0.31779 v 0 l 1,-0.31886 v 0 l 1,-0.31993 v 0 l 1,-0.32101 v 0 l 1,-0.32209 v 0 l 1,-0.32317 v 0 l 1,-0.32427 v 0 l 1,-0.32536 v 0 l 1,-0.32646 v 0 l 1,-0.32756 v 0 l 1,-0.32868 v 0 l 1,-0.32978 v 0 l 1,-0.33091 v 0 l 1,-0.33203 v 0 l 1,-0.33316 v 0 l 1,-0.33429 v 0 l 1,-0.33543 v 0 l 1,-0.33657 v 0 l 1,-0.33772 v 0 l 1,-0.33887 v 0 l 1,-0.34003 v 0 l 1,-0.34119 v 0 l 1,-0.34236 v 0 l 1,-0.34353 v 0 l 1,-0.34471 v 0 l 1,-0.34589 v 0 l 1,-0.34708 v 0 l 1,-0.34827 v 0 l 1,-0.34946 v 0 l 1,-0.35067 v 0 l 1,-0.35188 v 0 l 1,-0.35308 v 0 l 1,-0.35431 v 0 l 1,-0.35553 v 0 l 1,-0.35675 v 0 l 1,-0.35799 v 0 l 1,-0.35923 v 0 l 1,-0.36047 v 0 l 1,-0.36172 v 0 l 1,-0.36297 v 0 l 1,-0.36424 v 0 l 1,-0.36549 v 0 l 1,-0.36677 v 0 l 1,-0.36804 v 0 l 1,-0.36933 v 0 l 1,-0.37061 v 0 l 1,-0.3719 v 0 l 1,-0.3732 v 0 l 1,-0.3745 v 0 l 1,-0.3758 v 0 l 1,-0.37712 v 0 l 1,-0.37844 v 0 l 1,-0.37977 v 0 l 1,-0.38109 v 0 l 1,-0.38243 v 0 l 1,-0.38377 v 0 l 1,-0.38512 v 0 l 1,-0.38647 v 0 l 1,-0.38782 v 0 l 1,-0.38919 v 0 l 1,-0.39056 v 0 l 1,-0.39193 v 0 l 1,-0.39332 v 0 l 1,-0.3947 v 0 l 1,-0.39609 v 0 l 1,-0.39749 v 0 l 1,-0.39889 v 0 l 1,-0.4003 v 0 l 1,-0.40172 v 0 l 1,-0.40314 v 0 l 1,-0.40456 v 0 l 1,-0.406 v 0 l 1,-0.40744 v 0 l 1,-0.40888 v 0 l 1,-0.41033 v 0 l 1,-0.41178 v 0 l 1,-0.41325 v 0 l 1,-0.41472 v 0 l 1,-0.41619 v 0 l 1,-0.41767 v 0 l 1,-0.41916 v 0 l 1,-0.42065 v 0 l 1,-0.42214 v 0 l 1,-0.42365 v 0 l 1,-0.42517 v 0 l 1,-0.42667 v 0 l 1,-0.4282 v 0 l 1,-0.42973 v 0 l 1,-0.43127 v 0 l 1,-0.4328 v 0 l 1,-0.43435 v 0 l 1,-0.43591 v 0 l 1,-0.43746 v 0 l 1,-0.43903 v 0 l 1,-0.4406 v 0 l 1,-0.44218 v 0 l 1,-0.44377 v 0 l 1,-0.44535 v 0 l 1,-0.44695 v 0 l 1,-0.44856 v 0 l 1,-0.45016 v 0 l 1,-0.45178 v 0 l 1,-0.4534 v 0 l 1,-0.45503 v 0 l 1,-0.45666 v 0 l 1,-0.45831 v 0 l 1,-0.45995 v 0 l 1,-0.46161 v 0 l 1,-0.46326 v 0 l 1,-0.46493 v 0 l 1,-0.46661 v 0 l 1,-0.46828 v 0 l 1,-0.46997 v 0 l 1,-0.47166 v 0 l 1,-0.47336 v 0 l 1,-0.47507 v 0 l 1,-0.47678 v 0 l 1,-0.47849 v 0 l 1,-0.48022 v 0 l 1,-0.48195 v 0 l 1,-0.48368 v 0 l 1,-0.48543 v 0 l 1,-0.48718 v 0 l 1,-0.48894 v 0 l 1,-0.4907 v 0 l 1,-0.49247 v 0 l 1,-0.49424 v 0 l 1,-0.49603 v 0 l 1,-0.49781 v 0 l 1,-0.49961 v 0 l 1,-0.50142 v 0 l 1,-0.50322 v 0 l 1,-0.50503 v 0 l 1,-0.50686 v 0 l 1,-0.50868 v 0 l 1,-0.51052 v 0 l 1,-0.51236 v 0 l 1,-0.51421 v 0 l 1,-0.51606 v 0 l 1,-0.51792 v 0 l 1,-0.51978 v 0 l 1,-0.52166 v 0 l 1,-0.52354 v 0 l 1,-0.52543 v 0 l 1,-0.52731 v 0 l 1,-0.52922 v 0 l 1,-0.53112 v 0 l 1,-0.53303 v 0 l 1,-0.53495 v 0 l 1,-0.53688 v 0 l 1,-0.5388 v 0 l 1,-0.54074 v 0 l 1,-0.54269 v 0 l 1,-0.54464 v 0 l 1,-0.54659 v 0 l 1,-0.54855 v 0 l 1,-0.55052 v 0 l 1,-0.5525 v 0 l 1,-0.55448 v 0 l 1,-0.55646 v 0 l 1,-0.55846 v 0 l 1,-0.56046 v 0 l 1,-0.56246 v 0 l 1,-0.56448 v 0 l 1,-0.56649 v 0 l 1,-0.56852 v 0 l 1,-0.57055 v 0 l 1,-0.57258 v 0 l 1,-0.57463 v 0 l 1,-0.57668 v 0 l 1,-0.57873 v 0 l 1,-0.58079 v 0 l 1,-0.58286 v 0 l 1,-0.58493 v 0 l 1,-0.587 v 0 l 1,-0.5891 v 0 l 1,-0.59118 v 0 l 1,-0.59327 v 0 l 1,-0.59538 v 0 l 1,-0.59749 v 0 l 1,-0.59959 v 0 l 1,-0.60172 v 0 l 1,-0.60384 v 0 l 1,-0.60596 v 0 l 1,-0.6081 v 0 l 1,-0.61025 v 0 l 1,-0.61238 v 0 l 1,-0.61454 v 0 l 1,-0.6167 v 0 l 1,-0.61885 v 0 l 1,-0.62103 v 0 l 1,-0.62319 v 0 l 1,-0.62537 v 0 l 1,-0.62755 v 0 l 1,-0.62974 v 0 l 1,-0.63194 v 0 l 1,-0.63412 v 0 l 1,-0.63633 v 0 l 1,-0.63854 v 0 l 1,-0.64075 v 0 l 1,-0.64296 v 0 l 1,-0.64518 v 0 l 1,-0.64741 v 0 l 1,-0.64964 v 0 l 1,-0.65187 v 0 l 1,-0.65411 v 0 l 1,-0.65635 v 0 l 1,-0.6586 v 0 l 1,-0.66084 v 0 l 1,-0.66311 v 0 l 1,-0.66536 v 0 l 1,-0.66762 v 0 l 1,-0.66989 v 0 l 1,-0.67216 v 0 l 1,-0.67443 v 0 l 1,-0.67671 v 0 l 1,-0.67899 v 0 l 1,-0.68128 v 0 l 1,-0.68356 v 0 l 1,-0.68585 v 0 l 1,-0.68815 v 0 l 1,-0.69044 v 0 l 1,-0.69275 v 0 l 1,-0.69504 v 0 l 1,-0.69735 v 0 l 1,-0.69966 v 0 l 1,-0.70197 v 0 l 1,-0.70428 v 0 l 1,-0.7066 v 0 l 1,-0.70891 v 0 l 1,-0.71123 v 0 l 1,-0.71356 v 0 l 1,-0.71588 v 0 l 1,-0.7182 v 0 l 1,-0.72054 v 0 l 1,-0.72286 v 0 l 1,-0.72519 v 0 l 1,-0.72752 v 0 l 1,-0.72985 v 0 l 1,-0.73219 v 0 l 1,-0.73453 v 0 l 1,-0.73686 v 0 l 1,-0.73919 v 0 l 1,-0.74154 v 0 l 1,-0.74387 v 0 l 1,-0.7462 v 0 l 1,-0.74855 v 0 l 1,-0.75089 v 0 l 1,-0.75322 v 0 l 1,-0.75556 v 0 l 1,-0.7579 v 0 l 1,-0.76023 v 0 l 1,-0.76258 v 0 l 1,-0.7649 v 0 l 1,-0.76725 v 0 l 1,-0.76957 v 0 l 1,-0.77191 v 0 l 1,-0.77424 v 0 l 1,-0.77657 v 0 l 1,-0.7789 v 0 l 1,-0.78123 v 0 l 1,-0.78355 v 0 l 1,-0.78587 v 0 l 1,-0.78819 v 0 l 1,-0.79051 v 0 l 1,-0.79282 v 0 l 1,-0.79514 v 0 l 1,-0.79744 v 0 l 1,-0.79975 v 0 l 1,-0.80205 v 0 l 1,-0.80436 v 0 l 1,-0.80664 v 0 l 1,-0.80894 v 0 l 1,-0.81123 v 0 l 1,-0.81351 v 0 l 1,-0.81579 v 0 l 1,-0.81807 v 0 l 1,-0.82033 v 0 l 1,-0.8226 v 0 l 1,-0.82486 v 0 l 1,-0.82711 v 0 l 1,-0.82936 v 0 l 1,-0.83161 v 0 l 1,-0.83385 v 0 l 1,-0.83607 v 0 l 1,-0.8383 v 0 l 1,-0.84052 v 0 l 1,-0.84273 v 0 l 1,-0.84494 v 0 l 1,-0.84714 v 0 l 1,-0.84932 v 0 l 1,-0.85152 v 0 l 1,-0.85368 v 0 l 1,-0.85586 v 0 l 1,-0.85801 v 0 l 1,-0.86017 v 0 l 1,-0.86231 v 0 l 1,-0.86445 v 0 l 1,-0.86657 v 0 l 1,-0.86869 v 0 l 1,-0.8708 v 0 l 1,-0.87289 v 0 l 1,-0.87499 v 0 l 1,-0.87706 v 0 l 1,-0.87913 v 0 l 1,-0.88119 v 0 l 1,-0.88323 v 0 l 1,-0.88528 v 0 l 1,-0.88729 v 0 l 1,-0.88932 v 0 l 1,-0.89131 v 0 l 1,-0.89331 v 0 l 1,-0.89529 v 0 l 1,-0.89725 v 0 l 1,-0.89921 v 0 l 1,-0.90116 v 0 l 1,-0.90308 v 0 l 1,-0.905 v 0 l 1,-0.9069 v 0 l 1,-0.9088 v 0 l 1,-0.91067 v 0 l 1,-0.91253 v 0 l 1,-0.91439 v 0 l 1,-0.91622 v 0 l 1,-0.91803 v 0 l 1,-0.91985 v 0 l 1,-0.92163 v 0 l 1,-0.92342 v 0 l 1,-0.92517 v 0 l 1,-0.92691 v 0 l 1,-0.92865 v 0 l 1,-0.93036 v 0 l 1,-0.93205 v 0 l 1,-0.93374 v 0 l 1,-0.9354 v 0 l 1,-0.93704 v 0 l 1,-0.93868 v 0 l 1,-0.94029 v 0 l 1,-0.94189 v 0 l 1,-0.94346 v 0 l 1,-0.94502 v 0 l 1,-0.94657 v 0 l 1,-0.94808 v 0 l 1,-0.9496 v 0 l 1,-0.95108 v 0 l 1,-0.95254 v 0 l 1,-0.954 v 0 l 1,-0.95542 v 0 l 1,-0.95684 v 0 l 1,-0.95822 v 0 l 1,-0.9596 v 0 l 1,-0.96094 v 0 l 1,-0.96228 v 0 l 1,-0.96358 v 0 l 1,-0.96488 v 0 l 1,-0.96614 v 0 l 1,-0.96739 v 0 l 1,-0.96862 v 0 l 1,-0.96982 v 0 l 1,-0.97101 v 0 l 1,-0.97217 v 0 l 1,-0.9733 v 0 l 1,-0.97443 v 0 l 1,-0.97553 v 0 l 1,-0.97659 v 0 l 1,-0.97765 v 0 l 1,-0.97868 v 0 l 1,-0.97969 v 0 l 1,-0.98066 v 0 l 1,-0.98163 v 0 l 1,-0.98257 v 0 l 1,-0.98348 v 0 l 1,-0.98437 v 0 l 1,-0.98524 v 0 l 1,-0.98609 v 0 l 1,-0.9869 v 0 l 1,-0.9877 v 0 l 1,-0.98847 v 0 l 1,-0.98921 v 0 l 1,-0.98994 v 0 l 1,-0.99064 v 0 l 1,-0.99132 v 0 l 1,-0.99196 v 0 l 1,-0.99259 v 0 l 1,-0.99319 v 0 l 1,-0.99377 v 0 l 1,-0.99431 v 0 l 1,-0.99485 v 0 l 1,-0.99534 v 0 l 1,-0.99582 v 0 l 1,-0.99626 v 0 l 1,-0.9967 v 0 l 1,-0.99709 v 0 l 1,-0.99746 v 0 l 1,-0.99782 v 0 l 1,-0.99813 v 0 l 1,-0.99844 v 0 l 1,-0.9987 v 0 l 1,-0.99895 v 0 l 1,-0.99917 v 0 l 1,-0.99937 v 0 l 1,-0.99953 v 0 l 1,-0.99967 v 0 l 1,-0.9998 v 0 l 1,-0.99988 v 0 l 1,-0.99994 v 0 L 556,471.5 v 0 l 1,-1 v 0 l 1,-0.99999 v 0 l 1,-0.99994 v 0 l 1,-0.99988 v 0 l 1,-0.9998 v 0 l 1,-0.99967 v 0 l 1,-0.99953 v 0 l 1,-0.99937 v 0 l 1,-0.99917 v 0 l 1,-0.99895 v 0 l 1,-0.9987 v 0 l 1,-0.99844 v 0 l 1,-0.99813 v 0 l 1,-0.99782 v 0 l 1,-0.99746 v 0 l 1,-0.99709 v 0 l 1,-0.9967 v 0 l 1,-0.99626 v 0 l 1,-0.99582 v 0 l 1,-0.99534 v 0 l 1,-0.99485 v 0 l 1,-0.99431 v 0 l 1,-0.99377 v 0 l 1,-0.99319 v 0 l 1,-0.99259 v 0 l 1,-0.99196 v 0 l 1,-0.99132 v 0 l 1,-0.99064 v 0 l 1,-0.98994 v 0 l 1,-0.98921 v 0 l 1,-0.98847 v 0 l 1,-0.9877 v 0 l 1,-0.9869 v 0 l 1,-0.98609 v 0 l 1,-0.98524 v 0 l 1,-0.98437 v 0 l 1,-0.98348 v 0 l 1,-0.98257 v 0 l 1,-0.98163 v 0 l 1,-0.98066 v 0 l 1,-0.97969 v 0 l 1,-0.97868 v 0 l 1,-0.97765 v 0 l 1,-0.97659 v 0 l 1,-0.97553 v 0 l 1,-0.97443 v 0 l 1,-0.9733 v 0 l 1,-0.97217 v 0 l 1,-0.97101 v 0 l 1,-0.96982 v 0 l 1,-0.96862 v 0 l 1,-0.96739 v 0 l 1,-0.96614 v 0 l 1,-0.96488 v 0 l 1,-0.96358 v 0 l 1,-0.96228 v 0 l 1,-0.96094 v 0 l 1,-0.9596 v 0 l 1,-0.95822 v 0 l 1,-0.95684 v 0 l 1,-0.95542 v 0 l 1,-0.954 v 0 l 1,-0.95254 v 0 l 1,-0.95108 v 0 l 1,-0.9496 v 0 l 1,-0.94808 v 0 l 1,-0.94657 v 0 l 1,-0.94502 v 0 l 1,-0.94346 v 0 l 1,-0.94189 v 0 l 1,-0.94029 v 0 l 1,-0.93868 v 0 l 1,-0.93704 v 0 l 1,-0.9354 v 0 l 1,-0.93374 v 0 l 1,-0.93205 v 0 l 1,-0.93036 v 0 l 1,-0.92865 v 0 l 1,-0.92691 v 0 l 1,-0.92517 v 0 l 1,-0.92342 v 0 l 1,-0.92163 v 0 l 1,-0.91985 v 0 l 1,-0.91803 v 0 l 1,-0.91622 v 0 l 1,-0.91439 v 0 l 1,-0.91253 v 0 l 1,-0.91067 v 0 l 1,-0.9088 v 0 l 1,-0.9069 v 0 l 1,-0.905 v 0 l 1,-0.90308 v 0 l 1,-0.90116 v 0 l 1,-0.89921 v 0 l 1,-0.89725 v 0 l 1,-0.89529 v 0 l 1,-0.89331 v 0 l 1,-0.89131 v 0 l 1,-0.88932 v 0 l 1,-0.88729 v 0 l 1,-0.88528 v 0 l 1,-0.88323 v 0 l 1,-0.88119 v 0 l 1,-0.87913 v 0 l 1,-0.87706 v 0 l 1,-0.87499 v 0 l 1,-0.87289 v 0 l 1,-0.8708 v 0 l 1,-0.86869 v 0 l 1,-0.86657 v 0 l 1,-0.86445 v 0 l 1,-0.86231 v 0 l 1,-0.86017 v 0 l 1,-0.85801 v 0 l 1,-0.85586 v 0 l 1,-0.85368 v 0 l 1,-0.85152 v 0 l 1,-0.84932 v 0 l 1,-0.84714 v 0 l 1,-0.84494 v 0 l 1,-0.84273 v 0 l 1,-0.84052 v 0 l 1,-0.8383 v 0 l 1,-0.83607 v 0 l 1,-0.83385 v 0 l 1,-0.83161 v 0 l 1,-0.82936 v 0 l 1,-0.82711 v 0 l 1,-0.82486 v 0 l 1,-0.8226 v 0 l 1,-0.82033 v 0 l 1,-0.81807 v 0 l 1,-0.81579 v 0 l 1,-0.81351 v 0 l 1,-0.81123 v 0 l 1,-0.80894 v 0 l 1,-0.80664 v 0 l 1,-0.80436 v 0 l 1,-0.80205 v 0 l 1,-0.79975 v 0 l 1,-0.79744 v 0 l 1,-0.79514 v 0 l 1,-0.79282 v 0 l 1,-0.79051 v 0 l 1,-0.78819 v 0 l 1,-0.78587 v 0 l 1,-0.78355 v 0 l 1,-0.78123 v 0 l 1,-0.7789 v 0 l 1,-0.77657 v 0 l 1,-0.77424 v 0 l 1,-0.77191 v 0 l 1,-0.76957 v 0 l 1,-0.76725 v 0 l 1,-0.7649 v 0 l 1,-0.76258 v 0 l 1,-0.76023 v 0 l 1,-0.7579 v 0 l 1,-0.75556 v 0 l 1,-0.75322 v 0 l 1,-0.75089 v 0 l 1,-0.74855 v 0 l 1,-0.7462 v 0 l 1,-0.74387 v 0 l 1,-0.74154 v 0 l 1,-0.73919 v 0 l 1,-0.73686 v 0 l 1,-0.73453 v 0 l 1,-0.73219 v 0 l 1,-0.72985 v 0 l 1,-0.72752 v 0 l 1,-0.72519 v 0 l 1,-0.72286 v 0 l 1,-0.72054 v 0 l 1,-0.7182 v 0 l 1,-0.71588 v 0 l 1,-0.71356 v 0 l 1,-0.71123 v 0 l 1,-0.70891 v 0 l 1,-0.7066 v 0 l 1,-0.70428 v 0 l 1,-0.70197 v 0 l 1,-0.69966 v 0 l 1,-0.69735 v 0 l 1,-0.69504 v 0 l 1,-0.69275 v 0 l 1,-0.69044 v 0 l 1,-0.68815 v 0 l 1,-0.68585 v 0 l 1,-0.68356 v 0 l 1,-0.68128 v 0 l 1,-0.67899 v 0 l 1,-0.67671 v 0 l 1,-0.67443 v 0 l 1,-0.67216 v 0 l 1,-0.66989 v 0 l 1,-0.66762 v 0 l 1,-0.66536 v 0 l 1,-0.66311 v 0 l 1,-0.66084 v 0 l 1,-0.6586 v 0 l 1,-0.65635 v 0 l 1,-0.65411 v 0 l 1,-0.65187 v 0 l 1,-0.64964 v 0 l 1,-0.64741 v 0 l 1,-0.64518 v 0 l 1,-0.64296 v 0 l 1,-0.64075 v 0 l 1,-0.63854 v 0 l 1,-0.63633 v 0 l 1,-0.63412 v 0 l 1,-0.63194 v 0 l 1,-0.62974 v 0 l 1,-0.62755 v 0 l 1,-0.62537 v 0 l 1,-0.62319 v 0 l 1,-0.62103 v 0 l 1,-0.61885 v 0 l 1,-0.6167 v 0 l 1,-0.61454 v 0 l 1,-0.61238 v 0 l 1,-0.61025 v 0 l 1,-0.6081 v 0 l 1,-0.60596 v 0 l 1,-0.60384 v 0 l 1,-0.60172 v 0 l 1,-0.59959 v 0 l 1,-0.59749 v 0 l 1,-0.59538 v 0 l 1,-0.59327 v 0 l 1,-0.59118 v 0 l 1,-0.5891 v 0 l 1,-0.587 v 0 l 1,-0.58493 v 0 l 1,-0.58286 v 0 l 1,-0.58079 v 0 l 1,-0.57873 v 0 l 1,-0.57668 v 0 l 1,-0.57463 v 0 l 1,-0.57258 v 0 l 1,-0.57055 v 0 l 1,-0.56852 v 0 l 1,-0.56649 v 0 l 1,-0.56448 v 0 l 1,-0.56246 v 0 l 1,-0.56046 v 0 l 1,-0.55846 v 0 l 1,-0.55646 v 0 l 1,-0.55448 v 0 l 1,-0.5525 v 0 l 1,-0.55052 v 0 l 1,-0.54855 v 0 l 1,-0.54659 v 0 l 1,-0.54464 v 0 l 1,-0.54269 v 0 l 1,-0.54074 v 0 l 1,-0.5388 v 0 l 1,-0.53688 v 0 l 1,-0.53495 v 0 l 1,-0.53303 v 0 l 1,-0.53112 v 0 l 1,-0.52922 v 0 l 1,-0.52731 v 0 l 1,-0.52543 v 0 l 1,-0.52354 v 0 l 1,-0.52166 v 0 l 1,-0.51978 v 0 l 1,-0.51792 v 0 l 1,-0.51606 v 0 l 1,-0.51421 v 0 l 1,-0.51236 v 0 l 1,-0.51052 v 0 l 1,-0.50868 v 0 l 1,-0.50686 v 0 l 1,-0.50503 v 0 l 1,-0.50322 v 0 l 1,-0.50142 v 0 l 1,-0.49961 v 0 l 1,-0.49781 v 0 l 1,-0.49603 v 0 l 1,-0.49424 v 0 l 1,-0.49247 v 0 l 1,-0.4907 v 0 l 1,-0.48894 v 0 l 1,-0.48718 v 0 l 1,-0.48543 v 0 l 1,-0.48368 v 0 l 1,-0.48195 v 0 l 1,-0.48022 v 0 l 1,-0.47849 v 0 l 1,-0.47678 v 0 l 1,-0.47507 v 0 l 1,-0.47336 v 0 l 1,-0.47166 v 0 l 1,-0.46997 v 0 l 1,-0.46828 v 0 l 1,-0.46661 v 0 l 1,-0.46493 v 0 l 1,-0.46326 v 0 l 1,-0.46161 v 0 l 1,-0.45995 v 0 l 1,-0.45831 v 0 l 1,-0.45666 v 0 l 1,-0.45503 v 0 l 1,-0.4534 v 0 l 1,-0.45178 v 0 l 1,-0.45016 v 0 l 1,-0.44856 v 0 l 1,-0.44695 v 0 l 1,-0.44535 v 0 l 1,-0.44377 v 0 l 1,-0.44218 v 0 l 1,-0.4406 v 0 l 1,-0.43903 v 0 l 1,-0.43746 v 0 l 1,-0.43591 v 0 l 1,-0.43435 v 0 l 1,-0.4328 v 0 l 1,-0.43127 v 0 l 1,-0.42973 v 0 l 1,-0.4282 v 0 l 1,-0.42667 v 0 l 1,-0.42517 v 0 l 1,-0.42365 v 0 l 1,-0.42214 v 0 l 1,-0.42065 v 0 l 1,-0.41916 v 0 l 1,-0.41767 v 0 l 1,-0.41619 v 0 l 1,-0.41472 v 0 l 1,-0.41325 v 0 l 1,-0.41178 v 0 l 1,-0.41033 v 0 l 1,-0.40888 v 0 l 1,-0.40744 v 0 l 1,-0.406 v 0 l 1,-0.40456 v 0 l 1,-0.40314 v 0 l 1,-0.40172 v 0 l 1,-0.4003 v 0 l 1,-0.39889 v 0 l 1,-0.39749 v 0 l 1,-0.39609 v 0 l 1,-0.3947 v 0 l 1,-0.39332 v 0 l 1,-0.39193 v 0 l 1,-0.39056 v 0 l 1,-0.38919 v 0 l 1,-0.38782 v 0 l 1,-0.38647 v 0 l 1,-0.38512 v 0 l 1,-0.38377 v 0 l 1,-0.38243 v 0 l 1,-0.38109 v 0 l 1,-0.37977 v 0 l 1,-0.37844 v 0 l 1,-0.37712 v 0 l 1,-0.3758 v 0 l 1,-0.3745 v 0 l 1,-0.3732 v 0 l 1,-0.3719 v 0 l 1,-0.37061 v 0 l 1,-0.36933 v 0 l 1,-0.36804 v 0 l 1,-0.36677 v 0 l 1,-0.36549 v 0 l 1,-0.36424 v 0 l 1,-0.36297 v 0 l 1,-0.36172 v 0 l 1,-0.36047 v 0 l 1,-0.35923 v 0 l 1,-0.35799 v 0 l 1,-0.35675 v 0 l 1,-0.35553 v 0 l 1,-0.35431 v 0 l 1,-0.35308 v 0 l 1,-0.35188 v 0 l 1,-0.35067 v 0 l 1,-0.34946 v 0 l 1,-0.34827 v 0 l 1,-0.34708 v 0 l 1,-0.34589 v 0 l 1,-0.34471 v 0 l 1,-0.34353 v 0 l 1,-0.34236 v 0 l 1,-0.34119 v 0 l 1,-0.34003 v 0 l 1,-0.33887 v 0 l 1,-0.33772 v 0 l 1,-0.33657 v 0 l 1,-0.33543 v 0 l 1,-0.33429 v 0 l 1,-0.33316 v 0 l 1,-0.33203 v 0 l 1,-0.33091 v 0 l 1,-0.32978 v 0 l 1,-0.32868 v 0 l 1,-0.32756 v 0 l 1,-0.32646 v 0 l 1,-0.32536 v 0 l 1,-0.32427 v 0 l 1,-0.32317 v 0 l 1,-0.32209 v 0 l 1,-0.32101 v 0 l 1,-0.31993 v 0 l 1,-0.31886 v 0 l 1,-0.31779 v 0 l 1,-0.31673 v 0 l 1,-0.31567 v 0 l 1,-0.31461 v 0 l 1,-0.31357 v 0 l 1,-0.31252 v 0 l 1,-0.31148 v 0 l 1,-0.31044 v 0 l 1,-0.30942 v 0 l 1,-0.30838 v 0 l 1,-0.30736 v 0 l 1,-0.30634 v 0 l 1,-0.30533 v 0 l 1,-0.30432 v 0 l 1,-0.30331 v 0 l 1,-0.30231 v 0 l 1,-0.30131 v 0 l 1,-0.30032 v 0 l 1,-0.29933 v 0 l 1,-0.29834 v 0 l 1,-0.29736 v 0 l 1,-0.29639 v 0 l 1,-0.29542 v 0 l 1,-0.29444 v 0 l 1,-0.29348 v 0 l 1,-0.29253 v 0 l 1,-0.29156 v 0 l 1,-0.29062 v 0 l 1,-0.28966 v 0 l 1,-0.28872 v 0 l 1,-0.28779 v 0 l 1,-0.28684 v 0 l 1,-0.28592 v 0 l 1,-0.28498 v 0 l 1,-0.28406 v 0 l 1,-0.28314 v 0 l 1,-0.28223 v 0 l 1,-0.28131 v 0 l 1,-0.2804 v 0 l 1,-0.2795 v 0 l 1,-0.2786 v 0 l 1,-0.2777 v 0 l 1,-0.2768 v 0 l 1,-0.27592 v 0 l 1,-0.27503 v 0 l 1,-0.27415 v 0 l 1,-0.27326 v 0 l 1,-0.2724 v 0 l 1,-0.27152 v 0 l 1,-0.27066 v 0 l 1,-0.26979 v 0 l 1,-0.26893 v 0 l 1,-0.26807 v 0 l 1,-0.26722 v 0 l 1,-0.26638 v 0 l 1,-0.26552 v 0 l 1,-0.26468 v 0 l 1,-0.26385 v 0 l 1,-0.26301 v 0 l 1,-0.26217 v 0 l 1,-0.26135 v 0 l 1,-0.26052 v 0 l 1,-0.25971 v 0 l 1,-0.25888 v 0 l 1,-0.25807 v 0 l 1,-0.25725 v 0 l 1,-0.25645 v 0 l 1,-0.25565 v 0 l 1,-0.25484 v 0 l 1,-0.25405 v 0 l 1,-0.25325 v 0 l 1,-0.25246 v 0 l 1,-0.25167 v 0 l 1,-0.25089 v 0 l 1,-0.2501 v 0 l 1,-0.24933 v 0 l 1,-0.24855 v 0 l 1,-0.24778 v 0 l 1,-0.24701 v 0 l 1,-0.24625 v 0 l 1,-0.24549 v 0 l 1,-0.24472 v 0 l 1,-0.24397 v 0 l 1,-0.24322 v 0 l 1,-0.24246 v 0 l 1,-0.24172 v 0 l 1,-0.24098 v 0 l 1,-0.24023 v 0 l 1,-0.2395 v 0 l 1,-0.23877 v 0 l 1,-0.23803 v 0 l 1,-0.2373 v 0 l 1,-0.23658 v 0 l 1,-0.23586 v 0 l 1,-0.23514 v 0 l 1,-0.23442 v 0 l 1,-0.23371 v 0 l 1,-0.23299 v 0 l 1,-0.23229 v 0 l 1,-0.23158 v 0 l 1,-0.23089 v 0 l 1,-0.23018 v 0 l 1,-0.22949 v 0 l 1,-0.22879 v 0 l 1,-0.2281 v 0 l 1,-0.22742 v 0 l 1,-0.22673 v 0 l 1,-0.22605 v 0 l 1,-0.22537 v 0 l 1,-0.22469 v 0 l 1,-0.22402 v 0 l 1,-0.22334 v 0 l 1,-0.22268 v 0 l 1,-0.22201 v 0 l 1,-0.22135 v 0 l 1,-0.22069 v 0 l 1,-0.22004 v 0 l 1,-0.21937 v 0 l 1,-0.21873 v 0 l 1,-0.21807 v 0 l 1,-0.21743 v 0 l 1,-0.21679 v 0 l 1,-0.21614 v 0 l 1,-0.2155 v 0 l 1,-0.21487 v 0 l 1,-0.21423 v 0 l 1,-0.2136 v 0 l 1,-0.21297 v 0 l 1,-0.21235 v 0 l 1,-0.21172 v 0 l 1,-0.2111 v 0 l 1,-0.21048 v 0 l 1,-0.20986 v 0 l 1,-0.20925 v 0 l 1,-0.20864 v 0 l 1,-0.20803 v 0 l 1,-0.20742 v 0 l 1,-0.20682 v 0 l 1,-0.20621 v 0 l 1,-0.20562 v 0 l 1,-0.20502 v 0 l 1,-0.20442 v 0 l 1,-0.20384 v 0 l 1,-0.20324 v 0 l 1,-0.20265 v 0 l 1,-0.20207 v 0 l 1,-0.20149 v 0 l 1,-0.2009 v 0 l 1,-0.20033 v 0 l 1,-0.19975"
     stroke-opacity="0.698039"
     stroke-linecap="round"
     stroke-linejoin="round"
     stroke-miterlimit="10"
     stroke-width="2.5"
     id="path2654"
     style="stroke-width:4;stroke-miterlimit:10;stroke-dasharray:none" />
  <text
     xml:space="preserve"
     style="font-style:normal;font-weight:normal;font-size:40px;line-height:1.25;font-family:sans-serif;letter-spacing:0px;word-spacing:0px;fill:#000000;fill-opacity:1;stroke:none"
     x="35.480255"
     y="716.14276"
     id="text3568"><tspan
       sodipodi:role="line"
       id="tspan3566"
       x="35.480255"
       y="716.14276" /></text>
  <g
     id="g5505"
     style="filter:url(#filter5512)"
     transform="translate(-0.61597246,94.64986)">
    <text
       fill="#000000"
       stroke="none"
       font-family="geogebra-sans-serif, sans-serif"
       font-size="24.9404px"
       font-style="normal"
       font-weight="normal"
       text-decoration="normal"
       x="827.15045"
       y="401.26437"
       text-anchor="start"
       dominant-baseline="alphabetic"
       fill-opacity="1"
       id="text1365"
       style="stroke-width:2.07837">1</text>
    <text
       fill="none"
       stroke="#ffffff"
       font-family="geogebra-sans-serif, sans-serif"
       font-size="24.9404px"
       font-style="normal"
       font-weight="normal"
       text-decoration="normal"
       x="827.15045"
       y="398.14682"
       text-anchor="start"
       dominant-baseline="alphabetic"
       stroke-opacity="1"
       stroke-linejoin="bevel"
       stroke-miterlimit="10"
       stroke-width="6.2351"
       id="text1367">1</text>
    <text
       fill="#000000"
       stroke="none"
       font-family="geogebra-sans-serif, sans-serif"
       font-size="24.9404px"
       font-style="normal"
       font-weight="normal"
       text-decoration="normal"
       x="827.15045"
       y="401.26437"
       text-anchor="start"
       dominant-baseline="alphabetic"
       fill-opacity="1"
       id="text1369"
       style="stroke-width:2.07837">1</text>
  </g>
  <g
     id="g5510"
     transform="translate(-2.0443255,96.69703)">
    <text
       fill="#000000"
       stroke="none"
       font-family="geogebra-sans-serif, sans-serif"
       font-size="25.1469px"
       font-style="normal"
       font-weight="normal"
       text-decoration="normal"
       x="264.0014"
       y="400.22751"
       text-anchor="start"
       dominant-baseline="alphabetic"
       fill-opacity="1"
       id="text1311"
       style="stroke-width:2.09557">–1</text>
    <text
       fill="none"
       stroke="#ffffff"
       font-family="geogebra-sans-serif, sans-serif"
       font-size="25.1469px"
       font-style="normal"
       font-weight="normal"
       text-decoration="normal"
       x="264.0014"
       y="400.22751"
       text-anchor="start"
       dominant-baseline="alphabetic"
       stroke-opacity="1"
       stroke-linejoin="bevel"
       stroke-miterlimit="10"
       stroke-width="6.28672"
       id="text1313">–1</text>
    <text
       fill="#000000"
       stroke="none"
       font-family="geogebra-sans-serif, sans-serif"
       font-size="25.1469px"
       font-style="normal"
       font-weight="normal"
       text-decoration="normal"
       x="264.0014"
       y="400.22751"
       text-anchor="start"
       dominant-baseline="alphabetic"
       fill-opacity="1"
       id="text1315"
       style="stroke-width:2.09557">–1</text>
  </g>
  <g
     id="g2725"
     transform="translate(2.8798)">
    <g
       id="g2763"
       transform="translate(-62.17451)">
      <g
         id="g2658"
         style="opacity:0.995">
        <path
           style="fill:none;stroke:#0000ff;stroke-width:4;stroke-linecap:butt;stroke-linejoin:miter;stroke-miterlimit:4;stroke-dasharray:none;stroke-opacity:1"
           d="m 106.43099,50.604615 c 48.15753,0 48.15753,0 48.15753,0"
           id="path2656" />
        <g
           aria-label="arctan"
           id="text2660"
           style="font-style:normal;font-weight:normal;font-size:33.3333px;line-height:1.25;font-family:sans-serif;letter-spacing:0px;word-spacing:0px;opacity:0.994;fill:#000000;fill-opacity:1;stroke:none"
           transform="translate(59.027666,2.3793133)">
          <path
             d="m 106.49731,49.125294 c 0,2.699998 3.23333,3.53333 5.33333,3.53333 2.2,0 3.73333,-1.333332 4.36666,-2.899997 0.13334,1.333332 1.03333,2.733331 2.6,2.733331 0.7,0 2.73333,-0.466667 2.73333,-3.166664 v -1.866665 h -0.83333 v 1.866665 c 0,1.933332 -0.83333,2.133331 -1.2,2.133331 -1.1,0 -1.23333,-1.499998 -1.23333,-1.666665 V 43.1253 c 0,-1.399999 0,-2.699997 -1.2,-3.93333 -1.3,-1.299998 -2.96667,-1.833331 -4.56666,-1.833331 -2.73333,0 -5.03333,1.566665 -5.03333,3.766663 0,0.999999 0.66666,1.566665 1.53333,1.566665 0.93333,0 1.53333,-0.666666 1.53333,-1.533332 0,-0.399999 -0.16667,-1.499998 -1.7,-1.533332 0.9,-1.166665 2.53333,-1.533332 3.6,-1.533332 1.63333,0 3.53333,1.299999 3.53333,4.266663 v 1.233332 c -1.7,0.1 -4.03333,0.2 -6.13333,1.199999 -2.5,1.133332 -3.33333,2.866664 -3.33333,4.333329 z m 2.56667,-0.03333 c 0,-1.833332 1.39999,-4.599996 6.89999,-4.799996 v 3.333331 c 0,3.166663 -2.4,4.299996 -3.9,4.299996 -1.63333,0 -2.99999,-1.166666 -2.99999,-2.833331 z"
             style="font-style:normal;font-variant:normal;font-weight:normal;font-stretch:normal;font-size:33.3333px;font-family:'CMU Serif';-inkscape-font-specification:'CMU Serif'"
             id="path1662" />
          <path
             d="m 122.69723,52.291958 c 1.3,-0.03333 2.86667,-0.1 3.8,-0.1 1.33333,0 2.9,0 4.23333,0.1 v -1.033332 h -0.7 c -2.46666,0 -2.53333,-0.366667 -2.53333,-1.566666 v -5.133328 c 0,-3.299997 1.4,-6.266661 3.93333,-6.266661 0.23333,0 0.3,0 0.36666,0.03333 -0.1,0.03333 -0.76666,0.433332 -0.76666,1.299998 0,0.933333 0.7,1.433332 1.43333,1.433332 0.6,0 1.43333,-0.399999 1.43333,-1.466665 0,-1.066666 -1.03333,-2.033331 -2.46666,-2.033331 -2.43333,0 -3.63333,2.233331 -4.1,3.666663 v -3.666663 l -4.63333,0.366666 v 1.033332 c 2.33333,0 2.6,0.233333 2.6,1.866665 v 8.933325 c 0,1.499999 -0.36667,1.499999 -2.6,1.499999 z"
             style="font-style:normal;font-variant:normal;font-weight:normal;font-stretch:normal;font-size:33.3333px;font-family:'CMU Serif';-inkscape-font-specification:'CMU Serif'"
             id="path1664" />
          <path
             d="m 135.93052,45.091965 c 0,4.266662 3.29999,7.566659 7.16666,7.566659 4.46666,0 5.53332,-3.999996 5.53332,-4.333329 0,-0.333333 -0.33333,-0.333333 -0.43333,-0.333333 -0.3,0 -0.36667,0.133333 -0.43333,0.333333 -0.96667,3.099997 -3.13333,3.499997 -4.36666,3.499997 -1.76667,0 -4.7,-1.433332 -4.7,-6.799994 0,-5.433328 2.73333,-6.833327 4.5,-6.833327 0.3,0 2.39999,0.03333 3.56666,1.233332 -1.36667,0.1 -1.56667,1.099999 -1.56667,1.533332 0,0.866666 0.6,1.533332 1.53334,1.533332 0.86666,0 1.53333,-0.566666 1.53333,-1.566665 0,-2.266664 -2.53333,-3.566663 -5.1,-3.566663 -4.16666,0 -7.23332,3.599996 -7.23332,7.733326 z"
             style="font-style:normal;font-variant:normal;font-weight:normal;font-stretch:normal;font-size:33.3333px;font-family:'CMU Serif';-inkscape-font-specification:'CMU Serif'"
             id="path1666" />
          <path
             d="m 150.23045,38.958637 h 2.83333 v 9.199991 c 0,4.099997 3.09999,4.499996 4.29999,4.499996 2.36667,0 3.3,-2.366664 3.3,-4.499996 V 46.25863 h -0.83333 v 1.833332 c 0,2.466664 -1,3.73333 -2.23333,3.73333 -2.23333,0 -2.23333,-3.033331 -2.23333,-3.599997 v -9.266658 h 4.76666 v -1.033332 h -4.76666 v -6.133328 h -0.83334 c -0.0333,2.733331 -1.03333,6.299994 -4.29999,6.433328 z"
             style="font-style:normal;font-variant:normal;font-weight:normal;font-stretch:normal;font-size:33.3333px;font-family:'CMU Serif';-inkscape-font-specification:'CMU Serif'"
             id="path1668" />
          <path
             d="m 163.93039,49.125294 c 0,2.699998 3.23333,3.53333 5.33332,3.53333 2.2,0 3.73333,-1.333332 4.36667,-2.899997 0.13333,1.333332 1.03333,2.733331 2.59999,2.733331 0.7,0 2.73334,-0.466667 2.73334,-3.166664 v -1.866665 h -0.83334 v 1.866665 c 0,1.933332 -0.83333,2.133331 -1.2,2.133331 -1.09999,0 -1.23333,-1.499998 -1.23333,-1.666665 V 43.1253 c 0,-1.399999 0,-2.699997 -1.2,-3.93333 -1.3,-1.299998 -2.96666,-1.833331 -4.56666,-1.833331 -2.73333,0 -5.03333,1.566665 -5.03333,3.766663 0,0.999999 0.66667,1.566665 1.53333,1.566665 0.93334,0 1.53334,-0.666666 1.53334,-1.533332 0,-0.399999 -0.16667,-1.499998 -1.7,-1.533332 0.9,-1.166665 2.53333,-1.533332 3.59999,-1.533332 1.63334,0 3.53333,1.299999 3.53333,4.266663 v 1.233332 c -1.69999,0.1 -4.03333,0.2 -6.13332,1.199999 -2.5,1.133332 -3.33333,2.866664 -3.33333,4.333329 z m 2.56666,-0.03333 c 0,-1.833332 1.4,-4.599996 6.89999,-4.799996 v 3.333331 c 0,3.166663 -2.39999,4.299996 -3.89999,4.299996 -1.63333,0 -3,-1.166666 -3,-2.833331 z"
             style="font-style:normal;font-variant:normal;font-weight:normal;font-stretch:normal;font-size:33.3333px;font-family:'CMU Serif';-inkscape-font-specification:'CMU Serif'"
             id="path1670" />
          <path
             d="m 180.26364,52.291958 c 1.16667,-0.03333 2.86667,-0.1 3.76666,-0.1 0.86667,0 2.6,0.06667 3.73333,0.1 v -1.033332 c -2.23333,0 -2.59999,0 -2.59999,-1.499999 v -6.133328 c 0,-3.466663 2.36666,-5.333328 4.49999,-5.333328 2.1,0 2.46667,1.799998 2.46667,3.699997 v 7.766659 c 0,1.499999 -0.36667,1.499999 -2.6,1.499999 v 1.033332 c 1.16666,-0.03333 2.86666,-0.1 3.76666,-0.1 0.86667,0 2.6,0.06667 3.73333,0.1 v -1.033332 c -1.73333,0 -2.56666,0 -2.6,-1 v -6.36666 c 0,-2.866664 0,-3.899996 -1.03333,-5.099995 -0.46666,-0.566666 -1.56666,-1.233332 -3.49999,-1.233332 -2.43334,0 -4,1.433332 -4.93333,3.499996 v -3.499996 l -4.7,0.366666 v 1.033332 c 2.33333,0 2.6,0.233333 2.6,1.866665 v 8.933325 c 0,1.499999 -0.36667,1.499999 -2.6,1.499999 z"
             style="font-style:normal;font-variant:normal;font-weight:normal;font-stretch:normal;font-size:33.3333px;font-family:'CMU Serif';-inkscape-font-specification:'CMU Serif'"
             id="path1672" />
        </g>
      </g>
      <g
         id="g2682"
         transform="translate(56.957763)"
         style="opacity:0.995">
        <g
           transform="matrix(27.561581,0,0,27.561581,64.11396,-1040.4285)"
           id="g1577"
           style="fill:#000000;fill-opacity:1">
          <g
             transform="translate(10.684211,39.648095)"
             id="g1539"
             style="fill:#000000;fill-opacity:1">
            <path
               fill="#4b0082"
               stroke="none"
               paint-order="stroke fill markers"
               d="M 0.334,-0.302 0.3,-0.165 q -0.017,0.068 -0.017,0.088 0,0.052 0.037,0.063 0.008,0.003 0.018,0.003 0.05,0 0.091,-0.05 0.027,-0.032 0.042,-0.081 0.003,-0.011 0.013,-0.011 0.012,0 0.012,0.01 0,0.025 -0.031,0.072 Q 0.411,0.011 0.336,0.011 0.268,0.011 0.237,-0.046 0.231,-0.055 0.228,-0.065 0.204,-0.017 0.162,0.002 0.143,0.011 0.123,0.011 q -0.06,0 -0.084,-0.035 -0.01,-0.013 -0.01,-0.031 0,-0.037 0.032,-0.052 0.011,-0.006 0.023,-0.006 0.03,0 0.036,0.025 0.001,0.005 0.001,0.01 0,0.034 -0.034,0.05 -0.006,0.003 -0.013,0.004 0.021,0.013 0.05,0.013 0.053,0 0.084,-0.071 0.006,-0.015 0.011,-0.033 0.054,-0.204 0.054,-0.238 -0.006,-0.062 -0.054,-0.067 -0.052,0 -0.095,0.053 v 0.001 q 0,0.001 -0.001,0.001 -0.015,0.02 -0.027,0.046 -0.005,0.012 -0.009,0.024 l -0.002,0.006 q -0.002,0.011 -0.013,0.011 -0.012,0 -0.012,-0.01 0,-0.025 0.032,-0.072 0.054,-0.082 0.129,-0.082 0.077,0 0.108,0.076 0.032,-0.062 0.085,-0.074 0.01,-0.002 0.02,-0.002 0.059,0 0.083,0.033 0.01,0.014 0.01,0.033 0,0.041 -0.037,0.055 -0.009,0.003 -0.017,0.003 -0.031,0 -0.037,-0.027 -0.001,-0.004 -0.001,-0.008 0,-0.03 0.029,-0.047 0.009,-0.005 0.019,-0.007 -0.021,-0.013 -0.05,-0.013 -0.068,0 -0.096,0.106 -0.002,0.006 -0.003,0.012 z"
               id="path1537"
               style="fill:#000000;fill-opacity:1" />
          </g>
          <g
             transform="translate(11.478433,39.648095)"
             id="g1543"
             style="fill:#000000;fill-opacity:1">
            <path
               fill="#4b0082"
               stroke="none"
               paint-order="stroke fill markers"
               d="M 0.661,-0.23 H 0.116 q -0.032,0 -0.033,-0.02 0,-0.02 0.033,-0.02 h 0.545 q 0.032,0 0.033,0.02 0,0.02 -0.033,0.02 z"
               id="path1541"
               style="fill:#000000;fill-opacity:1" />
          </g>
          <g
             transform="translate(12.541577,38.971587)"
             id="g1547"
             style="fill:#000000;fill-opacity:1">
            <path
               fill="#4b0082"
               stroke="none"
               paint-order="stroke fill markers"
               d="M 0.334,-0.302 0.3,-0.165 q -0.017,0.068 -0.017,0.088 0,0.052 0.037,0.063 0.008,0.003 0.018,0.003 0.05,0 0.091,-0.05 0.027,-0.032 0.042,-0.081 0.003,-0.011 0.013,-0.011 0.012,0 0.012,0.01 0,0.025 -0.031,0.072 Q 0.411,0.011 0.336,0.011 0.268,0.011 0.237,-0.046 0.231,-0.055 0.228,-0.065 0.204,-0.017 0.162,0.002 0.143,0.011 0.123,0.011 q -0.06,0 -0.084,-0.035 -0.01,-0.013 -0.01,-0.031 0,-0.037 0.032,-0.052 0.011,-0.006 0.023,-0.006 0.03,0 0.036,0.025 0.001,0.005 0.001,0.01 0,0.034 -0.034,0.05 -0.006,0.003 -0.013,0.004 0.021,0.013 0.05,0.013 0.053,0 0.084,-0.071 0.006,-0.015 0.011,-0.033 0.054,-0.204 0.054,-0.238 -0.006,-0.062 -0.054,-0.067 -0.052,0 -0.095,0.053 v 0.001 q 0,0.001 -0.001,0.001 -0.015,0.02 -0.027,0.046 -0.005,0.012 -0.009,0.024 l -0.002,0.006 q -0.002,0.011 -0.013,0.011 -0.012,0 -0.012,-0.01 0,-0.025 0.032,-0.072 0.054,-0.082 0.129,-0.082 0.077,0 0.108,0.076 0.032,-0.062 0.085,-0.074 0.01,-0.002 0.02,-0.002 0.059,0 0.083,0.033 0.01,0.014 0.01,0.033 0,0.041 -0.037,0.055 -0.009,0.003 -0.017,0.003 -0.031,0 -0.037,-0.027 -0.001,-0.004 -0.001,-0.008 0,-0.03 0.029,-0.047 0.009,-0.005 0.019,-0.007 -0.021,-0.013 -0.05,-0.013 -0.068,0 -0.096,0.106 -0.002,0.006 -0.003,0.012 z"
               id="path1545"
               style="fill:#000000;fill-opacity:1" />
          </g>
          <g
             transform="matrix(0.7,0,0,0.7,13.113577,38.608695)"
             id="g1551"
             style="fill:#000000;fill-opacity:1">
            <path
               fill="#4b0082"
               stroke="none"
               paint-order="stroke fill markers"
               d="m 0.29,-0.352 v 0 q 0.1,0.02 0.144,0.098 0.023,0.039 0.023,0.083 0,0.085 -0.07,0.143 -0.061,0.05 -0.143,0.05 -0.099,0 -0.159,-0.059 -0.043,-0.042 -0.043,-0.098 0,-0.047 0.042,-0.056 0.007,-0.002 0.014,-0.002 0.038,0 0.051,0.032 0.004,0.013 0.005,0.024 0,0.04 -0.036,0.052 -0.014,0.005 -0.03,0.003 0.037,0.062 0.128,0.074 0.013,0.002 0.025,0.002 0.064,0 0.094,-0.063 0.019,-0.04 0.019,-0.102 0,-0.133 -0.08,-0.16 Q 0.256,-0.337 0.235,-0.337 H 0.191 q -0.022,0 -0.024,-0.011 0,-0.01 0.015,-0.012 0.015,0 0.039,-0.003 0.051,-0.002 0.08,-0.039 v -0.001 l 0.001,-0.001 0.001,-0.001 h 0.001 l 0.006,-0.01 q 0.028,-0.047 0.028,-0.114 0,-0.093 -0.072,-0.109 -0.012,-0.003 -0.024,-0.003 -0.07,0 -0.114,0.04 -0.011,0.01 -0.019,0.022 0.062,0 0.062,0.05 0,0.036 -0.031,0.048 -0.009,0.003 -0.02,0.003 -0.039,0 -0.049,-0.035 v 0 -0.001 Q 0.069,-0.522 0.069,-0.53 q 0,-0.067 0.066,-0.107 0.048,-0.029 0.111,-0.029 0.091,0 0.147,0.054 l 0.002,0.002 q 0.035,0.036 0.035,0.082 0,0.083 -0.071,0.139 -0.031,0.024 -0.069,0.037 z"
               id="path1549"
               style="fill:#000000;fill-opacity:1" />
          </g>
          <rect
             fill="#4b0082"
             stroke="none"
             x="12.541577"
             y="39.378094"
             width="0.94821745"
             height="0.039999001"
             id="rect1553"
             style="fill:#000000;fill-opacity:1" />
          <g
             transform="translate(12.765686,40.334046)"
             id="g1557"
             style="fill:#000000;fill-opacity:1">
            <path
               fill="#4b0082"
               stroke="none"
               paint-order="stroke fill markers"
               d="m 0.29,-0.352 v 0 q 0.1,0.02 0.144,0.098 0.023,0.039 0.023,0.083 0,0.085 -0.07,0.143 -0.061,0.05 -0.143,0.05 -0.099,0 -0.159,-0.059 -0.043,-0.042 -0.043,-0.098 0,-0.047 0.042,-0.056 0.007,-0.002 0.014,-0.002 0.038,0 0.051,0.032 0.004,0.013 0.005,0.024 0,0.04 -0.036,0.052 -0.014,0.005 -0.03,0.003 0.037,0.062 0.128,0.074 0.013,0.002 0.025,0.002 0.064,0 0.094,-0.063 0.019,-0.04 0.019,-0.102 0,-0.133 -0.08,-0.16 Q 0.256,-0.337 0.235,-0.337 H 0.191 q -0.022,0 -0.024,-0.011 0,-0.01 0.015,-0.012 0.015,0 0.039,-0.003 0.051,-0.002 0.08,-0.039 v -0.001 l 0.001,-0.001 0.001,-0.001 h 0.001 l 0.006,-0.01 q 0.028,-0.047 0.028,-0.114 0,-0.093 -0.072,-0.109 -0.012,-0.003 -0.024,-0.003 -0.07,0 -0.114,0.04 -0.011,0.01 -0.019,0.022 0.062,0 0.062,0.05 0,0.036 -0.031,0.048 -0.009,0.003 -0.02,0.003 -0.039,0 -0.049,-0.035 v 0 -0.001 Q 0.069,-0.522 0.069,-0.53 q 0,-0.067 0.066,-0.107 0.048,-0.029 0.111,-0.029 0.091,0 0.147,0.054 l 0.002,0.002 q 0.035,0.036 0.035,0.082 0,0.083 -0.071,0.139 -0.031,0.024 -0.069,0.037 z"
               id="path1555"
               style="fill:#000000;fill-opacity:1" />
          </g>
          <g
             transform="translate(13.774939,39.648095)"
             id="g1561"
             style="fill:#000000;fill-opacity:1">
            <path
               fill="#4b0082"
               stroke="none"
               paint-order="stroke fill markers"
               d="m 0.409,-0.23 v 0.28 q 0,0.032 -0.02,0.033 -0.02,0 -0.02,-0.033 v -0.28 h -0.28 q -0.032,0 -0.033,-0.02 0,-0.02 0.033,-0.02 h 0.28 v -0.28 q 0,-0.032 0.02,-0.033 0.02,0 0.02,0.033 v 0.28 h 0.279 q 0.032,0 0.033,0.02 0,0.02 -0.033,0.02 z"
               id="path1559"
               style="fill:#000000;fill-opacity:1" />
          </g>
          <g
             transform="translate(14.838083,38.971587)"
             id="g1565"
             style="fill:#000000;fill-opacity:1">
            <path
               fill="#4b0082"
               stroke="none"
               paint-order="stroke fill markers"
               d="M 0.334,-0.302 0.3,-0.165 q -0.017,0.068 -0.017,0.088 0,0.052 0.037,0.063 0.008,0.003 0.018,0.003 0.05,0 0.091,-0.05 0.027,-0.032 0.042,-0.081 0.003,-0.011 0.013,-0.011 0.012,0 0.012,0.01 0,0.025 -0.031,0.072 Q 0.411,0.011 0.336,0.011 0.268,0.011 0.237,-0.046 0.231,-0.055 0.228,-0.065 0.204,-0.017 0.162,0.002 0.143,0.011 0.123,0.011 q -0.06,0 -0.084,-0.035 -0.01,-0.013 -0.01,-0.031 0,-0.037 0.032,-0.052 0.011,-0.006 0.023,-0.006 0.03,0 0.036,0.025 0.001,0.005 0.001,0.01 0,0.034 -0.034,0.05 -0.006,0.003 -0.013,0.004 0.021,0.013 0.05,0.013 0.053,0 0.084,-0.071 0.006,-0.015 0.011,-0.033 0.054,-0.204 0.054,-0.238 -0.006,-0.062 -0.054,-0.067 -0.052,0 -0.095,0.053 v 0.001 q 0,0.001 -0.001,0.001 -0.015,0.02 -0.027,0.046 -0.005,0.012 -0.009,0.024 l -0.002,0.006 q -0.002,0.011 -0.013,0.011 -0.012,0 -0.012,-0.01 0,-0.025 0.032,-0.072 0.054,-0.082 0.129,-0.082 0.077,0 0.108,0.076 0.032,-0.062 0.085,-0.074 0.01,-0.002 0.02,-0.002 0.059,0 0.083,0.033 0.01,0.014 0.01,0.033 0,0.041 -0.037,0.055 -0.009,0.003 -0.017,0.003 -0.031,0 -0.037,-0.027 -0.001,-0.004 -0.001,-0.008 0,-0.03 0.029,-0.047 0.009,-0.005 0.019,-0.007 -0.021,-0.013 -0.05,-0.013 -0.068,0 -0.096,0.106 -0.002,0.006 -0.003,0.012 z"
               id="path1563"
               style="fill:#000000;fill-opacity:1" />
          </g>
          <g
             transform="matrix(0.7,0,0,0.7,15.410083,38.608695)"
             id="g1569"
             style="fill:#000000;fill-opacity:1">
            <path
               fill="#4b0082"
               stroke="none"
               paint-order="stroke fill markers"
               d="m 0.449,-0.201 v 0 q 0,0.103 -0.077,0.17 Q 0.31,0.022 0.231,0.022 0.139,0.022 0.085,-0.055 0.05,-0.104 0.05,-0.161 q 0,-0.046 0.041,-0.052 0.004,-0.001 0.008,-0.001 0.037,0 0.048,0.033 0.002,0.008 0.002,0.016 0,0.032 -0.028,0.044 -0.01,0.005 -0.022,0.005 -0.011,0 -0.017,-0.002 0.018,0.063 0.077,0.094 0.033,0.018 0.07,0.018 0.067,0 0.107,-0.065 0.024,-0.042 0.024,-0.137 0,-0.084 -0.018,-0.126 -0.028,-0.064 -0.085,-0.064 -0.081,0 -0.129,0.07 -0.006,0.009 -0.013,0.009 -0.013,0 -0.014,-0.014 v -0.012 -0.296 q 0,-0.023 0.01,-0.024 0.004,0 0.012,0.003 0.063,0.028 0.133,0.028 0.072,0 0.136,-0.029 0.005,-0.003 0.008,-0.003 0.01,0 0.01,0.011 0,0.013 -0.032,0.042 -0.068,0.062 -0.161,0.062 -0.042,0 -0.085,-0.013 v 0.195 q 0.052,-0.051 0.127,-0.051 0.088,0 0.145,0.077 0.045,0.061 0.045,0.142 z"
               id="path1567"
               style="fill:#000000;fill-opacity:1" />
          </g>
          <rect
             fill="#4b0082"
             stroke="none"
             x="14.838082"
             y="39.378094"
             width="0.94821745"
             height="0.039999001"
             id="rect1571"
             style="fill:#000000;fill-opacity:1" />
          <g
             transform="translate(15.062191,40.334046)"
             id="g1575"
             style="fill:#000000;fill-opacity:1">
            <path
               fill="#4b0082"
               stroke="none"
               paint-order="stroke fill markers"
               d="m 0.449,-0.201 v 0 q 0,0.103 -0.077,0.17 Q 0.31,0.022 0.231,0.022 0.139,0.022 0.085,-0.055 0.05,-0.104 0.05,-0.161 q 0,-0.046 0.041,-0.052 0.004,-0.001 0.008,-0.001 0.037,0 0.048,0.033 0.002,0.008 0.002,0.016 0,0.032 -0.028,0.044 -0.01,0.005 -0.022,0.005 -0.011,0 -0.017,-0.002 0.018,0.063 0.077,0.094 0.033,0.018 0.07,0.018 0.067,0 0.107,-0.065 0.024,-0.042 0.024,-0.137 0,-0.084 -0.018,-0.126 -0.028,-0.064 -0.085,-0.064 -0.081,0 -0.129,0.07 -0.006,0.009 -0.013,0.009 -0.013,0 -0.014,-0.014 v -0.012 -0.296 q 0,-0.023 0.01,-0.024 0.004,0 0.012,0.003 0.063,0.028 0.133,0.028 0.072,0 0.136,-0.029 0.005,-0.003 0.008,-0.003 0.01,0 0.01,0.011 0,0.013 -0.032,0.042 -0.068,0.062 -0.161,0.062 -0.042,0 -0.085,-0.013 v 0.195 q 0.052,-0.051 0.127,-0.051 0.088,0 0.145,0.077 0.045,0.061 0.045,0.142 z"
               id="path1573"
               style="fill:#000000;fill-opacity:1" />
          </g>
        </g>
        <path
           style="fill:none;stroke:#ff0082;stroke-width:4;stroke-linecap:butt;stroke-linejoin:miter;stroke-miterlimit:4;stroke-dasharray:none;stroke-opacity:1"
           d="m 298.85427,47.343368 c 48.15753,0 48.15753,0 48.15753,0"
           id="path2656-3" />
      </g>
      <g
         id="g2687"
         transform="translate(-7.5644531e-5)"
         style="opacity:0.995">
        <path
           style="fill:none;stroke:#00a820;stroke-width:4;stroke-linecap:butt;stroke-linejoin:miter;stroke-miterlimit:4;stroke-dasharray:none;stroke-opacity:0.849019"
           d="m 655.92124,47.343368 c 48.15753,0 48.15753,0 48.15753,0"
           id="path2656-3-5" />
        <text
           xml:space="preserve"
           style="font-style:normal;font-weight:normal;font-size:26.6667px;line-height:1.25;font-family:sans-serif;letter-spacing:0px;word-spacing:0px;opacity:0.994;fill:#000000;fill-opacity:1;stroke:none"
           x="712.01996"
           y="51.491055"
           id="text2640"><tspan
             sodipodi:role="line"
             id="tspan2638"
             x="712.01996"
             y="51.491055"
             style="font-size:26.6667px">Hastings 3-term approximation</tspan></text>
      </g>
    </g>
  </g>
</svg>
