<?xml version="1.0" standalone="no"?>
<!DOCTYPE svg PUBLIC "-//W3C//DTD SVG 1.1//EN" "http://www.w3.org/Graphics/SVG/1.1/DTD/svg11.dtd" >
<svg xmlns="http://www.w3.org/2000/svg">
<metadata>
This is a custom SVG webfont generated by Font Squirrel.
Copyright   : Linux Libertine by Philipp H Poll Open Font under Terms of following Free Software LicensesGPL General Public License with fontexception and OFL Open Font LicenseCreated with FontForge httpfontforgesfnet Sept 2003 2004 2005 2006 2007 2008
Designer    : Philipp H Poll
Foundry     : Philipp H Poll
Foundry URL : httplinuxlibertinesfnet
</metadata>
<defs>
<font id="webfontfIXleBrp" horiz-adv-x="1034" >
<font-face units-per-em="2048" ascent="1638" descent="-410" />
<missing-glyph horiz-adv-x="512" />
<glyph unicode=" "  horiz-adv-x="512" />
<glyph unicode="&#x09;" horiz-adv-x="512" />
<glyph unicode="&#xa0;" horiz-adv-x="512" />
<glyph unicode="!" horiz-adv-x="512" d="M131 98v11q37 90 129 127h8q94 -33 129 -127v-11q-20 -57 -49 -85.5t-80 -41.5h-8q-57 12 -85 40t-44 87zM250 1348q51 0 89 -39t38 -111q0 -76 -25.5 -204t-34.5 -191q-12 -96 -20 -183.5t-10 -134.5t-4 -55q-4 -41 -33 -41q-27 0 -31 27q0 10 -6 78l-13 152 q-7 85 -16 157q-8 68 -31.5 191.5t-23.5 203.5q0 76 38 113t83 37z" />
<glyph unicode="&#x22;" horiz-adv-x="768" d="M221 862l-31 8q-66 328 -65 340q0 41 36 76t97 35q41 0 62.5 -12.5t25.5 -26.5t4 -37l-76 -371zM514 864l-31 8q-66 328 -65 340q0 41 35.5 76t97.5 35q41 0 62.5 -12.5t25.5 -26.5t4 -37l-76 -370z" />
<glyph unicode="#" horiz-adv-x="978" d="M700 690l-32 -205h209l-17 -114h-209l-55 -344h-119l55 344h-165q-10 -53 -29 -169l-29 -175h-123l54 344h-191l17 114h192l33 205h-193l19 117h192l56 342h124l-57 -342h168q10 55 26.5 171t26.5 171h119l-53 -342h207l-17 -117h-209zM549 485l33 205h-164l-35 -205h166 z" />
<glyph unicode="$" horiz-adv-x="1024" d="M549 485v-401q143 33 143 184q0 92 -35.5 138t-107.5 79zM459 711v366q-70 -10 -110 -53t-40 -113q0 -128 150 -200zM459 76v444q-74 31 -126 57.5t-112.5 68.5t-92.5 97.5t-32 120.5q0 131 108.5 210t254.5 93v117h90v-113q88 -4 162.5 -23.5t105.5 -37.5l31 -18l4 -7 q-20 -68 -35 -211l-18 -2q-33 76 -101.5 133.5t-148.5 71.5v-403q57 -20 98 -36.5t96.5 -49.5t91 -67t61.5 -83t26 -106q0 -133 -107.5 -226.5t-265.5 -117.5v-154h-90v146h-4q-90 0 -181.5 20t-136.5 41l-47 20l-4 7q18 66 37 215l16 2q37 -80 133.5 -141.5t186.5 -67.5z " />
<glyph unicode="%" horiz-adv-x="1304" d="M250 803q0 -57 19.5 -92t47.5 -35q68 0 121.5 98t53.5 195q0 115 -80 114q-70 0 -116 -91t-46 -189zM745 1063q211 0 308 102l96 -43l-842 -1155l-110 25l749 1026q-115 -47 -221 -47q-78 0 -152 43q6 -25 7 -43q0 -139 -79 -251t-206 -112q-186 0 -186 223 q0 135 78.5 230.5t201.5 95.5q102 0 137 -43q110 -51 219 -51zM768 186q0 131 76 228.5t205 97.5q188 0 188 -186q0 -154 -77 -259.5t-195 -105.5q-94 0 -145.5 61.5t-51.5 163.5zM907 158q0 -59 19.5 -94t50.5 -35q74 0 124 98t50 195q0 117 -80 116q-63 0 -113.5 -93 t-50.5 -187z" />
<glyph unicode="&#x26;" horiz-adv-x="1492" d="M924 428q150 231 176 457q20 -6 110 -6q96 0 117 6l-104 -186l-136 -240q-61 -109 -81 -140q8 -12 24 -39l27 -44l25.5 -39t26.5 -37.5t25.5 -28.5t29 -20.5t26.5 -6.5q45 0 76.5 25t68.5 94l66 -47q-66 -121 -125 -158.5t-139 -37.5q-74 0 -127.5 35.5t-126.5 144.5 q-80 -88 -165 -134t-212 -46q-195 0 -310.5 79.5t-115.5 247.5q0 117 84 212t311 226q-127 197 -127 322q0 102 99.5 187t263.5 85q141 0 217 -61t76 -178q0 -78 -84 -169t-220 -169q66 -117 224 -334zM811 250q-205 270 -293 409q-111 -72 -153.5 -142.5t-42.5 -168.5 q0 -129 60 -207t142 -78q84 0 149.5 43.5t137.5 143.5zM553 1071q0 -35 22.5 -95.5t61.5 -115.5q59 47 88 72.5t58.5 67.5t29.5 79q0 84 -31.5 130t-91.5 46q-55 0 -96 -47t-41 -137z" />
<glyph unicode="'" horiz-adv-x="440" d="M201 862l-31 8q-66 328 -66 340q0 41 36 76t98 35q41 0 62.5 -12.5t25.5 -26.5t4 -37l-76 -371z" />
<glyph unicode="(" horiz-adv-x="692" d="M90 516q0 248 138.5 506t334.5 426l66 -57q-291 -328 -291 -875q0 -543 291 -878l-66 -56q-137 119 -237.5 259.5t-147.5 269.5t-67.5 227t-20.5 178z" />
<glyph unicode=")" horiz-adv-x="692" d="M602 516q0 -248 -138 -506t-335 -426l-66 58q291 328 291 874q0 543 -291 879l66 55q137 -119 237.5 -259t147.5 -269t67.5 -227.5t20.5 -178.5z" />
<glyph unicode="*" horiz-adv-x="886" d="M403 1159q-74 12 -84 10q-70 -18 -117.5 -2.5t-47.5 78.5q0 25 17 45.5t50 20.5q39 0 98.5 -45t96.5 -62q-4 43 -33 102.5t-29 84.5q0 31 24.5 55t53.5 24q31 0 56.5 -18t25.5 -53q0 -29 -24.5 -96.5t-26.5 -98.5q41 18 93 64.5t89 46.5q41 0 60.5 -23.5t19.5 -46.5 q0 -82 -141 -82q-74 0 -111 -6q25 -27 73 -51.5t74.5 -50t26.5 -72.5q0 -27 -20.5 -43t-44.5 -16q-45 0 -69 31.5t-42 90t-35 84.5q-16 -31 -30.5 -90t-37 -87.5t-75.5 -28.5q-27 0 -43.5 17t-16.5 40q0 49 27 74.5t72.5 50t70.5 53.5z" />
<glyph unicode="+" horiz-adv-x="1064" d="M594 537h348v-123h-348v-348h-123v348h-348v123h348v350h123v-350z" />
<glyph unicode="," horiz-adv-x="503" d="M111 104v11q29 88 127 127h10q150 -55 149 -246q0 -119 -85 -208t-197 -110q-10 8 -13.5 34t2.5 44q84 23 132.5 77t48.5 99q0 41 -10.5 52.5t-36.5 11.5q-59 12 -87 32.5t-40 75.5z" />
<glyph unicode="-" horiz-adv-x="712" d="M575 453h-462q-12 0 -21.5 15t-9.5 30q0 27 17.5 65.5t33.5 38.5h469q29 0 29 -47q0 -20 -19 -61t-37 -41z" />
<glyph unicode="." horiz-adv-x="503" d="M123 98v11q37 90 129 127h8q94 -33 129 -127v-11q-20 -57 -49 -85.5t-80 -41.5h-8q-57 12 -85 40t-44 87z" />
<glyph unicode="/" horiz-adv-x="700" d="M639 1323l-485 -1444h-123l485 1444h123z" />
<glyph unicode="0" d="M508 -20q-207 0 -317.5 178t-110.5 442q0 289 131 469t305 180t301 -171t127 -457q0 -172 -39 -301.5t-103.5 -201t-138 -105t-155.5 -33.5zM516 1159q-39 0 -69.5 -21.5t-61.5 -77.5t-47 -178t-16 -302q0 -510 188 -510q193 0 192 589q0 102 -5 175t-22.5 155t-57.5 126 t-101 44z" />
<glyph unicode="1" d="M735 387q0 -223 25 -387l-4 -6q-70 6 -144 6l-139 -6l-2 6q23 139 23 387v500q0 133 -37 133q-133 0 -224 -12l-4 88q129 29 514 153q14 0 15 -10q-23 -158 -23 -334v-518z" />
<glyph unicode="2" d="M463 1139q-160 0 -258 -174l-49 2l-43 161l6 9q43 39 150.5 75.5t209.5 36.5q193 0 314.5 -82t121.5 -239q0 -106 -45 -176t-151 -172l-205 -199q-137 -133 -137 -176h168q115 0 381 18q-12 -53 -13 -135q0 -43 13 -96q-205 8 -357 8q-109 0 -489 -8l-2 8q0 86 59.5 169 t222.5 251l152 149q82 84 104.5 163t22.5 198q0 88 -57.5 148.5t-118.5 60.5z" />
<glyph unicode="3" d="M436 84q33 0 67 11t71.5 38t61 86.5t23.5 142.5q0 240 -225 240q-55 0 -80 -4v94q147 8 215 70.5t68 191.5q0 80 -43 134.5t-105 54.5q-102 0 -151 -40t-107 -140l-49 2l-43 161l6 9q45 39 150.5 76.5t212.5 37.5q158 0 263.5 -63.5t105.5 -198.5q0 -250 -244 -313v-6 q127 -12 215 -87t88 -212q0 -135 -77 -226.5t-186.5 -128.5t-240.5 -37q-104 0 -192 36t-138 79l-8 10l45 162l49 2q35 -63 47.5 -82.5t43 -51.5t66.5 -40t91 -8z" />
<glyph unicode="4" d="M575 1026l-372 -590h372v590zM575 303h-417h-23q-51 0 -70.5 4t-21.5 23l-2 2v9v11q0 6 1 14.5t3 17.5t7 19.5t14 20.5q88 119 262 387t264 420l2 6q25 -6 100 -6l137 6l5 -6q-20 -154 -21 -305v-490h148q29 0 28 -41q0 -23 -18.5 -57.5t-38.5 -34.5h-119q0 -150 21 -303 l-5 -6q-63 6 -137 6l-141 -6l-2 6q24 176 24 303z" />
<glyph unicode="5" d="M455 -23q-104 0 -193.5 36t-138.5 79l-6 10l43 162l49 2q55 -98 109.5 -142t140.5 -44q78 0 136 72.5t58 212.5q0 137 -51 214.5t-145 77.5q-104 0 -224 -49l-45 15l68 616q143 -12 229 -12q166 0 379 22l13 -6l-31 -203q-125 -12 -256 -12q-98 0 -238 16l-30 -299 q90 33 188 33q168 0 280.5 -111.5t112.5 -265.5q0 -195 -129 -309.5t-319 -114.5z" />
<glyph unicode="6" d="M332 586q-4 -49 -4 -94q0 -248 56 -334t155 -86q61 0 106 71.5t45 210.5q0 43 -1 71t-12 74t-29.5 73.5t-57.5 49t-94 21.5q-94 0 -164 -57zM346 684q82 55 193 55q217 0 312 -109.5t95 -260.5q0 -150 -106.5 -269.5t-311.5 -119.5q-156 0 -256 65q-195 125 -194 453 q0 121 50 248.5t145.5 242.5t255 187.5t354.5 72.5l6 -75q-43 -4 -67.5 -7.5t-81 -16.5t-94.5 -31.5t-91 -56.5t-89 -86t-70 -124t-50 -168z" />
<glyph unicode="7" d="M727 1047q-190 0 -565 -21q10 76 10 111q0 27 -10 104q100 -14 614 -14q70 0 131 16l29 -41q-289 -700 -463 -1220l-180 -9l-6 15q155 350 440 1059z" />
<glyph unicode="8" d="M508 61q98 0 154.5 47.5t56.5 180.5q0 88 -35 140t-131 112l-94 57q-88 -61 -116 -134t-28 -165q0 -106 59.5 -172t133.5 -66zM891 991q0 -94 -62.5 -158.5t-193.5 -115.5l127 -82q84 -55 138 -137t54 -168q0 -182 -163 -285q-106 -66 -287 -65q-178 0 -299 85t-121 234 q0 111 76 192.5t225 155.5l-37 21q-197 123 -196 290q0 135 96 213t287 78q172 0 264 -68.5t92 -189.5zM522 1167q-152 0 -151 -170q0 -113 127 -192l61 -39q117 86 117 209q0 192 -154 192z" />
<glyph unicode="9" d="M717 641q4 49 4 94q0 248 -56.5 334t-154.5 86q-61 0 -106.5 -71.5t-45.5 -211.5q0 -43 1 -70.5t12.5 -73.5t30 -73.5t57.5 -49t94 -21.5q94 0 164 57zM702 543q-82 -55 -192 -56q-217 0 -312.5 110t-95.5 261q0 150 106.5 269.5t311.5 119.5q156 0 256 -65 q195 -125 195 -453q0 -121 -50.5 -249t-145.5 -242.5t-255 -187.5t-354 -73l-6 76q43 4 67.5 7t81 16.5t94 32t91 56.5t89 86t69.5 124t50 168z" />
<glyph unicode=":" horiz-adv-x="503" d="M137 199v10q37 90 129 127h8q94 -33 129 -127v-10q-20 -57 -48.5 -86t-80.5 -41h-8q-57 12 -85 40t-44 87zM137 737v11q37 90 129 126h8q94 -33 129 -126v-11q-20 -57 -48.5 -85.5t-80.5 -41.5h-8q-57 12 -85 40t-44 87z" />
<glyph unicode=";" horiz-adv-x="503" d="M111 104v11q29 88 127 127h10q150 -55 149 -246q0 -119 -85 -208t-197 -110q-10 8 -13.5 34t2.5 44q84 23 132.5 77t48.5 99q0 41 -10.5 52.5t-36.5 11.5q-59 12 -87 32.5t-40 75.5zM117 737v11q37 90 129 126h8q94 -33 129 -126v-11q-20 -57 -49 -85.5t-80 -41.5h-8 q-57 12 -85 40t-44 87z" />
<glyph unicode="&#x3c;" horiz-adv-x="1048" d="M313 492l652 -238v-127l-879 319v91l879 319v-127z" />
<glyph unicode="=" horiz-adv-x="1128" d="M1010 668v-123h-889v123h889zM1010 406v-123h-889v123h889z" />
<glyph unicode="&#x3e;" horiz-adv-x="1048" d="M735 487l-649 238v127l879 -322v-90l-879 -317v127z" />
<glyph unicode="?" horiz-adv-x="868" d="M244 98v11q37 90 129 127h8q94 -33 129 -127v-11q-20 -57 -49 -85.5t-80 -41.5h-8q-57 12 -85 40t-44 87zM399 1249q-141 0 -252 -192l-26 2l-33 155l6 9q152 127 324 127q160 0 268.5 -86t108.5 -224q0 -39 -14.5 -76.5t-29 -61t-51 -58.5t-50 -46.5t-60.5 -44 t-51 -34.5q-37 -27 -59.5 -51.5t-43 -76.5t-20.5 -124v-80q0 -10 -17.5 -20.5t-30 -10.5t-29.5 10.5t-17 20.5v84q0 184 157 330q55 51 69.5 98t14.5 133q0 217 -164 217z" />
<glyph unicode="@" horiz-adv-x="2023" d="M1311 154q0 -29 37 -29q31 0 79 27.5t99 78t87 138.5t36 190q0 129 -41 238.5t-106.5 181.5t-148.5 122t-164 72.5t-157 22.5q-121 0 -235.5 -48t-208.5 -137t-150.5 -231.5t-56.5 -312.5q0 -94 22.5 -190.5t75.5 -191.5t130 -169t196 -119t262 -45q244 0 430 154 q35 -12 43 -60q-115 -88 -226.5 -131t-285.5 -43q-367 0 -603.5 216t-236.5 565q0 213 105.5 399t306.5 303t451 117q342 0 557 -194.5t215 -489.5q0 -215 -156 -382t-360 -167q-96 0 -138.5 37t-42.5 80q-102 -94 -217 -95q-84 0 -140 28t-79.5 74t-32 83t-8.5 78 q0 215 150.5 370.5t335.5 155.5q129 0 192 -78l76 68l55 -23l-121 -528q-26 -117 -26 -135zM1241 655q0 53 -30.5 90t-69.5 37q-92 0 -166 -80q-127 -137 -127 -366q0 -188 115 -189q53 0 116.5 63.5t102.5 184.5q59 197 59 260z" />
<glyph unicode="A" horiz-adv-x="1394" d="M410 449q-119 -295 -162 -455q-25 6 -92 6q-90 0 -115 -6l604 1354h143l198 -484l223 -549q95 -231 141 -321q-35 6 -166 6q-111 0 -146 -6q-49 178 -153 457q-123 2 -203 2q-116 0 -272 -4zM655 1024l-196 -459q23 0 101.5 -2t111.5 -2q63 0 170 2z" />
<glyph unicode="B" horiz-adv-x="1320" d="M342 1321q61 0 160.5 3t130.5 3q135 0 234.5 -29.5t150.5 -79t74.5 -100.5t23.5 -108q0 -82 -54 -158t-136 -115q311 -90 311 -360q0 -152 -139.5 -267.5t-419.5 -115.5q-98 0 -187.5 3t-148.5 3l-149 -6l-3 6q20 139 21 410v501q0 264 -21 410l5 6q77 -6 147 -6z M461 659v-460q0 -53 37 -75t141 -22q193 0 251 55.5t58 180.5q0 154 -64.5 237.5t-232.5 83.5h-190zM461 1126v-358h160q131 0 181 45t50 172q0 143 -51 188.5t-154 45.5q-119 0 -152.5 -20t-33.5 -73z" />
<glyph unicode="C" horiz-adv-x="1374" d="M791 1348q111 0 222 -24t169 -46l55 -23l4 -6q-31 -131 -41 -266l-20 -2q-61 125 -170 188.5t-248 63.5q-68 0 -133.5 -28.5t-126 -89t-97 -172.5t-36.5 -259q0 -113 23.5 -213t71.5 -185t129 -134.5t187 -49.5q145 0 233.5 37t203.5 146l49 -70q-123 -127 -251 -181 t-274 -54q-160 0 -288.5 57t-209.5 152.5t-124 212t-43 243.5q0 168 66.5 312.5t187.5 238.5q195 152 461 152z" />
<glyph unicode="D" horiz-adv-x="1538" d="M338 1321q76 0 190.5 3t190.5 3q297 0 514 -206t217 -490q0 -145 -45 -259t-115.5 -182.5t-165 -113.5t-184.5 -62.5t-184 -17.5q-111 0 -226.5 2t-191.5 2l-150 -6l-2 6q20 139 21 410v501q0 264 -21 410l4 6q78 -6 148 -6zM461 186q0 -51 42 -66.5t189 -15.5 q119 0 196 17.5t141.5 66t94 145.5t29.5 249q0 104 -10 188t-43 171t-87.5 145.5t-148.5 95.5t-223 37q-88 0 -134 -16.5t-46 -65.5v-951z" />
<glyph unicode="E" horiz-adv-x="1155" d="M451 410q0 -225 16 -281q123 0 269.5 6t230.5 12l86 7l4 -9q-4 -33 -4 -71q0 -16 4 -74l-4 -6q-49 6 -123 6h-602l-150 -6l-2 6q20 139 21 410v501q0 264 -21 410l4 6q78 -6 148 -6h581q74 0 123 6l4 -6q-4 -57 -4 -72q0 -31 4 -63l-4 -8q-291 25 -565 24 q-16 -55 -16 -291v-159q223 0 464 20l7 -6q-6 -29 -7 -66q0 -41 7 -67l-7 -6q-203 20 -464 20v-237z" />
<glyph unicode="F" horiz-adv-x="1062" d="M907 1321q80 0 129 6l4 -6q-4 -57 -4 -72q0 -31 4 -63l-4 -8q-291 25 -565 24q-16 -55 -16 -291v-159q223 0 465 20l6 -6q-6 -29 -6 -66q0 -41 6 -67l-6 -6q-203 20 -465 20v-237q0 -264 20 -410l-4 -6q-70 6 -139 6l-150 -6l-2 6q20 139 21 410v501q0 264 -21 410l4 6 q78 -6 148 -6h575z" />
<glyph unicode="G" horiz-adv-x="1536" d="M1118 240q0 244 -20 389l4 6q78 -6 147 -6l150 6l2 -6q-20 -135 -21 -348q0 -86 21 -111v-6q-102 -86 -265 -135t-343 -49q-201 0 -366 88t-256 236.5t-91 324.5q0 174 61.5 315t175.5 234q213 170 506 170q244 -2 490 -93l4 -6q-31 -131 -41 -266l-41 -2 q-61 123 -179 187.5t-261 64.5q-203 0 -318 -155.5t-115 -407.5q0 -145 46.5 -271.5t159 -216.5t272.5 -90q197 0 278 78v70z" />
<glyph unicode="H" horiz-adv-x="1531" d="M1047 911q0 264 -21 410l4 6q74 -6 144 -6l145 6l2 -6q-20 -135 -21 -410v-501q0 -264 21 -410l-4 -6q-74 6 -143 6l-146 -6l-2 6q20 139 21 410v227h-582v-227q0 -264 20 -410l-4 -6q-74 6 -143 6l-145 -6l-3 6q20 139 21 410v501q0 264 -21 410l5 6q74 -6 143 -6l145 6 l2 -6q-20 -135 -20 -410v-168h582v168z" />
<glyph unicode="I" horiz-adv-x="677" d="M217 911q0 264 -20 410l4 6q74 -6 143 -6l145 6l3 -6q-20 -135 -21 -410v-501q0 -264 21 -410l-5 -6q-74 6 -143 6l-145 -6l-2 6q20 139 20 410v501z" />
<glyph unicode="J" horiz-adv-x="722" d="M287 195v716q0 264 -21 410l4 6q78 -6 148 -6l141 6l2 -6q-20 -135 -20 -410v-671q0 -197 -18.5 -277t-102.5 -178q-135 -156 -410 -156q-84 0 -112 19l-2 6q10 18 20 54t21.5 88t15.5 65l43 2q51 -92 119 -92q57 0 94 37.5t52 109.5t20.5 131.5t5.5 145.5z" />
<glyph unicode="K" horiz-adv-x="1472" d="M217 911q0 264 -20 410l4 6q74 -6 143 -6l145 6l3 -6q-20 -135 -21 -410v-196q27 2 45 18q63 55 139 135l127 139l144 165l133 155q27 -6 162 -6q113 0 145 6q-158 -137 -342 -314t-281 -288v-4l643 -727q-39 6 -167 6q-154 0 -189 -6l-190 243l-206 265 q-87 111 -124 147q-12 10 -39 15v-254q0 -264 21 -410l-5 -6q-74 6 -143 6l-145 -6l-2 6q20 139 20 410v501z" />
<glyph unicode="L" horiz-adv-x="1163" d="M465 410q0 -209 16 -265q123 0 269.5 6.5t232.5 12.5l84 6l4 -8q-4 -33 -4 -76q0 -29 4 -86l-4 -6q-49 6 -123 6h-602l-149 -6l-3 6q20 139 21 410v501q0 250 -23 410l5 6q72 -6 141 -6l149 6l2 -6q-20 -135 -20 -410v-501z" />
<glyph unicode="M" horiz-adv-x="1824" d="M313 1356h125q346 -715 490 -985l532 985h121l50 -447l57 -505q25 -212 53 -410q-31 6 -125 6q-90 0 -121 -6q-53 651 -94 975l-72 -132l-77 -143l-68 -129l-76 -144l-66 -131l-71 -149l-64 -141h-71q-78 166 -451 899l-41 -305.5t-46 -371.5t-15 -228q-23 6 -99 6 q-78 0 -100 -6q118 647 229 1362z" />
<glyph unicode="N" horiz-adv-x="1548" d="M207 911q0 264 -21 410l4 6q76 -6 146 -6l70 4l702 -909q82 -106 84 -109q18 -16 20 19q2 14 2 39v546q0 264 -20 410l-37 6q84 -6 133 -6q20 0 33.5 1t15.5 3l4 2l43 -6q-20 -135 -20 -410v-868q0 -27 -28.5 -45t-55.5 -18q-80 0 -128 25.5t-120 115.5l-641 811 q-25 31 -43 61h-2q8 -43 8 -94v-489q0 -264 21 -410l-4 -6q-43 6 -92 6l-93 -6l-2 6q20 135 21 410v501z" />
<glyph unicode="O" horiz-adv-x="1595" d="M1489 674q0 -313 -185.5 -503.5t-508.5 -190.5q-303 0 -496 183t-193 472q0 307 189.5 510t497.5 203q324 0 510 -183.5t186 -490.5zM766 1239q-164 0 -267.5 -134t-103.5 -435q0 -283 123 -432.5t318 -149.5q178 0 271 137t93 410q0 315 -107.5 459.5t-326.5 144.5z" />
<glyph unicode="P" horiz-adv-x="1153" d="M190 911q0 264 -20 410l4 6q74 -6 143 -6q33 0 155 7t146 7q229 0 330 -69q143 -100 144 -271q0 -70 -28 -140.5t-85 -135t-159.5 -105.5t-235.5 -41q-80 0 -144 21v-184q0 -264 21 -410l-4 -6q-70 6 -140 6l-145 -6l-2 6q20 139 20 410v501zM440 1157v-471 q39 -20 162 -20q102 0 161.5 71.5t59.5 220.5q0 168 -57 228.5t-162 60.5q-102 0 -133 -20.5t-31 -69.5z" />
<glyph unicode="Q" horiz-adv-x="1595" d="M1004 4q-98 -25 -209 -24q-303 0 -496 183t-193 472q0 307 189.5 510t497.5 203q324 0 510 -183.5t186 -490.5q0 -197 -76 -349.5t-217 -240.5q6 -4 58 -35l71 -41l70 -38q51 -28 84.5 -44t83 -36.5t96.5 -36.5v-13q-63 -35 -193 -135q-100 57 -213.5 141t-248.5 158z M766 1239q-78 0 -141.5 -29.5t-116.5 -93t-83 -177.5t-30 -269q0 -283 123 -432.5t318 -149.5q178 0 271 137t93 410q0 315 -107.5 459.5t-326.5 144.5z" />
<glyph unicode="R" horiz-adv-x="1325" d="M461 594v-184q0 -264 20 -410l-4 -6q-74 6 -143 6l-141 -6l-3 6q20 137 21 410v501q0 264 -21 410l5 6q78 -6 147 -6q33 0 153.5 7t145.5 7q260 0 367 -69q133 -86 133 -277q0 -276 -310 -358q51 -63 227.5 -313t235.5 -318l-4 -6q-41 6 -149 6q-121 0 -160 -6 q-31 96 -219 366q-111 156 -182 236q-56 -2 -119 -2zM643 1247q-102 0 -142 -25.5t-40 -74.5v-453h110q82 0 131.5 10.5t89 40t56 89t16.5 153.5q0 88 -15 142.5t-49 79t-68 31.5t-89 7z" />
<glyph unicode="S" horiz-adv-x="1069" d="M512 86q213 0 213 223q0 119 -41 177.5t-137 97.5q-90 35 -149.5 64.5t-134.5 79.5t-113.5 116.5t-38.5 148.5q0 158 125.5 256.5t306.5 98.5q111 0 203 -22.5t126 -47.5l37 -23l4 -6q-23 -78 -41 -235l-20 -2q-45 100 -133 167.5t-195 67.5q-84 0 -130 -52t-46 -146 q0 -180 230 -263q61 -23 109 -43t107.5 -57t98.5 -78t65.5 -100t26.5 -127q0 -168 -128 -284.5t-363 -116.5q-111 0 -214.5 22.5t-152.5 46.5l-47 23l-4 6q25 92 41 239l20 2q43 -96 153.5 -164.5t221.5 -68.5z" />
<glyph unicode="T" horiz-adv-x="1191" d="M469 893q0 233 -16 289q-123 0 -227.5 -6.5t-147.5 -12.5l-43 -6l-4 8q4 28 4 67t-4 89l4 6q49 -6 123 -6h876q74 0 123 6l4 -6q-4 -50 -4 -89t4 -67l-4 -8q-143 25 -418 25q-16 -55 -16 -289v-483q0 -264 20 -410l-4 -6q-74 6 -143 6l-145 -6l-2 6q20 139 20 410v483z " />
<glyph unicode="U" horiz-adv-x="1431" d="M1079 911q0 264 -20 410l4 6q55 -6 104 -6l105 6l2 -6q-20 -135 -21 -410v-307q0 -625 -561 -624q-90 0 -172 21.5t-164 72.5t-131 156.5t-49 252.5v428q0 264 -20 410l4 6q70 -6 139 -6l150 6l2 -6q-20 -135 -21 -410v-360q0 -51 2 -88t10.5 -95.5t29 -99.5t52 -82 t86 -62.5t125.5 -21.5q90 0 155.5 28t101.5 69t56.5 107.5t25.5 123.5t5 137v344z" />
<glyph unicode="V" horiz-adv-x="1335" d="M705 367q313 723 376 960q25 -6 146 -6q47 0 71 6l-604 -1347h-100l-197 480l-224 547q-95 228 -140 320q35 -6 166 -6q121 0 155 6q118 -409 351 -960z" />
<glyph unicode="W" horiz-adv-x="2033" d="M1403 365q313 719 377 962q25 -6 104 -6q88 0 113 6l-604 -1347h-101l-264 647l-291 -647h-143l-197 480l-224 547q-95 228 -140 320q35 -6 166 -6q111 0 145 6q117 -412 385 -1030l221 520q-162 395 -219 510q35 -6 166 -6q121 0 156 6q117 -405 350 -962z" />
<glyph unicode="X" horiz-adv-x="1255" d="M1200 -6q-37 6 -162 6t-161 -6q-158 305 -295 534q-182 -283 -320 -534q-23 6 -86 6q-106 0 -129 -6l455 668l-424 665q35 -6 157.5 -6t159.5 6q68 -141 256 -448q166 242 279 448q23 -6 129 -6q63 0 86 6l-414 -577z" />
<glyph unicode="Y" horiz-adv-x="1296" d="M770 586q4 -457 16 -592q-33 6 -149 6q-115 0 -148 -6q14 131 15 569q-63 111 -238.5 394.5t-232.5 369.5q35 -6 159.5 -6t159.5 6l83 -156q46 -84 77 -135l93 -157l85 -146q209 332 336 594q25 -6 129 -6q59 0 86 6l-133 -202l-118 -179l-86 -134q-48 -75 -78.5 -127 t-55.5 -99z" />
<glyph unicode="Z" horiz-adv-x="1280" d="M385 129q119 0 323.5 5t350.5 11l145 7l4 -7q-4 -33 -4 -67q0 -20 4 -78l-4 -6q-49 6 -145 6h-785l-264 -6l-6 8q12 16 30.5 44t22.5 32l803 1116l-737 -25l-4 7q4 33 4 67q0 20 -4 78l4 6q49 -6 125 -6h706q166 0 258 12q12 0 13 -12q0 -25 -62 -111l-516 -714 q-262 -361 -262 -367z" />
<glyph unicode="[" horiz-adv-x="796" d="M225 -393v1833h498v-80q-111 -8 -166 -18.5t-88 -38t-40 -63.5t-7 -110v-1214q0 -74 6 -108.5t39 -63.5t89 -40t167 -19v-78h-498z" />
<glyph unicode="\" horiz-adv-x="641" d="M166 1430l471 -1528h-143l-471 1528h143z" />
<glyph unicode="]" horiz-adv-x="796" d="M571 1440v-1833h-497v80q111 8 166 18t87.5 38t40 63.5t7.5 109.5v1214q0 74 -6.5 109t-39 63.5t-89 40t-166.5 19.5v78h497z" />
<glyph unicode="^" horiz-adv-x="1060" d="M530 1165l-184 -456h-117l260 622h86l259 -622h-117z" />
<glyph unicode="_" horiz-adv-x="995" d="M987 -211v-104h-977v104h977z" />
<glyph unicode="`" horiz-adv-x="802" d="M406 1438l141 -254q18 -33 18 -54q0 -14 -10 -23t-25 -9q-25 0 -71 41l-248 215l4 22q18 20 59 43t91 23q25 0 41 -4z" />
<glyph unicode="a" horiz-adv-x="974" d="M813 164q0 -47 27.5 -60.5t97.5 -13.5q16 -14 20 -43q-88 -68 -202 -67q-63 0 -106.5 33.5t-55.5 84.5h-4q-131 -119 -260 -118q-113 0 -186.5 59t-73.5 162q0 104 93 189t243 122l178 43q12 4 12 25q0 115 -35 161.5t-106 46.5q-141 0 -232 -161l-47 2l-41 153l6 9 q45 39 138.5 73.5t193.5 34.5q174 0 266 -82q82 -74 82 -250q0 -6 -4 -187t-4 -216zM596 455l-164 -43q-78 -20 -98.5 -65.5t-20.5 -127.5q0 -45 27 -81t70 -36q82 0 151 70q10 10 20.5 41t10.5 51z" />
<glyph unicode="b" horiz-adv-x="1126" d="M395 1024v-238q90 68 147.5 90.5t125.5 22.5q158 0 268.5 -102.5t110.5 -300.5q0 -125 -45.5 -226.5t-119 -163t-158.5 -94t-173 -32.5q-150 0 -229 106q-84 -76 -107 -111q-43 0 -72 19q10 53 11 151v826q0 272 -21 385l4 6q111 8 260 68q18 0 19 -21q-21 -164 -21 -385 zM395 184q18 -45 70.5 -73.5t103.5 -28.5q86 0 158 103.5t72 269.5q0 150 -50.5 232.5t-142.5 82.5q-98 0 -211 -80v-506z" />
<glyph unicode="c" horiz-adv-x="913" d="M561 795q-104 0 -167.5 -87t-63.5 -241t65 -260q29 -45 77 -78t91 -33q160 0 230 84h32q0 -45 11 -90q-72 -61 -142.5 -85.5t-185.5 -24.5q-190 0 -311 131q-111 121 -111 303q0 236 123 360.5t334 124.5q74 0 165 -20.5t140 -47.5l4 -6l-49 -198l-37 -2 q-80 170 -205 170z" />
<glyph unicode="d" horiz-adv-x="1148" d="M758 131q-84 -80 -147.5 -115.5t-145.5 -35.5q-174 0 -274.5 121.5t-100.5 314.5q0 240 176 377q137 106 340 106q72 0 152 -45v117q0 272 -21 385l4 6q111 8 260 68q18 0 19 -21q-20 -164 -21 -385v-631q0 -207 35 -393l-4 -6q-39 6 -129 6q-63 0 -110 -6q-18 0 -19 6 l-10 131h-4zM758 242v426q-39 63 -83 91.5t-112 28.5q-94 0 -161.5 -74.5t-67.5 -260.5q0 -338 205 -338q63 0 113.5 28.5t105.5 98.5z" />
<glyph unicode="e" horiz-adv-x="940" d="M817 219q41 -23 41 -72q-57 -78 -156.5 -122.5t-212.5 -44.5q-213 0 -316 121.5t-103 306.5q0 219 129 355t288 136q190 0 283.5 -111.5t93.5 -275.5q0 -35 -37 -35h-520q0 -207 60.5 -282.5t162.5 -75.5q195 0 287 100zM311 567h275q29 0 28 49q0 182 -129 183 q-57 0 -109.5 -55.5t-64.5 -176.5z" />
<glyph unicode="f" horiz-adv-x="708" d="M332 1288q135 141 364 142q63 0 92 -19l3 -6q-10 -16 -18.5 -55t-16.5 -85t-13 -67l-41 -2q-16 29 -26 44t-34 31.5t-50 16.5q-82 0 -126 -52t-44 -140q0 -23 5 -96.5t5 -100.5v-20h221q16 0 17 -13v-55q0 -27 -47 -27h-191v-374q0 -274 17 -410l-5 -6q-63 6 -133 6 l-133 -6l-2 6q14 104 14 410v374h-135q-10 0 -10 13v41q0 41 47 41h98v61q1 201 142 348z" />
<glyph unicode="g" horiz-adv-x="1067" d="M338 -31q-70 -72 -70 -182q0 -92 70 -140t139 -48q131 0 216 60t85 155q0 51 -21.5 82.5t-63.5 46t-78.5 18.5t-90.5 4q-10 0 -59 -1t-84 -1q-10 0 -25.5 3t-17.5 3zM647 571q0 248 -170 248q-72 0 -103.5 -59.5t-31.5 -141.5q0 -117 32 -182t124 -65q61 0 105 50t44 150 zM885 592q0 -141 -103.5 -222t-283.5 -81q-27 0 -49.5 1t-36 3t-26.5 6t-18.5 5t-16.5 6t-13 7q-29 -45 -29 -98q0 -59 33 -78.5t86 -19.5q4 0 13.5 1t25.5 3q78 10 129 10q418 0 418 -274q0 -104 -95.5 -186.5t-228.5 -122t-270 -39.5q-61 0 -119.5 12t-113 36.5t-88 73 t-33.5 111.5q0 102 45 160q29 16 73.5 47t61.5 41q-51 14 -93 56t-42 102q0 49 45 99t106 87l-57 37q-31 25 -49.5 45t-37 65t-18.5 103q0 145 104.5 228t274.5 83q86 0 142 -18q53 4 182 9t184 9l6 -6q-6 -29 -6 -59q0 -29 6 -56l-6 -6q-25 2 -98.5 9t-108.5 10 q47 -33 76 -89.5t29 -109.5z" />
<glyph unicode="h" horiz-adv-x="1183" d="M176 971q0 272 -20 385l4 6q111 8 260 68q18 0 18 -21q-20 -164 -20 -385v-127l-8 -188l8 -4q152 195 309 194q135 0 206 -81t71 -222v-227q0 -240 20 -369l-4 -6q-68 6 -137 6l-131 -6l-2 6q12 109 12 369v182q0 190 -107 190q-113 0 -237 -163v-209q0 -229 12 -369 l-4 -6q-59 6 -129 6l-139 -6l-2 6q20 129 20 369v602z" />
<glyph unicode="i" horiz-adv-x="606" d="M184 481q0 250 -20 361l4 6q162 12 260 51q18 0 18 -20q-20 -156 -20 -365v-145q0 -223 20 -369l-4 -6q-68 6 -137 6l-139 -6l-2 6q20 139 20 369v112zM172 1214.5q0 55.5 39 94.5t94 39t94 -39t39 -94.5t-39 -94.5t-94 -39t-94 39t-39 94.5z" />
<glyph unicode="j" horiz-adv-x="655" d="M236 -111q0 8 -1.5 40t-3.5 100.5t-2 167.5v284q0 250 -20 361l4 6q162 12 260 51q18 0 19 -20q-20 -156 -21 -365v-455q0 -264 -84 -383q-45 -66 -154.5 -98.5t-216.5 -32.5q-90 0 -118 17l-2 6q12 20 19 105t13 106l41 2q53 -96 123 -96q72 0 108 43.5t36 160.5z M217 1214.5q0 55.5 39 94.5t94.5 39t94 -39t38.5 -94.5t-38.5 -94.5t-94 -39t-94.5 39t-39 94.5z" />
<glyph unicode="k" horiz-adv-x="1118" d="M166 410v561q0 272 -21 385l5 6q111 8 260 68q18 0 18 -21q-20 -164 -20 -385v-528q39 8 67 28q61 47 156.5 153.5t161.5 201.5q225 0 264 6l4 -6q-59 -51 -132 -125l-154 -162l-97 -105q248 -299 426 -487l-4 -6q-31 6 -172 6q-111 0 -164 -6l-89 125l-78 108l-62.5 79 t-88.5 100q-14 12 -38 16v-12q0 -272 20 -410l-4 -6q-68 6 -137 6l-140 -6l-2 6q21 129 21 410z" />
<glyph unicode="l" horiz-adv-x="593" d="M176 410v561q0 272 -20 385l4 6q111 8 260 68q18 0 18 -21q-20 -164 -20 -385v-614q0 -272 20 -410l-4 -6q-68 6 -137 6l-139 -6l-2 6q20 129 20 410z" />
<glyph unicode="m" horiz-adv-x="1699" d="M1305 369v190q0 182 -113 182q-61 0 -106.5 -25.5t-116.5 -105.5q2 -25 2 -61v-180q0 -223 20 -369l-4 -6q-59 6 -129 6l-139 -6l-2 6q20 139 20 369v206q0 98 -28.5 132t-92.5 34q-78 0 -210 -161v-211q0 -223 20 -369l-4 -6q-68 6 -137 6l-140 -6l-2 6q20 139 21 369 v112q0 250 -21 361l4 6q156 12 254 51q18 0 19 -20l-23 -168l9 -9q63 82 146 139.5t155 57.5q182 0 249 -170q88 92 158 131t148 39q285 0 284 -326v-204q0 -223 21 -369l-4 -6q-68 6 -138 6l-139 -6l-2 6q21 140 21 369z" />
<glyph unicode="n" horiz-adv-x="1171" d="M991 369q0 -240 21 -369l-4 -6q-68 6 -138 6l-131 -6l-2 6q12 109 13 369v182q0 190 -107 190q-113 0 -237 -163v-209q0 -229 12 -369l-4 -6q-59 6 -129 6l-140 -6l-2 6q20 129 21 369v112q0 248 -21 361l4 6q154 12 254 51q18 0 19 -20l-23 -168l9 -6q152 195 309 194 q135 0 205.5 -81t70.5 -222v-227z" />
<glyph unicode="o" horiz-adv-x="1089" d="M535 797q-84 0 -129.5 -49.5t-55.5 -113t-10 -167.5q0 -385 233 -385q176 0 177 301q0 223 -45 318.5t-170 95.5zM78 420q0 213 127 346t344 133q125 0 218 -41t144.5 -110.5t76 -147.5t24.5 -162q0 -180 -123 -319t-344 -139q-217 0 -342 130t-125 310z" />
<glyph unicode="p" horiz-adv-x="1155" d="M164 -66v547q0 248 -21 361l4 6q154 12 254 51q18 0 19 -20l-23 -168l9 -6q127 195 290 194q139 0 232 -74q145 -117 145 -344q0 -213 -136 -357t-327 -144q-123 0 -213 57v-103q0 -272 21 -409l-4 -6q-63 6 -133 6l-136 -6l-2 6q21 128 21 409zM397 557v-381 q113 -94 217 -94q102 0 151.5 96t49.5 248q0 319 -184 319q-55 0 -128 -55t-106 -133z" />
<glyph unicode="q" horiz-adv-x="1144" d="M752 -66v123q-109 -78 -248 -77q-115 0 -181.5 22.5t-121.5 81.5q-121 131 -121 340q0 197 151.5 336t343.5 139q172 0 267 -82l30 49q10 16 32 27.5t36 11.5q16 0 30.5 -15.5t14.5 -35.5v-920q0 -272 21 -409l-5 -6q-63 6 -133 6l-135 -6l-2 6q21 128 21 409zM752 649 q-84 141 -205 142q-199 0 -199 -326q0 -356 246 -356q86 0 158 55v485z" />
<glyph unicode="r" horiz-adv-x="808" d="M424 719q47 70 118.5 125t137.5 55q35 0 84 -14l8 -8l-41 -201l-16 -4q-49 39 -119 39q-16 0 -41 -8.5t-56.5 -28t-53 -60.5t-21.5 -96v-149q0 -223 20 -369l-4 -6q-78 6 -147 6l-129 -6l-2 6q20 139 20 369v112q0 250 -20 361l4 6q150 10 250 51q18 0 18 -20 q-2 -59 -18 -154z" />
<glyph unicode="s" horiz-adv-x="817" d="M111 231l41 2q45 -88 97 -125.5t122 -37.5q66 0 109.5 35.5t43.5 105.5q0 63 -42 102t-130 64q-102 29 -172.5 99.5t-70.5 172.5q0 104 99 177t238 73q156 0 252 -53l4 -6l-38 -185l-35 -2q-72 154 -187 154q-61 0 -97 -34t-36 -85q0 -61 34 -93t95 -46 q141 -33 221 -101.5t80 -197.5q0 -98 -100 -184t-283 -86q-129 0 -278 55z" />
<glyph unicode="t" horiz-adv-x="696" d="M49 784q-27 0 -26 29q0 23 14 44.5t29 21.5h118q0 121 -14 206l4 7q37 8 82 25.5t94 40t62 26.5q18 0 18 -21q-10 -147 -10 -284h219q16 0 16 -13v-55q0 -27 -49 -27h-186l-4 -227q-2 -113 -2 -289q0 -168 75 -168q70 0 119 25q35 -23 35 -64q-109 -82 -272 -81 q-92 0 -145.5 60t-53.5 140q0 27 1 86.5t3 141t2 127.5l6 249h-135z" />
<glyph unicode="u" horiz-adv-x="1153" d="M733 131q-141 -152 -303 -151q-143 0 -215 80.5t-70 197.5l5 252q1 28 0 57q0 144 -17 312l4 6q66 -6 135 -6l134 6l2 -6q-6 -39 -17 -369l-4 -184v-14q0 -103 29 -138q31 -37 88 -37q76 0 152.5 62.5t76.5 146.5v164q0 254 -14 369l4 6q61 -6 131 -6l137 6l2 -6 q-18 -109 -18 -369v-117q0 -207 35 -393l-4 -6q-39 6 -129 6q-63 0 -111 -6q-18 0 -18 6l-11 131h-4z" />
<glyph unicode="v" horiz-adv-x="1044" d="M408 -6q-209 547 -367 891q33 -6 137 -6q125 0 152 6q133 -422 233 -660h6q66 143 250 660q18 -6 88 -6q78 0 97 6q-260 -557 -398 -891q-18 6 -86 6q-92 0 -112 -6z" />
<glyph unicode="w" horiz-adv-x="1665" d="M412 -8q-188 489 -371 891q33 -6 147 -6q104 0 131 6q133 -420 256 -701h23q86 182 180 439l-116 264q33 -6 137 -6q115 0 141 6q133 -422 234 -660h16q66 143 250 660q18 -6 88 -6q78 0 96 6q-260 -557 -397 -891q-18 6 -86 6q-92 0 -113 -6l-186 475 q-127 -266 -203 -477q-18 6 -121 6q-86 0 -106 -6z" />
<glyph unicode="x" horiz-adv-x="1032" d="M389 424l-8 12l-340 449q33 -6 158 -6q115 0 149 6q76 -125 191 -283q133 172 209 283q23 -6 114 -6q70 0 92 6l-336 -389l29 -39q125 -178 344 -463q-31 6 -143 6q-125 0 -156 -6q-66 102 -217 317l-223 -317q-20 6 -90 6q-92 0 -113 -6l334 422z" />
<glyph unicode="y" horiz-adv-x="1075" d="M578 182v-2h4zM57 885q29 -6 140 -6q102 0 129 6q70 -211 252 -652q125 281 243 652q20 -6 109 -6q68 0 88 6q-88 -178 -315.5 -691t-278.5 -679q-35 10 -100 10q-76 0 -111 -10q131 219 229 446l-6 14q-55 145 -184 454z" />
<glyph unicode="z" horiz-adv-x="929" d="M555 758q-102 -2 -210.5 -7.5t-166.5 -9.5l-57 -6l-4 6q4 33 4 72q0 12 -4 66l4 6q47 -6 115 -6h475q27 0 65.5 3t68 6t32.5 3q10 0 10 -12q-14 -16 -62 -86l-456 -672q246 2 499 22l4 -6q-4 -33 -4 -71q0 -12 4 -66l-4 -6q-45 6 -114 6h-463l-244 -6l-4 20q25 25 43 52z " />
<glyph unicode="{" horiz-adv-x="647" d="M430 1133v-342q0 -131 -36 -190.5t-118 -94.5q88 -37 121 -107.5t33 -203.5v-308q0 -113 39 -185.5t104 -72.5v-63q-174 4 -265 75.5t-91 258.5v338q0 207 -147 241v49q147 43 147 238v369q0 166 93 237.5t263 75.5v-64q-70 -20 -106.5 -72t-36.5 -179z" />
<glyph unicode="|" horiz-adv-x="450" d="M287 -475h-123v1905h123v-1905z" />
<glyph unicode="}" horiz-adv-x="647" d="M217 -121v342q0 131 36 190.5t118 94.5q-88 37 -121 107.5t-33 203.5v307q0 113 -39 185.5t-104 72.5v64q174 -4 265 -76t91 -258v-338q0 -207 148 -242v-49q-147 -43 -148 -237v-369q0 -166 -93 -237.5t-263 -75.5v63q70 20 106.5 72.5t36.5 179.5z" />
<glyph unicode="~" horiz-adv-x="919" d="M53 418q20 106 96 193t166 87q45 0 152 -65q106 -68 149 -68q131 0 185 119l53 -12q-29 -100 -82 -159.5t-91 -73t-73 -13.5q-57 0 -153 68q-96 66 -151.5 65.5t-113 -41.5t-92.5 -106z" />
<glyph unicode="&#xa1;" horiz-adv-x="512" d="M336 780v-10q-37 -90 -129 -127h-8q-94 33 -129 127v10q20 57 48.5 86t80.5 41h8q57 -12 85 -40t44 -87zM217 -469q-51 0 -89 39t-38 111q0 76 25.5 203.5t34.5 191.5q12 96 20 183t10 134t4 56q4 41 33 40q27 0 31 -26q0 -10 6 -78l13 -153q7 -85 16 -156 q8 -68 31.5 -192t23.5 -203q0 -76 -38 -113t-83 -37z" />
<glyph unicode="&#xa2;" horiz-adv-x="983" d="M543 279v622q-82 -10 -131.5 -88t-49.5 -205q0 -139 60 -233q45 -76 121 -96zM543 1184h69v-191q133 -14 217 -57l2 -4l-43 -180l-32 -2q-61 127 -144 149v-623q113 8 166 74h31q0 -41 8 -80q-94 -80 -205 -94v-201h-69v195h-21q-98 0 -161.5 29.5t-118.5 89.5 q-98 109 -99 272q0 209 107.5 320.5t292.5 115.5v187z" />
<glyph unicode="&#xa3;" d="M528 850l9 -131h249q16 0 17 -12v-62q0 -27 -55 -27h-211q0 -115 -33 -202.5t-64.5 -124.5t-83.5 -82h11q111 0 174 -24.5t106 -48t103 -23.5q168 0 237 84l41 -37q-43 -82 -127 -131t-192 -49q-104 0 -206 65.5t-200 65.5q-88 0 -88 -60q0 -39 -27.5 -60.5t-72.5 -21.5 q-35 0 -58.5 18.5t-23.5 45.5q0 51 129 112q84 63 108.5 165t24.5 274v34h-143q-14 0 -15 13v45q0 43 56 43h102v26q0 127 41 208t137 165q152 131 395 131q55 0 97 -18l2 -6q-18 -27 -43 -172l-45 -2q-2 2 -8.5 11t-7.5 11t-7 11.5t-9 11.5t-9.5 9t-11.5 10l-12 7 q-7 4 -13 6t-15.5 3.5t-17.5 1.5q-104 0 -176 -70t-64 -213z" />
<glyph unicode="&#xa4;" horiz-adv-x="948" d="M471 250q-113 0 -205 51l-94 -119l-125 121l109 88q-88 111 -88 221q0 117 90 226q-72 53 -107 84l113 116l102 -112q96 51 209 51q106 0 203 -53q94 111 104 125l119 -125l-113 -93q86 -104 86 -219q0 -104 -83 -217l106 -90l-111 -119l-104 119q-98 -55 -211 -55z M233 614q0 -106 68 -179t170 -73t170 73t68 177q0 106 -71 179t-163 73q-100 0 -171 -73t-71 -177z" />
<glyph unicode="&#xa5;" d="M106 469q-8 0 -10 2t-2 10v41q0 16 11.5 28.5t37.5 12.5h205q-29 47 -171 299t-183 316q33 -6 129 -7q82 0 115 7q78 -184 137 -305t143 -257q29 41 56.5 87.5t46.5 81.5l47 96l43 90l47 104l45 103q23 -6 82 -6.5t84 6.5q-162 -258 -365 -615h281q16 0 16 -12v-55 q0 -27 -51 -27h-250v-129h285q16 0 16 -12v-54q0 -12 -16.5 -20t-34.5 -8h-248q4 -184 10 -252q-31 6 -123 6t-122 -6q8 76 12 252h-273q-8 0 -10 2t-2 10v41q0 16 11.5 28.5t37.5 12.5h238v129h-275z" />
<glyph unicode="&#xa6;" horiz-adv-x="450" d="M287 330v-742h-123v742h123zM287 1380v-741h-123v741h123z" />
<glyph unicode="&#xa7;" horiz-adv-x="1075" d="M270 850q-104 100 -104 207q0 104 113.5 197.5t263.5 93.5q94 0 183 -41t144 -88l7 -11l-35 -168l-29 -4q-49 84 -129 147.5t-160 63.5q-74 0 -112.5 -38t-38.5 -111q0 -72 30.5 -112t110.5 -73q459 -188 459 -464q0 -84 -49.5 -167t-118.5 -137q104 -100 104 -206 q0 -104 -113.5 -197.5t-263.5 -93.5q-94 0 -183 41t-144 88l-6 10l34 168l29 4q49 -84 129 -147.5t160 -63.5q152 0 151 150q0 145 -141 202l-114 50q-46 20 -117.5 64t-115.5 87t-78 108.5t-34 137.5q0 84 49 167t119 136zM344 791q-39 -49 -39 -166q0 -41 11.5 -78 t26.5 -64.5t47 -57.5t54.5 -48.5t65.5 -45t64 -37.5l69 -36q47 -25 88 -53q39 49 39 166q0 41 -11 77.5t-26.5 64.5t-47.5 57.5t-54.5 48t-65.5 45t-64 37.5l-69 36q-47 25 -88 54z" />
<glyph unicode="&#xa8;" horiz-adv-x="817" d="M84 1174q0 49 34 82.5t81 33.5q49 0 82.5 -33.5t33.5 -82.5q0 -47 -33.5 -81t-82.5 -34q-47 0 -81 34t-34 81zM473 1174q0 49 34 82.5t83 33.5q47 0 81 -33.5t34 -82.5q0 -47 -35 -81t-80 -34q-49 0 -83 34t-34 81z" />
<glyph unicode="&#xa9;" horiz-adv-x="1296" d="M649 1141q-215 0 -365.5 -150.5t-150.5 -363.5t150.5 -363.5t365.5 -150.5q213 0 363.5 150.5t150.5 363.5t-150.5 363.5t-363.5 150.5zM649.5 47q-239.5 0 -409.5 170t-170 409.5t170 408.5t409.5 169t408.5 -169t169 -408.5t-169 -409.5t-408.5 -170zM899 442 q-35 -53 -99.5 -92t-142.5 -39q-135 0 -227 91.5t-92 213.5q0 129 95 224.5t229 95.5q82 0 133 -15.5t69 -15.5l29 -160l-41 -8q-29 78 -73 115t-126 37q-76 0 -132 -58.5t-56 -193.5q0 -117 55 -191.5t156 -74.5q115 0 184 102z" />
<glyph unicode="&#xaa;" horiz-adv-x="608" d="M473 733q-35 0 -57.5 24.5t-28.5 55.5q-53 -47 -89 -63.5t-85 -16.5q-66 0 -112 40t-46 104q0 121 211 176l119 30q0 170 -111 170q-51 0 -80.5 -15t-29.5 -40q0 -18 4 -26.5t4 -24.5q0 -14 -13.5 -28.5t-39.5 -14.5q-23 0 -38 14.5t-15 36.5q0 57 71.5 103.5t141.5 46.5 q217 0 217 -234v-153q0 -117 28 -117q14 0 25 10l20 -33q-41 -45 -96 -45zM385 1028q-129 -33 -176 -64.5t-47 -80.5q0 -84 92 -84q55 0 131 67v162z" />
<glyph unicode="&#xab;" horiz-adv-x="1290" d="M649 879l21 -105q-184 -244 -305 -334q123 -86 305 -334l-21 -104q-274 287 -495 399v78q233 150 495 400zM1096 879l20 -105q-147 -205 -321 -334q160 -109 321 -334l-20 -104q-252 264 -512 399v78q307 199 512 400z" />
<glyph unicode="&#xac;" horiz-adv-x="1146" d="M989 272v459h-940v90h1051v-549h-111z" />
<glyph unicode="&#xad;" horiz-adv-x="712" d="M575 453h-462q-12 0 -21.5 15t-9.5 30q0 27 17.5 65.5t33.5 38.5h469q29 0 29 -47q0 -20 -19 -61t-37 -41z" />
<glyph unicode="&#xae;" horiz-adv-x="1296" d="M649 1141q-215 0 -365.5 -150.5t-150.5 -363.5t150.5 -363.5t365.5 -150.5q213 0 363.5 150.5t150.5 363.5t-150.5 363.5t-363.5 150.5zM649.5 47q-239.5 0 -409.5 170t-170 409.5t170 408.5t409.5 169t408.5 -169t169 -408.5t-169 -409.5t-408.5 -170zM770 758 q0 104 -102 104q-82 0 -82 -51v-172h65q55 0 87 23.5t32 95.5zM883 758q0 -113 -119 -152l98 -168q31 -53 88 -43l8 -35q-35 -14 -73 -14q-82 0 -125 72l-98 164q-10 8 -76 8v-148q0 -39 24 -43l29 -4q23 -2 23 -12v-33l-5 -4q-84 4 -120 4l-125 -4l-4 4v35q0 8 20 10l35 4 q27 4 26 43v369q0 51 -47 51h-22q-16 0 -17 10v35l5 4h278q104 0 150.5 -48t46.5 -105z" />
<glyph unicode="&#xaf;" horiz-adv-x="813" d="M645 1083h-500q-25 0 -24 31q0 20 13 40t32 20h500q29 0 28 -29q0 -20 -15.5 -41t-33.5 -21z" />
<glyph unicode="&#xb0;" horiz-adv-x="546" d="M57 1075q0 90 63.5 153.5t154 63.5t152.5 -63.5t62 -153.5q0 -88 -62 -151.5t-152.5 -63.5t-154 63.5t-63.5 151.5zM401 1073q0 53 -33.5 97t-93 44t-94.5 -43t-35 -98q0 -53 36 -94t93.5 -41t92 41t34.5 94z" />
<glyph unicode="&#xb1;" horiz-adv-x="1079" d="M942 152v-123h-819v123h819zM594 711h348v-123h-348v-348h-123v348h-348v123h348v350h123v-350z" />
<glyph unicode="&#xb2;" horiz-adv-x="628" d="M365 815q68 0 178 8q-4 -25 -4 -41t4 -41q-72 4 -166 4h-285q0 117 187 261q76 61 106.5 107t30.5 124q0 63 -36 93t-73 30q-111 0 -110 -60q0 -10 5 -25t5 -24q0 -23 -19.5 -36t-38 -13t-36 15.5t-17.5 33.5q0 53 55.5 105.5t163.5 52.5q90 0 156 -40t66 -130 q0 -66 -44 -121t-139 -123q-135 -96 -135 -180h146z" />
<glyph unicode="&#xb3;" horiz-adv-x="628" d="M385 1278q0 82 -82 82q-39 0 -74.5 -18.5t-38.5 -53.5q-4 -59 -53 -59q-18 0 -29.5 8t-14.5 16.5t-3 12.5q0 23 20.5 53.5t78 60t139.5 29.5q80 0 127 -31.5t47 -89.5q0 -82 -105 -139q61 -6 112.5 -52t51.5 -128q0 -104 -87 -170t-212 -66q-61 0 -121.5 22.5t-60.5 53.5 q0 14 16.5 27.5t32.5 13.5q29 0 53 -29q29 -37 103 -37q49 0 102 38t53 130q0 53 -31.5 85t-63.5 39t-64 7q-8 0 -41 -4l-4 49q70 10 109.5 49.5t39.5 100.5z" />
<glyph unicode="&#xb4;" horiz-adv-x="698" d="M383 1446q12 4 33 4q78 0 116 -49l21 -47l-246 -221q-39 -33 -78 -33q-12 0 -22 9t-10 19q0 25 16 50z" />
<glyph unicode="&#xb5;" horiz-adv-x="1083" d="M666 98q-51 -41 -85 -63.5t-84.5 -41t-103.5 -18.5q-51 0 -94 19q0 -10 1 -83t9 -108q25 -106 25 -147q0 -131 -109 -131q-37 0 -83 41t-46 100q0 51 15 146q20 133 20 180q0 16 -3 52t-3 50q-2 16 -15.5 86t-13.5 101v381l-22 227l241 26q6 -147 7 -213v-395 q0 -100 28.5 -161.5t79.5 -61.5q61 0 130 35t104 82v688l225 29v-660q0 -45 2 -68.5t9 -51t24.5 -40t46 -12.5t45 16.5t18.5 16.5q6 0 16.5 -15.5t10.5 -25.5q0 -8 -22.5 -30.5t-69.5 -45t-99 -22.5q-90 0 -136 28.5t-64 89.5h-4z" />
<glyph unicode="&#xb6;" horiz-adv-x="1232" d="M836 1321l202 6l2 -6q-20 -135 -20 -410v-977q0 -264 20 -409l-4 -6q-133 6 -202 6l-201 -6l-4 6q20 145 20 409v650q-27 -6 -65 -6q-227 0 -347 102t-120 305q0 135 100 237.5t289 102.5q88 0 201 -2t129 -2zM752 1176v-1506q0 -78 82 -78q84 0 84 78v1506q0 78 -84 77 q-82 1 -82 -77z" />
<glyph unicode="&#xb7;" horiz-adv-x="616" d="M309 391q-61 0 -100 41t-39 96.5t42 97.5t97 42q53 0 96.5 -41t43.5 -99q0 -55 -41.5 -96t-98.5 -41z" />
<glyph unicode="&#xb8;" horiz-adv-x="1107" d="M514 -188l-27 26l80 176h92l-41 -104q90 0 132.5 -40t42.5 -89q0 -68 -61.5 -112t-151.5 -44q-82 0 -158 35l31 74q70 -27 116 -27q37 0 65 18.5t28 45.5q0 20 -16.5 37.5t-43.5 17.5q-49 0 -88 -14z" />
<glyph unicode="&#xb9;" horiz-adv-x="628" d="M301 1008v174v42q0 11 -3 24.5t-7 16.5t-15 3q-18 0 -68 -14.5t-73 -26.5l-20 59q205 74 284 123h13q6 0 6 -12q-6 -70 -6 -131v-258q0 -164 14 -263l-2 -4q-18 4 -70 4l-69 -4l-2 4q18 101 18 263z" />
<glyph unicode="&#xba;" horiz-adv-x="714" d="M350 1108q-74 0 -112.5 -60.5t-38.5 -148.5q0 -86 45 -153.5t131 -67.5q55 0 100 41t45 139q0 121 -46 185.5t-124 64.5zM80 879q0 131 75.5 205.5t206.5 74.5q141 0 208 -76.5t67 -191.5q0 -113 -74 -191.5t-211 -78.5q-115 0 -193.5 73.5t-78.5 184.5z" />
<glyph unicode="&#xbb;" horiz-adv-x="1290" d="M641 2l-20 104q184 244 305 334q-123 86 -305 334l20 105q274 -287 496 -400v-78q-234 -149 -496 -399zM195 2l-21 104q147 205 322 334q-160 109 -322 334l21 105q252 -264 512 -400v-78q-307 -198 -512 -399z" />
<glyph unicode="&#xbc;" horiz-adv-x="1351" d="M295 907v174v42q0 11 -3 24.5t-7 16.5t-15 3q-18 0 -68 -14t-73 -27l-20 60q205 74 284 123h13q6 0 6 -13q-6 -70 -6 -131v-258q0 -164 14 -262l-2 -4q-18 4 -70 4l-69 -4l-3 4q19 100 19 262zM1065 -166q16 88 18 203h-295l-8 24l316 447l63 -21q-51 -80 -149 -217 l-117 -164h190v158q0 14 15 35q33 43 53 43q43 0 43 -20v-216h100l-12 -69h-86q2 -127 12 -203l-2 -4q-18 4 -69 4l-70 -4zM1141 1231l84 -17l-938 -1341l-86 16z" />
<glyph unicode="&#xbd;" horiz-adv-x="1351" d="M299 907v174v42q0 11 -3 24.5t-7 16.5t-15 3q-18 0 -68 -14t-73 -27l-20 60q205 74 284 123h13q6 0 6 -13q-6 -70 -6 -131v-258q0 -164 14 -262l-2 -4q-18 4 -70 4l-69 -4l-2 4q18 100 18 262zM1098 -92q68 0 178 8q-4 -25 -4 -41t4 -41q-72 4 -166 4h-285q0 117 187 260 q76 61 106.5 107.5t30.5 124.5q0 63 -36 93t-73 30q-111 0 -110 -60q0 -10 5 -25.5t5 -23.5q0 -23 -19.5 -36t-38 -13t-36 15.5t-17.5 33.5q0 53 55.5 105.5t164.5 52.5q90 0 155.5 -40t65.5 -130q0 -66 -44 -121t-139 -123q-135 -96 -135 -180h146zM1090 1231l86 -17 l-940 -1341l-84 16z" />
<glyph unicode="&#xbe;" horiz-adv-x="1351" d="M1073 -162q16 88 19 203h-295l-9 25l316 446l63 -20q-51 -80 -149 -218l-117 -163h191v157q0 14 14 35q33 43 53 43q43 0 43 -20v-215h101l-13 -70h-86q2 -127 13 -203l-3 -4q-18 4 -69 4l-70 -4zM381 1174q0 82 -82 81q-39 0 -75 -18t-38 -53q-4 -59 -53 -60 q-18 0 -29.5 8.5t-14.5 16.5t-3 12q0 23 20.5 53.5t78 60.5t139.5 30q80 0 127 -32t47 -89q0 -82 -105 -140q61 -6 112.5 -52t51.5 -128q0 -104 -87 -169.5t-212 -65.5q-61 0 -121.5 22.5t-60.5 53.5q0 14 16.5 27t32.5 13q29 0 53 -28q29 -37 103 -37q49 0 102 38t53 130 q0 53 -31.5 85t-63.5 39t-65 7q-8 0 -40 -4l-5 49q70 10 110 49.5t40 100.5zM1151 1231l84 -17l-938 -1341l-86 16z" />
<glyph unicode="&#xbf;" horiz-adv-x="868" d="M588 780v-10q-37 -90 -129 -127h-8q-94 33 -129 127v10q20 57 48.5 86t80.5 41h8q57 -12 85 -40t44 -87zM432 -371q141 0 252 193l27 -2l32 -156l-6 -8q-152 -127 -323 -127q-160 0 -268.5 86t-108.5 223q0 39 14.5 77t28.5 61.5t51 58.5t50.5 46t60.5 44t51 35 q37 27 59.5 51.5t43 76.5t20.5 124v80q0 10 17.5 20t29.5 10t29.5 -10t17.5 -20v-84q0 -184 -158 -330q-55 -51 -69.5 -98.5t-14.5 -133.5q0 -217 164 -217z" />
<glyph unicode="&#xc0;" horiz-adv-x="1394" d="M410 449q-119 -295 -162 -455q-25 6 -92 6q-90 0 -115 -6l604 1354h143l198 -484l223 -549q95 -231 141 -321q-35 6 -166 6q-111 0 -146 -6q-49 178 -153 457q-123 2 -203 2q-116 0 -272 -4zM655 1024l-196 -459q23 0 101.5 -2t111.5 -2q63 0 170 2zM432 1706l291 -203 q31 -20 31 -49q0 -14 -10.5 -22.5t-22.5 -8.5q-16 0 -80 19l-311 90l-15 29q27 84 117 145z" />
<glyph unicode="&#xc1;" horiz-adv-x="1394" d="M410 449q-119 -295 -162 -455q-25 6 -92 6q-90 0 -115 -6l604 1354h143l198 -484l223 -549q95 -231 141 -321q-35 6 -166 6q-111 0 -146 -6q-49 178 -153 457q-123 2 -203 2q-116 0 -272 -4zM655 1024l-196 -459q23 0 101.5 -2t111.5 -2q63 0 170 2zM1020 1706 q90 -61 117 -145l-15 -29l-311 -90q-63 -18 -80 -19q-12 0 -22.5 8.5t-10.5 22.5q0 29 31 49z" />
<glyph unicode="&#xc2;" horiz-adv-x="1394" d="M410 449q-119 -295 -162 -455q-25 6 -92 6q-90 0 -115 -6l604 1354h143l198 -484l223 -549q95 -231 141 -321q-35 6 -166 6q-111 0 -146 -6q-49 178 -153 457q-123 2 -203 2q-116 0 -272 -4zM655 1024l-196 -459q23 0 101.5 -2t111.5 -2q63 0 170 2zM1026 1454l-33 -53 q-41 16 -86 38l-99 47l-83 40q-225 -106 -270 -125l-33 53q102 82 272 252h62q116 -123 270 -252z" />
<glyph unicode="&#xc3;" horiz-adv-x="1394" d="M410 449q-119 -295 -162 -455q-25 6 -92 6q-90 0 -115 -6l604 1354h143l198 -484l223 -549q95 -231 141 -321q-35 6 -166 6q-111 0 -146 -6q-49 178 -153 457q-123 2 -203 2q-116 0 -272 -4zM655 1024l-196 -459q23 0 101.5 -2t111.5 -2q63 0 170 2zM856 1532 q57 0 94 119l70 -21q-43 -221 -186 -221q-35 0 -60.5 9t-39 19.5t-34.5 32.5q-49 53 -108 54q-39 0 -59.5 -27t-34.5 -82l-70 17q23 109 62.5 163t107.5 54q74 0 152 -66q59 -51 106 -51z" />
<glyph unicode="&#xc4;" horiz-adv-x="1394" d="M410 449q-119 -295 -162 -455q-25 6 -92 6q-90 0 -115 -6l604 1354h143l198 -484l223 -549q95 -231 141 -321q-35 6 -166 6q-111 0 -146 -6q-49 178 -153 457q-123 2 -203 2q-116 0 -272 -4zM655 1024l-196 -459q23 0 101.5 -2t111.5 -2q63 0 170 2zM307 1440 q0 45 33 77.5t78 32.5t77.5 -31.5t32.5 -78.5q0 -45 -32.5 -77t-77.5 -32t-78 32t-33 77zM883 1440q0 47 31.5 78.5t78.5 31.5q45 0 78 -32.5t33 -77.5t-33 -77t-78 -32t-77.5 32t-32.5 77z" />
<glyph unicode="&#xc5;" horiz-adv-x="1394" d="M655 1024l-196 -459q23 0 101.5 -2t111.5 -2q63 0 170 2zM537 1462q0 74 53 125t127 51t128 -51t54 -125q0 -49 -25.5 -90t-68.5 -63l193 -474l217 -533q91 -220 135 -308q-35 6 -166 6q-111 0 -146 -6q-49 178 -153 457q-123 2 -203 2q-117 0 -272 -4 q-119 -295 -162 -455q-25 6 -92 6q-90 0 -115 -6l588 1315q-43 23 -67.5 63.5t-24.5 89.5zM719 1571q-43 0 -74 -33t-31 -76q0 -41 31 -74.5t74 -33.5t73.5 33.5t30.5 74.5q0 45 -30.5 77t-73.5 32z" />
<glyph unicode="&#xc6;" horiz-adv-x="1642" d="M813 676l-82 416h-4q-104 -180 -219 -414q158 -4 178 -4q59 0 127 2zM750 1321l4 6q35 -6 104 -6h436q74 0 123 6l4 -6q-4 -57 -4 -84q0 -20 4 -53l-4 -8q-160 20 -375 20h-86q45 -227 107 -504q158 4 360 21l7 -6q-6 -29 -7 -58q0 -51 7 -78l-7 -6q-125 12 -333 19 q59 -252 114 -455l336 16l4 -8q-4 -33 -4 -67q0 -12 4 -70l-4 -6q-49 6 -123 6h-178h-104h-111q-57 0 -92 -6q0 82 -96 567q-82 2 -140 2q-102 0 -245 -4q-162 -332 -250 -565q-25 6 -92 6q-86 0 -111 -6l197 387l266 511q117 214 250 431l41 -18z" />
<glyph unicode="&#xc7;" horiz-adv-x="1374" d="M647 -197l-26 27l67 152q-145 8 -265 68.5t-193.5 153.5t-113.5 206.5t-40 234.5q0 168 66.5 312.5t187.5 238.5q195 152 461 152q111 0 222 -22.5t169 -47.5l55 -23l4 -6q-31 -131 -41 -266l-20 -2q-61 125 -170 188.5t-248 63.5q-68 0 -133.5 -28.5t-126 -89 t-97 -172.5t-36.5 -259q0 -113 23.5 -213t71.5 -185t129 -134.5t187 -49.5q145 0 233.5 37t203.5 146l49 -70q-213 -221 -484 -235l-30 -78q90 0 132 -40t42 -89q0 -68 -61.5 -112t-151.5 -44q-82 0 -158 35l31 74q70 -27 116 -27q37 0 65 18.5t28 44.5q0 20 -16.5 38 t-43.5 18q-49 -1 -88 -15z" />
<glyph unicode="&#xc8;" horiz-adv-x="1155" d="M451 410q0 -225 16 -281q123 0 269.5 6t230.5 12l86 7l4 -9q-4 -33 -4 -71q0 -16 4 -74l-4 -6q-49 6 -123 6h-602l-150 -6l-2 6q20 139 21 410v501q0 264 -21 410l4 6q78 -6 148 -6h581q74 0 123 6l4 -6q-4 -57 -4 -72q0 -31 4 -63l-4 -8q-291 25 -565 24 q-16 -55 -16 -291v-159q223 0 464 20l7 -6q-6 -29 -7 -66q0 -41 7 -67l-7 -6q-203 20 -464 20v-237zM453 1706l290 -203q31 -20 31 -49q0 -31 -33 -31q-16 0 -79 19l-312 90l-14 29q27 84 117 145z" />
<glyph unicode="&#xc9;" horiz-adv-x="1155" d="M451 410q0 -225 16 -281q123 0 269.5 6t230.5 12l86 7l4 -9q-4 -33 -4 -71q0 -16 4 -74l-4 -6q-49 6 -123 6h-602l-150 -6l-2 6q20 139 21 410v501q0 264 -21 410l4 6q78 -6 148 -6h581q74 0 123 6l4 -6q-4 -57 -4 -72q0 -31 4 -63l-4 -8q-291 25 -565 24 q-16 -55 -16 -291v-159q223 0 464 20l7 -6q-6 -29 -7 -66q0 -41 7 -67l-7 -6q-203 20 -464 20v-237zM713 1706q90 -61 116 -145l-14 -29l-311 -90q-63 -18 -80 -19q-33 0 -33 31q0 29 31 49z" />
<glyph unicode="&#xca;" horiz-adv-x="1155" d="M451 410q0 -225 16 -281q123 0 269.5 6t230.5 12l86 7l4 -9q-4 -33 -4 -71q0 -16 4 -74l-4 -6q-49 6 -123 6h-602l-150 -6l-2 6q20 139 21 410v501q0 264 -21 410l4 6q78 -6 148 -6h581q74 0 123 6l4 -6q-4 -57 -4 -72q0 -31 4 -63l-4 -8q-291 25 -565 24 q-16 -55 -16 -291v-159q223 0 464 20l7 -6q-6 -29 -7 -66q0 -41 7 -67l-7 -6q-203 20 -464 20v-237zM944 1454l-33 -53q-41 16 -86 38l-99 47l-83 40q-225 -106 -270 -125l-33 53q102 82 272 252h62q116 -123 270 -252z" />
<glyph unicode="&#xcb;" horiz-adv-x="1155" d="M451 410q0 -225 16 -281q123 0 269.5 6t230.5 12l86 7l4 -9q-4 -33 -4 -71q0 -16 4 -74l-4 -6q-49 6 -123 6h-602l-150 -6l-2 6q20 139 21 410v501q0 264 -21 410l4 6q78 -6 148 -6h581q74 0 123 6l4 -6q-4 -57 -4 -72q0 -31 4 -63l-4 -8q-291 25 -565 24 q-16 -55 -16 -291v-159q223 0 464 20l7 -6q-6 -29 -7 -66q0 -41 7 -67l-7 -6q-203 20 -464 20v-237zM311 1563q0 47 33 78.5t78 31.5t76.5 -31.5t31.5 -78.5q0 -45 -31.5 -77t-76.5 -32t-78 32t-33 77zM696 1563q0 47 33 78.5t78 31.5t78 -32.5t33 -77.5t-33 -77t-78 -32 t-78 32t-33 77z" />
<glyph unicode="&#xcc;" horiz-adv-x="677" d="M217 911q0 264 -20 410l4 6q74 -6 143 -6l145 6l3 -6q-20 -135 -21 -410v-501q0 -264 21 -410l-5 -6q-74 6 -143 6l-145 -6l-2 6q20 139 20 410v501zM145 1706l291 -203q31 -20 31 -49q0 -31 -33 -31q-16 0 -80 19l-311 90l-14 29q26 84 116 145z" />
<glyph unicode="&#xcd;" horiz-adv-x="677" d="M217 911q0 264 -20 410l4 6q74 -6 143 -6l145 6l3 -6q-20 -135 -21 -410v-501q0 -264 21 -410l-5 -6q-74 6 -143 6l-145 -6l-2 6q20 139 20 410v501zM467 1706q90 -61 117 -145l-15 -29l-311 -90q-63 -18 -80 -19q-33 0 -33 31q0 29 31 49z" />
<glyph unicode="&#xce;" horiz-adv-x="677" d="M217 911q0 264 -20 410l4 6q74 -6 143 -6l145 6l3 -6q-20 -135 -21 -410v-501q0 -264 21 -410l-5 -6q-74 6 -143 6l-145 -6l-2 6q20 139 20 410v501zM643 1454l-33 -53q-41 16 -86 38l-99 47l-83 40q-225 -106 -270 -125l-33 53q102 82 272 252h62q116 -123 270 -252z " />
<glyph unicode="&#xcf;" horiz-adv-x="677" d="M217 911q0 264 -20 410l4 6q74 -6 143 -6l145 6l3 -6q-20 -135 -21 -410v-501q0 -264 21 -410l-5 -6q-74 6 -143 6l-145 -6l-2 6q20 139 20 410v501zM45 1563q0 47 33 78.5t78 31.5t76.5 -31.5t31.5 -78.5q0 -45 -31.5 -77t-76.5 -32t-78 32t-33 77zM430 1563 q0 47 33 78.5t78 31.5t77.5 -32.5t32.5 -77.5t-32.5 -77t-77.5 -32t-78 32t-33 77z" />
<glyph unicode="&#xd0;" horiz-adv-x="1538" d="M338 1321q76 0 190.5 3t190.5 3q297 0 514 -206t217 -490q0 -145 -45 -259t-115.5 -182.5t-165 -113.5t-184.5 -62.5t-184 -17.5q-111 0 -226.5 2t-191.5 2l-150 -6l-2 6q20 139 21 410v178h-172v80h172v243q0 264 -21 410l4 6q78 -6 148 -6zM461 186q0 -51 42 -66.5 t189 -15.5q119 0 196 17.5t141.5 66t94 145.5t29.5 249q0 104 -10 188t-43 171t-87.5 145.5t-148.5 95.5t-223 37q-88 0 -134 -16.5t-46 -65.5v-469h129v-80h-129v-402z" />
<glyph unicode="&#xd1;" horiz-adv-x="1548" d="M207 911q0 264 -21 410l4 6q76 -6 146 -6l70 4l702 -909q82 -106 84 -109q18 -16 20 19q2 14 2 39v546q0 264 -20 410l-37 6q84 -6 133 -6q20 0 33.5 1t15.5 3l4 2l43 -6q-20 -135 -20 -410v-868q0 -27 -28.5 -45t-55.5 -18q-80 0 -128 25.5t-120 115.5l-641 811 q-25 31 -43 61h-2q8 -43 8 -94v-489q0 -264 21 -410l-4 -6q-43 6 -92 6l-93 -6l-2 6q20 135 21 410v501zM879 1528q57 0 94 119l69 -21q-43 -221 -186 -221q-35 0 -60.5 9t-39 19.5t-33.5 32.5q-49 53 -109 54q-39 0 -59 -27t-35 -82l-69 16q23 109 62.5 163.5t107.5 54.5 q74 0 151 -66q60 -51 107 -51z" />
<glyph unicode="&#xd2;" horiz-adv-x="1595" d="M1489 674q0 -313 -185.5 -503.5t-508.5 -190.5q-303 0 -496 183t-193 472q0 307 189.5 510t497.5 203q324 0 510 -183.5t186 -490.5zM766 1239q-164 0 -267.5 -134t-103.5 -435q0 -283 123 -432.5t318 -149.5q178 0 271 137t93 410q0 315 -107.5 459.5t-326.5 144.5z M637 1706l291 -203q31 -20 30 -49q0 -31 -32 -31q-16 0 -80 19l-311 90l-15 29q27 84 117 145z" />
<glyph unicode="&#xd3;" horiz-adv-x="1595" d="M1489 674q0 -313 -185.5 -503.5t-508.5 -190.5q-303 0 -496 183t-193 472q0 307 189.5 510t497.5 203q324 0 510 -183.5t186 -490.5zM766 1239q-164 0 -267.5 -134t-103.5 -435q0 -283 123 -432.5t318 -149.5q178 0 271 137t93 410q0 315 -107.5 459.5t-326.5 144.5z M897 1706q90 -61 117 -145l-15 -29l-311 -90q-63 -18 -80 -19q-33 0 -33 31q0 29 31 49z" />
<glyph unicode="&#xd4;" horiz-adv-x="1595" d="M1489 674q0 -313 -185.5 -503.5t-508.5 -190.5q-303 0 -496 183t-193 472q0 307 189.5 510t497.5 203q324 0 510 -183.5t186 -490.5zM766 1239q-164 0 -267.5 -134t-103.5 -435q0 -283 123 -432.5t318 -149.5q178 0 271 137t93 410q0 315 -107.5 459.5t-326.5 144.5z M1108 1454l-33 -53q-41 16 -86 38l-99 47l-83 40q-225 -106 -270 -125l-33 53q102 82 272 252h62q116 -123 270 -252z" />
<glyph unicode="&#xd5;" horiz-adv-x="1595" d="M1489 674q0 -313 -185.5 -503.5t-508.5 -190.5q-303 0 -496 183t-193 472q0 307 189.5 510t497.5 203q324 0 510 -183.5t186 -490.5zM766 1239q-164 0 -267.5 -134t-103.5 -435q0 -283 123 -432.5t318 -149.5q178 0 271 137t93 410q0 315 -107.5 459.5t-326.5 144.5z M895 1528q57 0 94 119l70 -21q-43 -221 -187 -221q-35 0 -60.5 9t-38.5 19.5t-34 32.5q-49 53 -108 54q-39 0 -59.5 -27t-34.5 -82l-70 16q45 217 170 218q74 0 151 -66q60 -51 107 -51z" />
<glyph unicode="&#xd6;" horiz-adv-x="1595" d="M1489 674q0 -313 -185.5 -503.5t-508.5 -190.5q-303 0 -496 183t-193 472q0 307 189.5 510t497.5 203q324 0 510 -183.5t186 -490.5zM766 1239q-164 0 -267.5 -134t-103.5 -435q0 -283 123 -432.5t318 -149.5q178 0 271 137t93 410q0 315 -107.5 459.5t-326.5 144.5z M242 1440q0 45 32.5 77.5t77.5 32.5t78 -31.5t33 -78.5q0 -45 -33 -77t-78 -32t-77.5 32t-32.5 77zM1096 1440q0 47 31.5 78.5t78.5 31.5q45 0 78 -32.5t33 -77.5t-33 -77t-78 -32t-77.5 32t-32.5 77z" />
<glyph unicode="&#xd7;" horiz-adv-x="1064" d="M532 563l248 246l86 -88l-245 -246l245 -246l-86 -86l-248 246l-245 -246l-86 86l245 246l-247 248l86 86z" />
<glyph unicode="&#xd8;" horiz-adv-x="1595" d="M1120 1051l-628 -777q119 -186 344 -186q178 0 271 137t93 410q0 271 -80 416zM766 1239q-164 0 -267.5 -134t-103.5 -435q0 -180 54 -312l620 764q-104 117 -303 117zM203 -82l-70 53l160 197q-186 182 -187 467q0 307 189.5 510t497.5 203q223 0 385 -91l94 115l69 -49 l-92 -113q240 -182 240 -536q0 -313 -185.5 -503.5t-508.5 -190.5q-254 0 -435 131z" />
<glyph unicode="&#xd9;" horiz-adv-x="1431" d="M1079 911q0 264 -20 410l4 6q55 -6 104 -6l105 6l2 -6q-20 -135 -21 -410v-307q0 -625 -561 -624q-90 0 -172 21.5t-164 72.5t-131 156.5t-49 252.5v428q0 264 -20 410l4 6q70 -6 139 -6l150 6l2 -6q-20 -135 -21 -410v-360q0 -51 2 -88t10.5 -95.5t29 -99.5t52 -82 t86 -62.5t125.5 -21.5q90 0 155.5 28t101.5 69t56.5 107.5t25.5 123.5t5 137v344zM555 1706l291 -203q31 -20 31 -49q0 -31 -33 -31q-16 0 -80 19l-311 90l-15 29q27 84 117 145z" />
<glyph unicode="&#xda;" horiz-adv-x="1431" d="M1079 911q0 264 -20 410l4 6q55 -6 104 -6l105 6l2 -6q-20 -135 -21 -410v-307q0 -625 -561 -624q-90 0 -172 21.5t-164 72.5t-131 156.5t-49 252.5v428q0 264 -20 410l4 6q70 -6 139 -6l150 6l2 -6q-20 -135 -21 -410v-360q0 -51 2 -88t10.5 -95.5t29 -99.5t52 -82 t86 -62.5t125.5 -21.5q90 0 155.5 28t101.5 69t56.5 107.5t25.5 123.5t5 137v344zM918 1706q90 -61 116 -145l-14 -29l-311 -90q-63 -18 -80 -19q-33 0 -33 31q0 29 31 49z" />
<glyph unicode="&#xdb;" horiz-adv-x="1431" d="M1079 911q0 264 -20 410l4 6q55 -6 104 -6l105 6l2 -6q-20 -135 -21 -410v-307q0 -625 -561 -624q-90 0 -172 21.5t-164 72.5t-131 156.5t-49 252.5v428q0 264 -20 410l4 6q70 -6 139 -6l150 6l2 -6q-20 -135 -21 -410v-360q0 -51 2 -88t10.5 -95.5t29 -99.5t52 -82 t86 -62.5t125.5 -21.5q90 0 155.5 28t101.5 69t56.5 107.5t25.5 123.5t5 137v344zM1047 1454l-33 -53q-41 16 -86 38l-100 47l-83 40q-225 -106 -270 -125l-33 53q102 82 273 252h61q117 -123 271 -252z" />
<glyph unicode="&#xdc;" horiz-adv-x="1431" d="M1079 911q0 264 -20 410l4 6q55 -6 104 -6l105 6l2 -6q-20 -135 -21 -410v-307q0 -625 -561 -624q-90 0 -172 21.5t-164 72.5t-131 156.5t-49 252.5v428q0 264 -20 410l4 6q70 -6 139 -6l150 6l2 -6q-20 -135 -21 -410v-360q0 -51 2 -88t10.5 -95.5t29 -99.5t52 -82 t86 -62.5t125.5 -21.5q90 0 155.5 28t101.5 69t56.5 107.5t25.5 123.5t5 137v344zM479 1440q0 45 33 77.5t78 32.5t77.5 -31.5t32.5 -78.5q0 -45 -32.5 -77t-77.5 -32t-78 32t-33 77zM834 1440q0 47 31.5 78.5t78.5 31.5q45 0 78 -32.5t33 -77.5t-33 -77t-78 -32t-77.5 32 t-32.5 77z" />
<glyph unicode="&#xdd;" horiz-adv-x="1296" d="M770 586q4 -457 16 -592q-33 6 -149 6q-115 0 -148 -6q14 131 15 569q-63 111 -238.5 394.5t-232.5 369.5q35 -6 159.5 -6t159.5 6l83 -156q46 -84 77 -135l93 -157l85 -146q209 332 336 594q25 -6 129 -6q59 0 86 6l-133 -202l-118 -179l-86 -134q-48 -75 -78.5 -127 t-55.5 -99zM856 1706q90 -61 117 -145l-15 -29l-311 -90q-63 -18 -80 -19q-12 0 -22 8.5t-10 22.5q0 29 30 49z" />
<glyph unicode="&#xde;" horiz-adv-x="1206" d="M449 414q31 -10 145 -11q129 0 192.5 58.5t63.5 240.5q0 168 -55.5 220.5t-163.5 52.5q-102 0 -182 -23v-20v-21v-497zM195 911q0 264 -21 410l4 6q74 -6 144 -6l145 6l2 -6q-14 -92 -18 -248q74 4 182 4q135 0 237.5 -36.5t157.5 -96t82 -121t27 -121.5 q0 -61 -33 -127.5t-95.5 -129t-169 -103.5t-235.5 -41q-113 0 -155 14q4 -193 20 -315l-4 -6q-74 6 -143 6l-146 -6l-2 6q20 139 21 410v501z" />
<glyph unicode="&#xdf;" horiz-adv-x="1230" d="M793 -20q-68 0 -133.5 21.5t-90.5 35.5l-2 6q10 18 16.5 37.5t12.5 51.5t10 48l23 2q20 -37 61 -72.5t82 -35.5q63 0 90 56t27 189q0 285 -268 488v43q106 66 143 133.5t37 183.5q0 78 -41 125t-105 47q-111 0 -164 -73.5t-53 -163.5q0 -37 2 -96.5t2 -100.5v-495 q0 -242 13 -410l-4 -6q-59 6 -129 6l-136 -6l-2 6q16 125 17 410v342q0 33 -25 32h-90q-12 0 -12 11v43q0 14 11 27.5t36 13.5q80 0 80 98q0 78 46 174t128 170q121 109 295 109q162 0 237 -48q127 -80 127 -198q0 -207 -231 -326v-20q74 -49 124 -89t106.5 -100.5 t85 -135.5t28.5 -159q0 -199 -113 -299q-85 -75 -241 -75z" />
<glyph unicode="&#xe0;" horiz-adv-x="974" d="M813 164q0 -47 27.5 -60.5t97.5 -13.5q16 -14 20 -43q-88 -68 -202 -67q-63 0 -106.5 33.5t-55.5 84.5h-4q-131 -119 -260 -118q-113 0 -186.5 59t-73.5 162q0 104 93 189t243 122l178 43q12 4 12 25q0 115 -35 161.5t-106 46.5q-141 0 -232 -161l-47 2l-41 153l6 9 q45 39 138.5 73.5t193.5 34.5q174 0 266 -82q82 -74 82 -250q0 -6 -4 -187t-4 -216zM596 455l-164 -43q-78 -20 -98.5 -65.5t-20.5 -127.5q0 -45 27 -81t70 -36q82 0 151 70q10 10 20.5 41t10.5 51zM442 1380l142 -254q18 -33 18 -53q0 -14 -10 -23.5t-25 -9.5q-25 0 -71 41 l-248 215l4 23q18 20 59 42.5t90 22.5q25 0 41 -4z" />
<glyph unicode="&#xe1;" horiz-adv-x="974" d="M813 164q0 -47 27.5 -60.5t97.5 -13.5q16 -14 20 -43q-88 -68 -202 -67q-63 0 -106.5 33.5t-55.5 84.5h-4q-131 -119 -260 -118q-113 0 -186.5 59t-73.5 162q0 104 93 189t243 122l178 43q12 4 12 25q0 115 -35 161.5t-106 46.5q-141 0 -232 -161l-47 2l-41 153l6 9 q45 39 138.5 73.5t193.5 34.5q174 0 266 -82q82 -74 82 -250q0 -6 -4 -187t-4 -216zM596 455l-164 -43q-78 -20 -98.5 -65.5t-20.5 -127.5q0 -45 27 -81t70 -36q82 0 151 70q10 10 20.5 41t10.5 51zM524 1380q12 4 33 4q78 0 117 -49l20 -47l-245 -221q-39 -33 -78 -33 q-12 0 -22.5 9.5t-10.5 19.5q0 25 16 49z" />
<glyph unicode="&#xe2;" horiz-adv-x="974" d="M813 164q0 -47 27.5 -60.5t97.5 -13.5q16 -14 20 -43q-88 -68 -202 -67q-63 0 -106.5 33.5t-55.5 84.5h-4q-131 -119 -260 -118q-113 0 -186.5 59t-73.5 162q0 104 93 189t243 122l178 43q12 4 12 25q0 115 -35 161.5t-106 46.5q-141 0 -232 -161l-47 2l-41 153l6 9 q45 39 138.5 73.5t193.5 34.5q174 0 266 -82q82 -74 82 -250q0 -6 -4 -187t-4 -216zM596 455l-164 -43q-78 -20 -98.5 -65.5t-20.5 -127.5q0 -45 27 -81t70 -36q82 0 151 70q10 10 20.5 41t10.5 51zM774 1055l-51 -39q-141 86 -219 168q-37 -37 -78 -70t-59.5 -46t-79.5 -52 l-51 39q76 86 118.5 140t62 81t58.5 88h62l65 -99q20 -30 63 -83t109 -127z" />
<glyph unicode="&#xe3;" horiz-adv-x="974" d="M813 164q0 -47 27.5 -60.5t97.5 -13.5q16 -14 20 -43q-88 -68 -202 -67q-63 0 -106.5 33.5t-55.5 84.5h-4q-131 -119 -260 -118q-113 0 -186.5 59t-73.5 162q0 104 93 189t243 122l178 43q12 4 12 25q0 115 -35 161.5t-106 46.5q-141 0 -232 -161l-47 2l-41 153l6 9 q45 39 138.5 73.5t193.5 34.5q174 0 266 -82q82 -74 82 -250q0 -6 -4 -187t-4 -216zM596 455l-164 -43q-78 -20 -98.5 -65.5t-20.5 -127.5q0 -45 27 -81t70 -36q82 0 151 70q10 10 20.5 41t10.5 51zM645 1176q57 0 94 118l70 -20q-43 -221 -186 -221q-35 0 -60.5 9t-39 19.5 t-34.5 32.5q-49 53 -108 53q-39 0 -59.5 -26.5t-34.5 -81.5l-70 16q45 217 170 217q74 0 152 -65q59 -51 106 -51z" />
<glyph unicode="&#xe4;" horiz-adv-x="974" d="M813 164q0 -47 27.5 -60.5t97.5 -13.5q16 -14 20 -43q-88 -68 -202 -67q-63 0 -106.5 33.5t-55.5 84.5h-4q-131 -119 -260 -118q-113 0 -186.5 59t-73.5 162q0 104 93 189t243 122l178 43q12 4 12 25q0 115 -35 161.5t-106 46.5q-141 0 -232 -161l-47 2l-41 153l6 9 q45 39 138.5 73.5t193.5 34.5q174 0 266 -82q82 -74 82 -250q0 -6 -4 -187t-4 -216zM596 455l-164 -43q-78 -20 -98.5 -65.5t-20.5 -127.5q0 -45 27 -81t70 -36q82 0 151 70q10 10 20.5 41t10.5 51zM174 1169q0 49 34 83t81 34q49 0 83 -33.5t34 -83.5q0 -47 -34 -80.5 t-83 -33.5q-47 0 -81 33.5t-34 80.5zM563 1169q0 49 34 83t83 34q47 0 81 -33.5t34 -83.5q0 -47 -35 -80.5t-80 -33.5q-49 0 -83 33.5t-34 80.5z" />
<glyph unicode="&#xe5;" horiz-adv-x="974" d="M813 164q0 -47 27.5 -60.5t97.5 -13.5q16 -14 20 -43q-88 -68 -202 -67q-63 0 -106.5 33.5t-55.5 84.5h-4q-131 -119 -260 -118q-113 0 -186.5 59t-73.5 162q0 104 93 189t243 122l178 43q12 4 12 25q0 115 -35 161.5t-106 46.5q-141 0 -232 -161l-47 2l-41 153l6 9 q45 39 138.5 73.5t193.5 34.5q174 0 266 -82q82 -74 82 -250q0 -6 -4 -187t-4 -216zM596 455l-164 -43q-78 -20 -98.5 -65.5t-20.5 -127.5q0 -45 27 -81t70 -36q82 0 151 70q10 10 20.5 41t10.5 51zM295 1192q0 74 53 125t127 51t128 -51t54 -125q0 -72 -53 -124t-129 -52 q-74 0 -127 51t-53 125zM477 1300q-43 0 -73.5 -32.5t-30.5 -75.5q0 -41 30.5 -75t73.5 -34t74 34t31 75q0 45 -31 76.5t-74 31.5z" />
<glyph unicode="&#xe6;" horiz-adv-x="1482" d="M424 807q-123 0 -254 -203l-41 2l-35 158l6 8q172 127 344 127q233 0 322 -143q55 70 139 106.5t180 36.5q90 0 163 -31.5t113 -77t61.5 -87t21.5 -70.5q0 -113 -58 -158q-29 -14 -76.5 -21.5t-96 -8.5t-154 -3t-195.5 -6q0 -346 240 -346q154 0 274 129q35 -12 56 -47 q-49 -84 -150.5 -138t-212.5 -54q-94 0 -167 28.5t-97.5 50t-58.5 62.5q-164 -141 -351 -141q-174 0 -262 60t-88 167q0 131 142.5 214t422.5 101q-2 158 -37.5 221.5t-150.5 63.5zM866 528q47 2 94.5 3t77 1t59 1.5t46 2.5t32 5t21.5 9t12 16.5t7.5 24.5t1.5 36 q0 61 -40 120.5t-114 59.5q-98 0 -140.5 -68t-56.5 -211zM612 430q-109 -8 -179.5 -27.5t-104 -49t-46 -61.5t-12.5 -75q0 -74 28 -104.5t103 -30.5q63 0 113.5 31.5t73.5 91.5q24 63 24 225z" />
<glyph unicode="&#xe7;" horiz-adv-x="913" d="M373 -184l-27 26l66 146q-123 20 -215 123q-111 121 -111 303q0 236 123 360.5t334 124.5q74 0 165 -20.5t140 -47.5l4 -6l-49 -198l-37 -2q-80 170 -205 170q-104 0 -167.5 -87t-63.5 -241t65 -260q29 -45 77 -78t91 -33q160 0 230 84h32q0 -45 11 -90 q-72 -61 -142.5 -85.5t-185.5 -24.5h-4l-27 -66q90 0 132 -40t42 -89q0 -68 -61.5 -112t-151.5 -44q-82 0 -157 35l30 74q70 -27 117 -27q37 0 64.5 18.5t27.5 45.5q0 20 -16.5 37.5t-42.5 17.5q-49 0 -88 -14z" />
<glyph unicode="&#xe8;" horiz-adv-x="940" d="M817 219q41 -23 41 -72q-57 -78 -156.5 -122.5t-212.5 -44.5q-213 0 -316 121.5t-103 306.5q0 219 129 355t288 136q190 0 283.5 -111.5t93.5 -275.5q0 -35 -37 -35h-520q0 -207 60.5 -282.5t162.5 -75.5q195 0 287 100zM311 567h275q29 0 28 49q0 182 -129 183 q-57 0 -109.5 -55.5t-64.5 -176.5zM467 1380l141 -254q18 -33 19 -53q0 -14 -10.5 -23.5t-24.5 -9.5q-25 0 -72 41l-248 215l4 23q18 20 59.5 42.5t90.5 22.5q25 0 41 -4z" />
<glyph unicode="&#xe9;" horiz-adv-x="940" d="M817 219q41 -23 41 -72q-57 -78 -156.5 -122.5t-212.5 -44.5q-213 0 -316 121.5t-103 306.5q0 219 129 355t288 136q190 0 283.5 -111.5t93.5 -275.5q0 -35 -37 -35h-520q0 -207 60.5 -282.5t162.5 -75.5q195 0 287 100zM311 567h275q29 0 28 49q0 182 -129 183 q-57 0 -109.5 -55.5t-64.5 -176.5zM573 1380q12 4 33 4q78 0 117 -49l20 -47l-245 -221q-39 -33 -78 -33q-12 0 -22.5 9.5t-10.5 19.5q0 25 16 49z" />
<glyph unicode="&#xea;" horiz-adv-x="940" d="M817 219q41 -23 41 -72q-57 -78 -156.5 -122.5t-212.5 -44.5q-213 0 -316 121.5t-103 306.5q0 219 129 355t288 136q190 0 283.5 -111.5t93.5 -275.5q0 -35 -37 -35h-520q0 -207 60.5 -282.5t162.5 -75.5q195 0 287 100zM311 567h275q29 0 28 49q0 182 -129 183 q-57 0 -109.5 -55.5t-64.5 -176.5zM764 1055l-51 -39q-141 86 -219 168q-37 -37 -78 -70t-59.5 -46t-80.5 -52l-51 39q76 86 119 140t62.5 81t58.5 88h61l66 -99q20 -30 63 -83t109 -127z" />
<glyph unicode="&#xeb;" horiz-adv-x="940" d="M817 219q41 -23 41 -72q-57 -78 -156.5 -122.5t-212.5 -44.5q-213 0 -316 121.5t-103 306.5q0 219 129 355t288 136q190 0 283.5 -111.5t93.5 -275.5q0 -35 -37 -35h-520q0 -207 60.5 -282.5t162.5 -75.5q195 0 287 100zM311 567h275q29 0 28 49q0 182 -129 183 q-57 0 -109.5 -55.5t-64.5 -176.5zM184 1169q0 49 34 83t81 34q49 0 83 -33.5t34 -83.5q0 -47 -34 -80.5t-83 -33.5q-45 0 -80 33.5t-35 80.5zM573 1169q0 49 34 83t83 34q47 0 81 -33.5t34 -83.5q0 -47 -34 -80.5t-81 -33.5q-49 0 -83 33.5t-34 80.5z" />
<glyph unicode="&#xec;" horiz-adv-x="606" d="M184 481q0 250 -20 361l4 6q162 12 260 51q18 0 18 -20q-20 -156 -20 -365v-145q0 -223 20 -369l-4 -6q-68 6 -137 6l-139 -6l-2 6q20 139 20 369v112zM258 1380l141 -254q18 -33 19 -53q0 -14 -10.5 -23.5t-24.5 -9.5q-25 0 -72 41l-248 215l5 23q18 20 59 42.5t90 22.5 q25 0 41 -4z" />
<glyph unicode="&#xed;" horiz-adv-x="606" d="M184 481q0 250 -20 361l4 6q162 12 260 51q18 0 18 -20q-20 -156 -20 -365v-145q0 -223 20 -369l-4 -6q-68 6 -137 6l-139 -6l-2 6q20 139 20 369v112zM373 1380q12 4 33 4q78 0 116 -49l21 -47l-246 -221q-39 -33 -78 -33q-12 0 -22.5 9.5t-10.5 19.5q0 25 17 49z" />
<glyph unicode="&#xee;" horiz-adv-x="606" d="M184 481q0 250 -20 361l4 6q162 12 260 51q18 0 18 -20q-20 -156 -20 -365v-145q0 -223 20 -369l-4 -6q-68 6 -137 6l-139 -6l-2 6q20 139 20 369v112zM563 1055l-51 -39q-141 86 -219 168q-37 -37 -78 -70t-59.5 -46t-79.5 -52l-51 39q76 86 118.5 140t62 81t58.5 88h62 l65 -99q20 -30 63 -83t109 -127z" />
<glyph unicode="&#xef;" horiz-adv-x="606" d="M184 481q0 250 -20 361l4 6q162 12 260 51q18 0 18 -20q-20 -156 -20 -365v-145q0 -223 20 -369l-4 -6q-68 6 -137 6l-139 -6l-2 6q20 139 20 369v112zM-12 1169q0 49 33.5 83t80.5 34q49 0 83 -33.5t34 -83.5q0 -47 -33.5 -80.5t-83.5 -33.5q-45 0 -79.5 33.5 t-34.5 80.5zM377 1169q0 49 33.5 83t83.5 34q47 0 80.5 -33.5t33.5 -83.5q0 -47 -33.5 -80.5t-80.5 -33.5q-49 0 -83 33.5t-34 80.5z" />
<glyph unicode="&#xf0;" horiz-adv-x="1013" d="M23 426q0 127 45 222t119.5 147.5t157.5 78t171 25.5q86 0 158 -29q-61 150 -209 283l-227 -154l-45 66l215 145q-74 80 -197 168l86 52q111 -59 217 -146l217 146l45 -66l-198 -133q125 -106 210.5 -207.5t147 -244t61.5 -294.5q0 -252 -139 -378.5t-377 -126.5 q-211 0 -334.5 136t-123.5 310zM516 70q219 0 219 387q0 127 -39 266q-68 86 -184 86q-74 0 -122 -30.5t-69.5 -87t-28.5 -109t-7 -121.5q0 -178 61 -284.5t170 -106.5z" />
<glyph unicode="&#xf1;" horiz-adv-x="1171" d="M991 369q0 -240 21 -369l-4 -6q-68 6 -138 6l-131 -6l-2 6q12 109 13 369v182q0 190 -107 190q-113 0 -237 -163v-209q0 -229 12 -369l-4 -6q-59 6 -129 6l-140 -6l-2 6q20 129 21 369v112q0 248 -21 361l4 6q154 12 254 51q18 0 19 -20l-23 -168l9 -6q152 195 309 194 q135 0 205.5 -81t70.5 -222v-227zM725 1176q57 0 94 118l70 -20q-43 -221 -187 -221q-35 0 -60.5 9t-38.5 19.5t-34 32.5q-49 53 -108 53q-39 0 -59.5 -26.5t-34.5 -81.5l-70 16q45 217 170 217q74 0 151 -65q60 -51 107 -51z" />
<glyph unicode="&#xf2;" horiz-adv-x="1089" d="M535 797q-84 0 -129.5 -49.5t-55.5 -113t-10 -167.5q0 -385 233 -385q176 0 177 301q0 223 -45 318.5t-170 95.5zM78 420q0 213 127 346t344 133q125 0 218 -41t144.5 -110.5t76 -147.5t24.5 -162q0 -180 -123 -319t-344 -139q-217 0 -342 130t-125 310zM524 1380 l142 -254q18 -33 18 -53q0 -14 -10 -23.5t-25 -9.5q-25 0 -71 41l-248 215l4 23q18 20 59 42.5t90 22.5q25 0 41 -4z" />
<glyph unicode="&#xf3;" horiz-adv-x="1089" d="M535 797q-84 0 -129.5 -49.5t-55.5 -113t-10 -167.5q0 -385 233 -385q176 0 177 301q0 223 -45 318.5t-170 95.5zM78 420q0 213 127 346t344 133q125 0 218 -41t144.5 -110.5t76 -147.5t24.5 -162q0 -180 -123 -319t-344 -139q-217 0 -342 130t-125 310zM602 1380 q12 4 33 4q78 0 117 -49l20 -47l-246 -221q-39 -33 -77 -33q-12 0 -22.5 9.5t-10.5 19.5q0 25 16 49z" />
<glyph unicode="&#xf4;" horiz-adv-x="1089" d="M535 797q-84 0 -129.5 -49.5t-55.5 -113t-10 -167.5q0 -385 233 -385q176 0 177 301q0 223 -45 318.5t-170 95.5zM78 420q0 213 127 346t344 133q125 0 218 -41t144.5 -110.5t76 -147.5t24.5 -162q0 -180 -123 -319t-344 -139q-217 0 -342 130t-125 310zM813 1055 l-51 -39q-141 86 -219 168q-37 -37 -78 -70t-59.5 -46t-79.5 -52l-52 39q76 86 119 140t62.5 81t58.5 88h61l66 -99q20 -30 63 -83t109 -127z" />
<glyph unicode="&#xf5;" horiz-adv-x="1089" d="M535 797q-84 0 -129.5 -49.5t-55.5 -113t-10 -167.5q0 -385 233 -385q176 0 177 301q0 223 -45 318.5t-170 95.5zM78 420q0 213 127 346t344 133q125 0 218 -41t144.5 -110.5t76 -147.5t24.5 -162q0 -180 -123 -319t-344 -139q-217 0 -342 130t-125 310zM672 1176 q57 0 94 118l70 -20q-43 -221 -187 -221q-35 0 -60.5 9t-38.5 19.5t-34 32.5q-49 53 -108 53q-39 0 -59.5 -26.5t-35.5 -81.5l-69 16q45 217 170 217q74 0 151 -65q60 -51 107 -51z" />
<glyph unicode="&#xf6;" horiz-adv-x="1089" d="M535 797q-84 0 -129.5 -49.5t-55.5 -113t-10 -167.5q0 -385 233 -385q176 0 177 301q0 223 -45 318.5t-170 95.5zM78 420q0 213 127 346t344 133q125 0 218 -41t144.5 -110.5t76 -147.5t24.5 -162q0 -180 -123 -319t-344 -139q-217 0 -342 130t-125 310zM236 1169 q0 49 33.5 83t80.5 34q49 0 83 -33.5t34 -83.5q0 -47 -34 -80.5t-83 -33.5q-47 0 -80.5 33.5t-33.5 80.5zM625 1169q0 49 33.5 83t82.5 34q47 0 81 -33.5t34 -83.5q0 -47 -35 -80.5t-80 -33.5q-49 0 -82.5 33.5t-33.5 80.5z" />
<glyph unicode="&#xf7;" horiz-adv-x="1064" d="M942 539v-123h-819v123h819zM457 209v8q16 41 40.5 65.5t67.5 41.5h6q45 -14 70 -39t39 -68v-8q-16 -47 -41 -71.5t-68 -35.5h-6q-47 10 -70.5 34t-37.5 73zM457 758v8q16 41 40.5 65.5t67.5 40.5h6q45 -14 70 -38.5t39 -67.5v-8q-16 -47 -41 -71.5t-68 -35.5h-6 q-47 10 -70.5 34t-37.5 73z" />
<glyph unicode="&#xf8;" horiz-adv-x="1089" d="M729 631l-348 -424q55 -125 192 -125q176 0 177 301q-1 162 -21 248zM535 797q-51 0 -88 -18.5t-57.5 -46t-32 -74t-14.5 -88.5t-3 -103q0 -98 12 -168l344 418q-46 80 -161 80zM872 930l64 -47l-72 -88q147 -127 148 -357q0 -84 -30 -163.5t-86 -146.5t-147.5 -107.5 t-203.5 -40.5q-166 0 -285 81l-96 -118l-62 53l97 117q-121 125 -121 307q0 213 127 346t344 133q145 0 250 -57z" />
<glyph unicode="&#xf9;" horiz-adv-x="1153" d="M733 131q-141 -152 -303 -151q-143 0 -215 80.5t-70 197.5l5 252q4 168 -17 369l4 6q66 -6 135 -6l134 6l2 -6q-6 -39 -17 -369l-4 -184q-2 -115 28.5 -152t88.5 -37q76 0 152.5 62.5t76.5 146.5v164q0 254 -14 369l4 6q61 -6 131 -6l137 6l2 -6q-18 -109 -18 -369v-117 q0 -207 35 -393l-4 -6q-39 6 -129 6q-63 0 -111 -6q-18 0 -18 6l-11 131h-4zM508 1380l141 -254q18 -33 19 -53q0 -14 -10.5 -23.5t-24.5 -9.5q-25 0 -72 41l-248 215l4 23q18 20 59.5 42.5t90.5 22.5q25 0 41 -4z" />
<glyph unicode="&#xfa;" horiz-adv-x="1153" d="M733 131q-141 -152 -303 -151q-143 0 -215 80.5t-70 197.5l5 252q4 168 -17 369l4 6q66 -6 135 -6l134 6l2 -6q-6 -39 -17 -369l-4 -184q-2 -115 28.5 -152t88.5 -37q76 0 152.5 62.5t76.5 146.5v164q0 254 -14 369l4 6q61 -6 131 -6l137 6l2 -6q-18 -109 -18 -369v-117 q0 -207 35 -393l-4 -6q-39 6 -129 6q-63 0 -111 -6q-18 0 -18 6l-11 131h-4zM651 1380q12 4 33 4q78 0 117 -49l20 -47l-246 -221q-39 -33 -77 -33q-12 0 -22.5 9.5t-10.5 19.5q0 25 16 49z" />
<glyph unicode="&#xfb;" horiz-adv-x="1153" d="M733 131q-141 -152 -303 -151q-143 0 -215 80.5t-70 197.5l5 252q4 168 -17 369l4 6q66 -6 135 -6l134 6l2 -6q-6 -39 -17 -369l-4 -184q-2 -115 28.5 -152t88.5 -37q76 0 152.5 62.5t76.5 146.5v164q0 254 -14 369l4 6q61 -6 131 -6l137 6l2 -6q-18 -109 -18 -369v-117 q0 -207 35 -393l-4 -6q-39 6 -129 6q-63 0 -111 -6q-18 0 -18 6l-11 131h-4zM879 1055l-52 -39q-141 86 -219 168q-37 -37 -78 -70t-59 -46t-80 -52l-51 39q76 86 119 140t62.5 81t58.5 88h61l66 -99q20 -30 63 -83t109 -127z" />
<glyph unicode="&#xfc;" horiz-adv-x="1153" d="M733 131q-141 -152 -303 -151q-143 0 -215 80.5t-70 197.5l5 252q4 168 -17 369l4 6q66 -6 135 -6l134 6l2 -6q-6 -39 -17 -369l-4 -184q-2 -115 28.5 -152t88.5 -37q76 0 152.5 62.5t76.5 146.5v164q0 254 -14 369l4 6q61 -6 131 -6l137 6l2 -6q-18 -109 -18 -369v-117 q0 -207 35 -393l-4 -6q-39 6 -129 6q-63 0 -111 -6q-18 0 -18 6l-11 131h-4zM258 1169q0 49 34 83t81 34q49 0 82.5 -33.5t33.5 -83.5q0 -47 -33.5 -80.5t-82.5 -33.5q-45 0 -80 33.5t-35 80.5zM647 1169q0 49 34 83t83 34q47 0 81 -33.5t34 -83.5q0 -47 -34 -80.5 t-81 -33.5q-49 0 -83 33.5t-34 80.5z" />
<glyph unicode="&#xfd;" horiz-adv-x="1075" d="M578 182v-2h4zM57 885q29 -6 140 -6q102 0 129 6q70 -211 252 -652q125 281 243 652q20 -6 109 -6q68 0 88 6q-88 -178 -315.5 -691t-278.5 -679q-35 10 -100 10q-76 0 -111 -10q131 219 229 446l-6 14q-55 145 -184 454zM614 1380q12 4 33 4q78 0 117 -49l20 -47 l-245 -221q-39 -33 -78 -33q-12 0 -22.5 9.5t-10.5 19.5q0 25 16 49z" />
<glyph unicode="&#xfe;" horiz-adv-x="1193" d="M412 -66q0 -272 20 -409l-4 -6q-68 6 -137 6l-139 -6l-2 6q20 129 20 409v1053q0 272 -20 385l4 6q162 12 260 52q18 0 18 -21q-20 -164 -20 -385v-201l-2 -67q35 57 105.5 100t166.5 43q195 0 312.5 -116.5t117.5 -321.5q0 -236 -148.5 -358.5t-367.5 -122.5 q-100 0 -184 45v-91zM412 627v-469q74 -88 174 -88q268 0 268 356q0 201 -69.5 285t-155.5 84q-57 0 -120.5 -45t-96.5 -123z" />
<glyph unicode="&#xff;" horiz-adv-x="1075" d="M578 182v-2h4zM57 885q29 -6 140 -6q102 0 129 6q70 -211 252 -652q125 281 243 652q20 -6 109 -6q68 0 88 6q-88 -178 -315.5 -691t-278.5 -679q-35 10 -100 10q-76 0 -111 -10q131 219 229 446l-6 14q-55 145 -184 454zM274 1169q0 49 34 83t81 34q49 0 83 -33.5 t34 -83.5q0 -47 -34 -80.5t-83 -33.5q-47 0 -81 33.5t-34 80.5zM664 1169q0 49 33.5 83t82.5 34q47 0 81 -33.5t34 -83.5q0 -47 -35 -80.5t-80 -33.5q-49 0 -82.5 33.5t-33.5 80.5z" />
<glyph unicode="&#x152;" horiz-adv-x="1716" d="M932 0l-215 -4q-285 2 -458 187.5t-173 467.5q0 287 165 479.5t443 192.5q145 -2 238 -2h538q74 0 123 6l4 -6q-4 -57 -4 -64q0 -20 4 -53l-4 -8q-283 25 -557 25q-16 -55 -16 -310v-168q215 0 457 21l6 -6q-6 -29 -6 -57.5t6 -57.5l-6 -6q-203 20 -457 20v-247 q0 -244 16 -299q123 0 267.5 6t228.5 12l82 6l4 -8q-4 -33 -4 -68q0 -2 4 -59l-4 -6q-49 6 -123 6h-559zM713 76h26q59 0 82 18.5t23 63.5v1007q0 47 -21.5 61.5t-83.5 14.5h-71q-166 0 -268.5 -133t-102.5 -438q0 -297 121 -445.5t295 -148.5z" />
<glyph unicode="&#x153;" horiz-adv-x="1587" d="M254 485q0 -186 64.5 -305t195.5 -119q94 0 166 77t72 270q0 211 -79 311t-167 100q-121 0 -186.5 -105.5t-65.5 -228.5zM1497 215l41 -53q-61 -84 -152.5 -133t-197.5 -49q-242 0 -359 172q-61 -88 -134.5 -130t-209.5 -42q-190 0 -302.5 124.5t-112.5 317.5 q0 227 128 352t310 125q96 0 166.5 -27.5t104.5 -63.5t69 -93q61 88 149 136t179 48q184 0 266 -107.5t82 -259.5q0 -35 -37 -34h-551q0 -205 92 -301.5t201 -96.5q162 0 268 115zM942 588h371q29 0 28 28q0 104 -50 152.5t-115 48.5q-18 0 -39 -3t-53.5 -16.5t-58.5 -37 t-49.5 -68.5t-33.5 -104z" />
<glyph unicode="&#x178;" horiz-adv-x="1296" d="M770 586q4 -457 16 -592q-33 6 -149 6q-115 0 -148 -6q14 131 15 569q-63 111 -238.5 394.5t-232.5 369.5q35 -6 159.5 -6t159.5 6l83 -156q46 -84 77 -135l93 -157l85 -146q209 332 336 594q25 -6 129 -6q59 0 86 6l-133 -202l-118 -179l-86 -134q-48 -75 -78.5 -127 t-55.5 -99zM373 1583q0 47 32.5 79t77.5 32t77 -32t32 -79q0 -45 -32 -76.5t-77 -31.5t-77.5 31.5t-32.5 76.5zM758 1583q0 47 32.5 79t77.5 32t78 -33t33 -78t-33 -76.5t-78 -31.5t-77.5 31.5t-32.5 76.5z" />
<glyph unicode="&#x2c6;" horiz-adv-x="714" d="M657 1100l-51 -39q-141 86 -219 168q-37 -37 -78 -70t-59.5 -46t-79.5 -52l-51 39q76 86 119 140t62 81t58 88h62l65 -99q20 -30 63 -83t109 -127z" />
<glyph unicode="&#x2dc;" horiz-adv-x="598" d="M453 1274q57 0 94 119l69 -21q-43 -221 -186 -221q-35 0 -60.5 9t-39 19.5t-33.5 32.5q-49 53 -109 54q-39 0 -59 -27t-35 -82l-69 17q45 217 170 217q74 0 151 -66q60 -51 107 -51z" />
<glyph unicode="&#x2000;" horiz-adv-x="851" />
<glyph unicode="&#x2001;" horiz-adv-x="1705" />
<glyph unicode="&#x2002;" horiz-adv-x="851" />
<glyph unicode="&#x2003;" horiz-adv-x="1705" />
<glyph unicode="&#x2004;" horiz-adv-x="567" />
<glyph unicode="&#x2005;" horiz-adv-x="425" />
<glyph unicode="&#x2006;" horiz-adv-x="282" />
<glyph unicode="&#x2007;" horiz-adv-x="282" />
<glyph unicode="&#x2008;" horiz-adv-x="212" />
<glyph unicode="&#x2009;" horiz-adv-x="339" />
<glyph unicode="&#x200a;" horiz-adv-x="94" />
<glyph unicode="&#x2010;" horiz-adv-x="712" d="M575 453h-462q-12 0 -21.5 15t-9.5 30q0 27 17.5 65.5t33.5 38.5h469q29 0 29 -47q0 -20 -19 -61t-37 -41z" />
<glyph unicode="&#x2011;" horiz-adv-x="712" d="M575 453h-462q-12 0 -21.5 15t-9.5 30q0 27 17.5 65.5t33.5 38.5h469q29 0 29 -47q0 -20 -19 -61t-37 -41z" />
<glyph unicode="&#x2012;" horiz-adv-x="712" d="M575 453h-462q-12 0 -21.5 15t-9.5 30q0 27 17.5 65.5t33.5 38.5h469q29 0 29 -47q0 -20 -19 -61t-37 -41z" />
<glyph unicode="&#x2013;" horiz-adv-x="1122" d="M135 469q-29 0 -29 45q0 20 18.5 47t35.5 27h827q29 0 29 -43q0 -20 -17.5 -48t-35.5 -28h-828z" />
<glyph unicode="&#x2014;" horiz-adv-x="1519" d="M59 588h1401v-101h-1401v101z" />
<glyph unicode="&#x2018;" horiz-adv-x="548" d="M387 1128v-10q-29 -88 -127 -127h-10q-150 55 -150 246q0 119 85 208t198 109q10 -8 13 -33.5t-3 -43.5q-84 -23 -132 -77t-48 -100q0 -41 10 -52t37 -11q59 -12 87 -33t40 -76z" />
<glyph unicode="&#x2019;" horiz-adv-x="548" d="M162 1339v11q29 88 127 127h10q150 -55 150 -246q0 -119 -85 -208t-198 -110q-10 8 -13 34t3 44q84 23 132 77t48 99q0 41 -10.5 52.5t-36.5 11.5q-59 12 -87 32.5t-40 75.5z" />
<glyph unicode="&#x201a;" horiz-adv-x="548" d="M162 104v11q29 88 127 127h10q150 -55 150 -246q0 -119 -85 -208t-198 -110q-10 8 -13 34t3 44q84 23 132 77t48 99q0 41 -10.5 52.5t-36.5 11.5q-59 12 -87 32.5t-40 75.5z" />
<glyph unicode="&#x201c;" horiz-adv-x="768" d="M336 1130v-10q-29 -88 -127 -127h-10q-150 55 -150 246q0 119 85 208t198 109q10 -8 13 -33.5t-3 -43.5q-84 -23 -132 -77t-48 -99q0 -41 10 -52.5t37 -11.5q59 -12 87 -33t40 -76zM657 1130v-10q-29 -88 -127 -127h-10q-150 55 -149 246q0 119 85 208t197 109 q10 -8 13.5 -33.5t-2.5 -43.5q-84 -23 -132.5 -77t-48.5 -99q0 -41 10.5 -52.5t36.5 -11.5q59 -12 87 -33t40 -76z" />
<glyph unicode="&#x201d;" horiz-adv-x="768" d="M434 1339v11q29 88 127 127h10q150 -55 150 -246q0 -119 -85 -208t-198 -110q-10 8 -13 34t3 44q84 23 132 77t48 99q0 41 -10 52.5t-37 11.5q-59 12 -87 32.5t-40 75.5zM113 1339v11q29 88 127 127h10q150 -55 149 -246q0 -119 -85 -208t-197 -110q-10 8 -13.5 34 t2.5 44q84 23 132.5 77t48.5 99q0 41 -10.5 52.5t-36.5 11.5q-59 12 -87 32.5t-40 75.5z" />
<glyph unicode="&#x201e;" horiz-adv-x="768" d="M434 102v11q29 88 127 127h10q150 -55 150 -246q0 -119 -85 -208t-198 -110q-10 8 -13 34t3 44q84 23 132 77t48 99q0 41 -10 52.5t-37 11.5q-59 12 -87 32.5t-40 75.5zM113 102v11q29 88 127 127h10q150 -55 149 -246q0 -119 -85 -208t-197 -110q-10 8 -13.5 34t2.5 44 q84 23 132.5 77t48.5 99q0 41 -10.5 52.5t-36.5 11.5q-59 12 -87 32.5t-40 75.5z" />
<glyph unicode="&#x2022;" horiz-adv-x="718" d="M100 479q0 104 78 180t180 76q104 0 182 -76.5t78 -185.5q0 -100 -72.5 -179t-187.5 -79q-106 0 -182 76.5t-76 187.5z" />
<glyph unicode="&#x2026;" horiz-adv-x="1533" d="M1206 98v11q37 90 129 127h8q94 -33 130 -127v-11q-20 -57 -49 -85.5t-81 -41.5h-8q-57 12 -85 40t-44 87zM666 98v11q37 90 129 127h8q94 -33 129 -127v-11q-20 -57 -49 -85.5t-80 -41.5h-8q-57 12 -85 40t-44 87zM123 98v11q37 90 129 127h8q94 -33 129 -127v-11 q-20 -57 -49 -85.5t-80 -41.5h-8q-57 12 -85 40t-44 87z" />
<glyph unicode="&#x202f;" horiz-adv-x="339" />
<glyph unicode="&#x2039;" horiz-adv-x="727" d="M590 881v-111q-150 -211 -287 -330q131 -104 287 -327v-111q-250 291 -451 399v80q215 150 451 400z" />
<glyph unicode="&#x203a;" horiz-adv-x="727" d="M139 0v111q150 211 287 329q-131 104 -287 328v111q250 -291 451 -400v-80q-215 -149 -451 -399z" />
<glyph unicode="&#x205f;" horiz-adv-x="425" />
<glyph unicode="&#x20ac;" horiz-adv-x="897" d="M29 631l2 20l39 49h41q31 223 149.5 353.5t296.5 130.5q90 0 160.5 -21.5t97.5 -44.5l27 -22l4 -6q-6 -25 -15.5 -55.5t-12.5 -43t-6 -37t-5 -61.5l-21 -2q-53 127 -100 168t-158 41q-88 0 -159.5 -101.5t-89.5 -298.5h460l-37 -69h-428v-41q0 -33 2 -64h392l-37 -69 h-350q18 -172 83.5 -278.5t182.5 -106.5q104 0 150 36.5t108 163.5l20 -2q2 -37 5.5 -61.5t6.5 -36.5t12 -43t15 -55l-4 -6q-12 -10 -35.5 -24.5t-98.5 -39t-151 -24.5q-213 0 -329.5 129t-139.5 348h-106v18l41 51h61v37q0 37 2 68h-75z" />
<glyph unicode="&#x2122;" horiz-adv-x="1628" d="M1380 705l-34 403l-203 -498q-6 -20 -33 -20q-23 0 -35 20l-205 488q-16 -260 -28 -396v-12q0 -47 14 -47h31q35 0 35 -14v-17l-7 -12q-80 4 -124 4l-97 -4l-10 12v17q0 14 37 14h29q14 0 22 62l21 269q14 185 20 275v6v5q0 35 -18 34h-33q-35 2 -35 13v16l10 12h183 l229 -542l219 542h168l6 -12v-16q0 -12 -35 -13h-30q-18 0 -19 -32v-13l47 -544q8 -61 25 -62h29q39 0 38 -14v-17l-12 -12q-90 4 -133 4l-135 -4l-12 12v17q0 14 34 14h29q12 0 12 47v15zM424 698q0 -49 61 -49h29q10 0 10 -10v-27l-2 -2q-129 2 -170 2l-168 -2l-2 2v27 q0 10 11 10h28q63 0 64 49v543q0 41 -29 41h-104q-33 0 -48.5 -18.5t-31.5 -85.5l-45 12l39 184l49 -16q0 -2 -2 -8.5t-2 -10.5l-2 -4h477v4q-2 4 -4 10.5t-2 8.5l51 16l39 -186l-47 -10q-18 68 -33 86t-49 18h-88q-16 0 -22.5 -8t-6.5 -35v-541z" />
<glyph unicode="&#xe000;" horiz-adv-x="885" d="M0 885h885v-885h-885v885z" />
<glyph unicode="&#xfb01;" horiz-adv-x="1335" d="M332 1288q135 141 364 142q63 0 92 -19l3 -6q-10 -16 -18.5 -55t-16.5 -85t-13 -67l-41 -2q-16 29 -26 44t-34 31.5t-50 16.5q-82 0 -126 -52t-44 -140q0 -23 5 -96.5t5 -100.5v-20h221q16 0 17 -13v-55q0 -27 -47 -27h-191v-374q0 -274 17 -410l-5 -6q-63 6 -133 6 l-133 -6l-2 6q14 104 14 410v374h-135q-10 0 -10 13v41q0 41 47 41h98v61q1 201 142 348zM893 481q0 250 -21 361l5 6q162 12 260 51q18 0 18 -20q-20 -156 -20 -365v-145q0 -223 20 -369l-4 -6q-68 6 -137 6l-140 -6l-2 6q20 139 21 369v112zM881 1214.5q0 55.5 38.5 94.5 t94 39t94.5 -39t39 -94.5t-39 -94.5t-94.5 -39t-94 39t-38.5 94.5z" />
<glyph unicode="&#xfb02;" horiz-adv-x="1277" d="M332 1288q135 141 364 142q63 0 92 -19l3 -6q-10 -16 -18.5 -55t-16.5 -85t-13 -67l-41 -2q-16 29 -26 44t-34 31.5t-50 16.5q-82 0 -126 -52t-44 -140q0 -23 5 -96.5t5 -100.5v-20h221q16 0 17 -13v-55q0 -27 -47 -27h-191v-374q0 -274 17 -410l-5 -6q-63 6 -133 6 l-133 -6l-2 6q14 104 14 410v374h-135q-10 0 -10 13v41q0 41 47 41h98v61q1 201 142 348zM885 410v561q0 272 -21 385l4 6q111 8 260 68q18 0 19 -21q-20 -164 -21 -385v-614q0 -272 21 -410l-4 -6q-68 6 -137 6l-140 -6l-2 6q21 129 21 410z" />
<glyph unicode="&#xfb03;" horiz-adv-x="2043" d="M332 1288q135 141 364 142q63 0 92 -19l3 -6q-10 -16 -18.5 -55t-16.5 -85t-13 -67l-41 -2q-16 29 -26 44t-34 31.5t-50 16.5q-82 0 -126 -52t-44 -140q0 -23 5 -96.5t5 -100.5v-20h221q16 0 17 -13v-55q0 -27 -47 -27h-191v-374q0 -274 17 -410l-5 -6q-63 6 -133 6 l-133 -6l-2 6q14 104 14 410v374h-135q-10 0 -10 13v41q0 41 47 41h98v61q1 201 142 348zM1040 1288q135 141 365 142q63 0 92 -19l2 -6q-10 -16 -18 -55t-16.5 -85l-12.5 -67l-41 -2q-16 29 -26.5 44t-34 31.5t-50.5 16.5q-82 0 -126 -52t-44 -140q0 -23 5.5 -96.5 t5.5 -100.5v-20h221q16 0 16 -13v-55q0 -27 -47 -27h-190v-374q0 -274 16 -410l-4 -6q-63 6 -133 6l-133 -6l-2 6q14 104 14 410v374h-135q-10 0 -10 13v41q0 41 47 41h98v61q0 201 141 348zM1602 481q0 250 -21 361l4 6q162 12 260 51q18 0 19 -20q-20 -156 -21 -365v-145 q0 -223 21 -369l-4 -6q-68 6 -138 6l-139 -6l-2 6q20 139 21 369v112zM1589 1214.5q0 55.5 39 94.5t94.5 39t94 -39t38.5 -94.5t-38.5 -94.5t-94 -39t-94.5 39t-39 94.5z" />
<glyph unicode="&#xfb04;" horiz-adv-x="2027" d="M332 1288q135 141 364 142q63 0 92 -19l3 -6q-10 -16 -18.5 -55t-16.5 -85t-13 -67l-41 -2q-16 29 -26 44t-34 31.5t-50 16.5q-82 0 -126 -52t-44 -140q0 -23 5 -96.5t5 -100.5v-20h221q16 0 17 -13v-55q0 -27 -47 -27h-191v-374q0 -274 17 -410l-5 -6q-63 6 -133 6 l-133 -6l-2 6q14 104 14 410v374h-135q-10 0 -10 13v41q0 41 47 41h98v61q1 201 142 348zM1040 1288q135 141 365 142q63 0 92 -19l2 -6q-10 -16 -18 -55t-16.5 -85l-12.5 -67l-41 -2q-16 29 -26.5 44t-34 31.5t-50.5 16.5q-82 0 -126 -52t-44 -140q0 -23 5.5 -96.5 t5.5 -100.5v-20h221q16 0 16 -13v-55q0 -27 -47 -27h-190v-374q0 -274 16 -410l-4 -6q-63 6 -133 6l-133 -6l-2 6q14 104 14 410v374h-135q-10 0 -10 13v41q0 41 47 41h98v61q0 201 141 348zM1593 410v561q0 272 -20 385l4 6q111 8 260 68q18 0 18 -21q-20 -164 -20 -385 v-614q0 -272 20 -410l-4 -6q-68 6 -137 6l-139 -6l-2 6q20 129 20 410z" />
</font>
</defs>
</svg>
